<svg xmlns="http://www.w3.org/2000/svg" width="16" height="10.031" viewBox="0 0 16 10.031">
  <path id="Behance" d="M-2.556-7.149A2.108,2.108,0,0,0-1.211-9.2c0-1.961-1.461-2.439-3.147-2.439H-9V-1.8h4.772c1.789,0,3.469-.858,3.469-2.858A2.372,2.372,0,0,0-2.556-7.149ZM-6.836-9.963h2.031c.781,0,1.483.219,1.483,1.125,0,.836-.547,1.172-1.319,1.172H-6.836Zm2.314,6.492H-6.836V-6.183h2.358c.953,0,1.556.4,1.556,1.406S-3.642-3.472-4.522-3.472Zm9.958-6.686v-.969H1.444v.969ZM7-5.26C7-7.369,5.767-9.127,3.531-9.127A3.582,3.582,0,0,0-.117-5.355,3.472,3.472,0,0,0,3.531-1.613a3.178,3.178,0,0,0,3.336-2.4H5.139a1.622,1.622,0,0,1-1.547.931,1.612,1.612,0,0,1-1.75-1.814H6.983C6.992-5.01,7-5.135,7-5.26ZM1.844-6.127A1.53,1.53,0,0,1,3.469-7.649,1.459,1.459,0,0,1,5.031-6.127Z" transform="translate(9 11.644)" fill="#3f2016"/>
</svg>
