<svg xmlns="http://www.w3.org/2000/svg" width="16" height="16" viewBox="0 0 16 16">
  <path id="Dribbble" d="M.25-13.75a8.009,8.009,0,0,0-8,8,8.009,8.009,0,0,0,8,8,8.009,8.009,0,0,0,8-8A8.009,8.009,0,0,0,.25-13.75Zm5.289,3.689A6.8,6.8,0,0,1,7.082-5.8a15.968,15.968,0,0,0-4.758-.22c-.186-.453-.361-.851-.6-1.342A9.1,9.1,0,0,0,5.539-10.061Zm-.76-.79A7.715,7.715,0,0,1,1.2-8.383a36.478,36.478,0,0,0-2.55-4A6.816,6.816,0,0,1,4.78-10.851Zm-7.435-1.073A43.6,43.6,0,0,1-.122-7.972a25.487,25.487,0,0,1-6.317.833A6.858,6.858,0,0,1-2.655-11.924ZM-6.583-5.74c0-.07,0-.139,0-.209A25.205,25.205,0,0,0,.443-6.921c.2.383.382.771.554,1.16A10.584,10.584,0,0,0-4.827-1.171,6.806,6.806,0,0,1-6.583-5.74ZM-3.944-.349A9.611,9.611,0,0,1,1.461-4.631,28.405,28.405,0,0,1,2.919.551,6.819,6.819,0,0,1-3.944-.349Zm8.012.274A29.5,29.5,0,0,0,2.74-4.947,10.029,10.029,0,0,1,7-4.655,6.845,6.845,0,0,1,4.068-.075Z" transform="translate(7.75 13.75)" fill="#3f2016"/>
</svg>
