<svg xmlns="http://www.w3.org/2000/svg" width="16" height="15.996" viewBox="0 0 16 15.996">
  <path id="Instagram" d="M1-9.109a4.1,4.1,0,0,0-4.1,4.1A4.1,4.1,0,0,0,1-.906a4.1,4.1,0,0,0,4.1-4.1A4.1,4.1,0,0,0,1-9.109ZM1-2.341A2.671,2.671,0,0,1-1.667-5.007,2.669,2.669,0,0,1,1-7.674,2.669,2.669,0,0,1,3.666-5.007,2.671,2.671,0,0,1,1-2.341ZM6.225-9.276a.957.957,0,0,0-.957-.957.957.957,0,0,0-.957.957.954.954,0,0,0,.957.957A.954.954,0,0,0,6.225-9.276Zm2.716.971a4.734,4.734,0,0,0-1.292-3.352A4.765,4.765,0,0,0,4.3-12.949c-1.321-.075-5.279-.075-6.6,0a4.758,4.758,0,0,0-3.352,1.289A4.75,4.75,0,0,0-6.946-8.309c-.075,1.321-.075,5.279,0,6.6A4.734,4.734,0,0,0-5.654,1.643,4.771,4.771,0,0,0-2.3,2.935c1.321.075,5.279.075,6.6,0A4.734,4.734,0,0,0,7.649,1.643,4.765,4.765,0,0,0,8.941-1.709C9.016-3.03,9.016-6.985,8.941-8.305ZM7.235-.292A2.7,2.7,0,0,1,5.715,1.229C4.662,1.646,2.163,1.55,1,1.55s-3.666.093-4.715-.321A2.7,2.7,0,0,1-5.236-.292c-.418-1.053-.321-3.552-.321-4.715s-.093-3.666.321-4.715a2.7,2.7,0,0,1,1.521-1.521c1.053-.418,3.552-.321,4.715-.321s3.666-.093,4.715.321A2.7,2.7,0,0,1,7.235-9.722c.418,1.053.321,3.552.321,4.715S7.653-1.341,7.235-.292Z" transform="translate(7.002 13.005)" fill="#3f2016"/>
</svg>
