<svg xmlns="http://www.w3.org/2000/svg" viewBox="0 0 249.28 107.52"><g data-name="Layer 2"><g data-name="Layer 1"><path d="M1.69.5A.34.34 0 0 1 2 .16h4.2a3.62 3.62 0 0 1 3.9 3.35A3.58 3.58 0 0 1 8 6.36c1 .39 2.42 1.27 2.42 2.93a3.68 3.68 0 0 1-3.92 3.48H2a.35.35 0 0 1-.34-.35zm4.22 4.78A1.29 1.29 0 0 0 7.17 4a1.23 1.23 0 0 0-1.26-1.25H4.5v2.53zm.23 4.91a1.31 1.31 0 0 0 1.3-1.31A1.44 1.44 0 0 0 6 7.62H4.5v2.57zm5.72-4.28a.35.35 0 0 1 .34-.35h.85a.34.34 0 0 1 .33.22l.32.79a2.5 2.5 0 0 1 2-1.19c1 0 1.69.36 1.44.78l-.92 1.44a.32.32 0 0 1-.4.16 1.2 1.2 0 0 0-.43-.09 1 1 0 0 0-1 1v3.72c0 .22-.11.35-.4.35H12.2a.36.36 0 0 1-.34-.35zm8.46 2.25a3.49 3.49 0 0 1 1.39.28c0-.7-.11-1.06-1-1.06a7.75 7.75 0 0 0-1.8.27c-.27.09-.4-.11-.44-.38l-.16-1.13a.39.39 0 0 1 .27-.49A12.92 12.92 0 0 1 21 5.38c2.23 0 3 .94 3 3.06v4a.36.36 0 0 1-.34.35h-.79a.34.34 0 0 1-.33-.24l-.25-.48a3 3 0 0 1-2.18.9 2.34 2.34 0 0 1-2.48-2.38 2.39 2.39 0 0 1 2.69-2.43zm.47 3a.8.8 0 0 0 .79-.79.79.79 0 0 0-.79-.76.76.76 0 0 0-.77.76.78.78 0 0 0 .77.81zM26 5.91a.35.35 0 0 1 .35-.35h.84a.41.41 0 0 1 .33.22l.29.72a3.38 3.38 0 0 1 2.53-1.12c2.24 0 3.42 1.71 3.42 3.77v3.27a.36.36 0 0 1-.34.35h-1.95a.35.35 0 0 1-.35-.35V9.06a1.22 1.22 0 0 0-1.22-1.35A1.31 1.31 0 0 0 28.53 9v3.45c0 .17-.07.35-.32.35h-1.89a.37.37 0 0 1-.35-.35zm12.63-.53a3.51 3.51 0 0 1 1.49.35V.5a.36.36 0 0 1 .35-.34h2a.36.36 0 0 1 .35.34v11.92a.37.37 0 0 1-.35.35h-.84c-.18 0-.31-.17-.38-.36l-.22-.6A3.09 3.09 0 0 1 38.61 13a3.64 3.64 0 0 1-3.56-3.78 3.46 3.46 0 0 1 3.58-3.84zm.37 5.24a1.43 1.43 0 0 0 1.44-1.47A1.41 1.41 0 0 0 39 7.71a1.43 1.43 0 0 0-1.46 1.44A1.45 1.45 0 0 0 39 10.62zm9-5.24a3.79 3.79 0 1 1-3.75 3.77A3.79 3.79 0 0 1 48 5.38zm0 5.24a1.44 1.44 0 0 0 1.42-1.47 1.43 1.43 0 1 0-2.85 0A1.45 1.45 0 0 0 48 10.62zm5.24-4.71a.35.35 0 0 1 .35-.35h.84a.41.41 0 0 1 .33.22l.24.72a3.42 3.42 0 0 1 2.54-1.12c2.28 0 3.46 1.71 3.46 3.77v3.27a.36.36 0 0 1-.34.35h-1.92a.35.35 0 0 1-.35-.35V9.06a1.22 1.22 0 0 0-1.22-1.35A1.31 1.31 0 0 0 55.8 9v3.45c0 .17-.07.35-.32.35h-1.89a.37.37 0 0 1-.35-.35zM73.05 0a7 7 0 0 1 4.39 1.69.32.32 0 0 1 0 .49l-1.39 1.51a.37.37 0 0 1-.48 0 3.33 3.33 0 0 0-2.36-.87 3.61 3.61 0 0 0 0 7.22 4.36 4.36 0 0 0 1.6-.28v-1h-1.12a.33.33 0 0 1-.34-.32V6.63a.34.34 0 0 1 .34-.35h3.62a.35.35 0 0 1 .33.35v4.84a.47.47 0 0 1-.14.29 9.07 9.07 0 0 1-4.46 1.17A6.47 6.47 0 1 1 73.05 0zm6.33 5.91a.35.35 0 0 1 .34-.35h.85a.32.32 0 0 1 .32.22l.33.79a2.48 2.48 0 0 1 2-1.19c1 0 1.69.36 1.44.78l-.92 1.44a.32.32 0 0 1-.4.16 1.2 1.2 0 0 0-.43-.09 1 1 0 0 0-1 1v3.72c0 .22-.1.35-.39.35h-1.8a.36.36 0 0 1-.34-.35zm9.41-.53a3.79 3.79 0 1 1-3.74 3.77 3.79 3.79 0 0 1 3.74-3.77zm0 5.24a1.45 1.45 0 0 0 1.43-1.47 1.43 1.43 0 1 0-2.85 0 1.44 1.44 0 0 0 1.42 1.47zm5.51-2.77h-.47a.33.33 0 0 1-.32-.34v-1.6a.33.33 0 0 1 .32-.35h.47v-2a.35.35 0 0 1 .34-.34h1.93a.33.33 0 0 1 .32.34v2h1.34a.33.33 0 0 1 .34.35v1.6a.34.34 0 0 1-.34.34h-1.34v2.25c0 .4.27.43.49.43a4.05 4.05 0 0 0 .7-.12.31.31 0 0 1 .4.23l.4 1.5a.36.36 0 0 1-.24.41 9.21 9.21 0 0 1-2.18.4c-1.37 0-2.16-.87-2.16-2.51zm9.18-2.47a3.37 3.37 0 0 1 3.42 3.39v.48a.35.35 0 0 1-.34.31h-4.36a1.34 1.34 0 0 0 1.39 1.19 2.4 2.4 0 0 0 1.26-.43.31.31 0 0 1 .45 0l.9 1.08a.39.39 0 0 1 0 .52 3.66 3.66 0 0 1-2.66 1 3.79 3.79 0 0 1 0-7.57zm.88 2.78a1 1 0 0 0-1-.85 1 1 0 0 0-1 .85zm3.55 3.84l.63-1.24a.3.3 0 0 1 .38-.14 4 4 0 0 0 1.62.46.31.31 0 0 0 .34-.32c0-.18-.11-.43-1-.76a2.47 2.47 0 0 1-2-2.41c0-1.2.86-2.18 2.81-2.18a4.79 4.79 0 0 1 2.39.56c.16.11.29.27.18.45l-.67 1.23a.31.31 0 0 1-.37.1 4.18 4.18 0 0 0-1.53-.41c-.24 0-.4.05-.4.25s.2.36.81.58c1.46.5 2.47 1.08 2.47 2.52 0 1.26-1 2.29-3 2.29a4.3 4.3 0 0 1-2.44-.6c-.22-.14-.31-.24-.22-.38zm10.19-6.62a3.11 3.11 0 0 1 2.41 1.14l.22-.6c.07-.19.2-.36.37-.36h.9a.36.36 0 0 1 .34.35v11.92a.36.36 0 0 1-.34.34h-2a.36.36 0 0 1-.34-.34V12.6a3.56 3.56 0 0 1-1.49.35 3.46 3.46 0 0 1-3.59-3.78 3.65 3.65 0 0 1 3.52-3.79zm.36 5.24a1.46 1.46 0 0 0 0-2.91 1.46 1.46 0 1 0 0 2.91zm5.7-4.71a.35.35 0 0 1 .35-.35h1.92a.35.35 0 0 1 .34.35v3.33a1.24 1.24 0 0 0 1.16 1.38A1.18 1.18 0 0 0 129 9.34V5.91c0-.29.19-.35.37-.35h1.84a.35.35 0 0 1 .34.35v6.51a.36.36 0 0 1-.34.35h-.85a.4.4 0 0 1-.34-.26l-.27-.66a3.06 3.06 0 0 1-2.43 1.1c-2.14 0-3.17-1.73-3.17-3.78zm12.62-.53a3.37 3.37 0 0 1 3.42 3.39v.48a.36.36 0 0 1-.35.31h-4.35a1.34 1.34 0 0 0 1.39 1.19 2.4 2.4 0 0 0 1.26-.43.31.31 0 0 1 .45 0l.9 1.08a.39.39 0 0 1 0 .52 3.66 3.66 0 0 1-2.66 1 3.79 3.79 0 0 1 0-7.57zm.88 2.78a1 1 0 0 0-.95-.85 1 1 0 0 0-1 .85zM1.69 24.5a.34.34 0 0 1 .31-.34h4.2a3.62 3.62 0 0 1 3.87 3.35A3.58 3.58 0 0 1 8 30.36c1 .39 2.42 1.27 2.42 2.93a3.68 3.68 0 0 1-3.92 3.48H2a.35.35 0 0 1-.34-.35zm4.22 4.78A1.29 1.29 0 0 0 7.17 28a1.23 1.23 0 0 0-1.26-1.23H4.5v2.53zm.23 4.91a1.31 1.31 0 0 0 1.3-1.31A1.44 1.44 0 0 0 6 31.62H4.5v2.57zm5.74-9.69a.35.35 0 0 1 .34-.34h2a.36.36 0 0 1 .35.34v11.92a.37.37 0 0 1-.35.35h-2a.36.36 0 0 1-.34-.35zm6.86 7.66a3.49 3.49 0 0 1 1.39.28c0-.7-.11-1.06-1-1.06a7.92 7.92 0 0 0-1.8.27c-.27.09-.39-.11-.43-.38l-.16-1.13a.39.39 0 0 1 .27-.49 12.89 12.89 0 0 1 2.39-.27c2.24 0 3 .94 3 3.06v4a.37.37 0 0 1-.35.35h-.79a.33.33 0 0 1-.32-.24l-.25-.48a3.06 3.06 0 0 1-2.18.9 2.34 2.34 0 0 1-2.49-2.38 2.4 2.4 0 0 1 2.72-2.43zm.47 3a.78.78 0 1 0 0-1.55.77.77 0 0 0-.78.76.79.79 0 0 0 .78.81zm8.51-5.78a3.34 3.34 0 0 1 2.7 1.3.35.35 0 0 1-.09.5l-1.08 1a.32.32 0 0 1-.39 0 1.44 1.44 0 0 0-2.49 1 1.42 1.42 0 0 0 1.41 1.45 1.54 1.54 0 0 0 1.22-.57.31.31 0 0 1 .4-.07l1.08.94c.16.14.25.32.12.5A3.22 3.22 0 0 1 27.7 37a3.83 3.83 0 0 1-3.87-3.78 3.88 3.88 0 0 1 3.89-3.84zM32 24.5a.35.35 0 0 1 .34-.34h2a.35.35 0 0 1 .34.34v7.8l2.18-2.52a.61.61 0 0 1 .45-.22h2a.34.34 0 0 1 .27.56l-2.38 2.76 2.88 3.35a.32.32 0 0 1-.27.54h-2.37a.49.49 0 0 1-.27-.15l-2.45-3.13v2.93a.36.36 0 0 1-.34.35h-2a.36.36 0 0 1-.34-.35z"/><path d="M.05 74.14L7.56 58a.48.48 0 0 1 .44-.28h.24a.48.48 0 0 1 .41.27l7.51 16.15a.43.43 0 0 1-.41.63h-2.69c-.43 0-.63-.15-.84-.6l-.87-1.9H4.82L4 74.19a.89.89 0 0 1-.86.58H.46a.43.43 0 0 1-.41-.63zM9.91 69l-1.82-4-1.83 4zM21 58.42a.46.46 0 0 1 .46-.46h5.59c2.83 0 5.16 1.95 5.16 4.47 0 1.85-1.66 3.19-2.79 3.79 1.28.53 3.22 1.7 3.22 3.91 0 2.69-2.38 4.64-5.23 4.64h-5.95a.46.46 0 0 1-.46-.46zm5.62 6.36a1.71 1.71 0 0 0 1.68-1.73 1.63 1.63 0 0 0-1.68-1.63h-1.88v3.36zm.31 6.55a1.74 1.74 0 0 0 1.73-1.75 1.92 1.92 0 0 0-2-1.68h-2v3.43zM46 57.72A8.06 8.06 0 0 1 51.84 60a.44.44 0 0 1 0 .67L50 62.57a.42.42 0 0 1-.6 0 4.91 4.91 0 0 0-3.24-1.22 4.91 4.91 0 0 0 0 9.82A5 5 0 0 0 49.39 70a.49.49 0 0 1 .61 0l1.87 2a.48.48 0 0 1 0 .65A8.24 8.24 0 0 1 46 75a8.65 8.65 0 1 1 0-17.29zm11.65.7a.45.45 0 0 1 .43-.46h5.86a8.41 8.41 0 1 1 0 16.81h-5.86a.45.45 0 0 1-.43-.46zm6.05 12.79a4.86 4.86 0 0 0 0-9.72h-2.31v9.72zm14.49-12.79a.46.46 0 0 1 .46-.46h9.93a.46.46 0 0 1 .46.46V61a.45.45 0 0 1-.46.45h-6.64v3h5.47a.46.46 0 0 1 .45.45v2.62a.46.46 0 0 1-.45.46h-5.47v3.24h6.64a.45.45 0 0 1 .46.45v2.62a.46.46 0 0 1-.46.46h-9.93a.46.46 0 0 1-.46-.46zm16.97 0a.46.46 0 0 1 .45-.46h9.94a.46.46 0 0 1 .46.46V61a.45.45 0 0 1-.46.45H98.9V65h5.48a.47.47 0 0 1 .45.46V68a.47.47 0 0 1-.45.46H98.9v5.83a.47.47 0 0 1-.45.46h-2.84a.46.46 0 0 1-.45-.46zm23.84-.67a9.29 9.29 0 0 1 5.85 2.25.43.43 0 0 1 .05.65l-1.9 2a.5.5 0 0 1-.65 0 4.41 4.41 0 0 0-3.14-1.15 4.82 4.82 0 0 0 0 9.63 5.65 5.65 0 0 0 2.14-.39v-1.35h-1.52a.43.43 0 0 1-.45-.43v-2.38a.44.44 0 0 1 .45-.45h4.83a.44.44 0 0 1 .43.45v6.46a.57.57 0 0 1-.2.38A12.11 12.11 0 0 1 119 75a8.62 8.62 0 1 1 0-17.23zm12.33.67a.47.47 0 0 1 .45-.46h2.86a.46.46 0 0 1 .45.46v6H142v-6a.46.46 0 0 1 .46-.46h2.85a.48.48 0 0 1 .46.46v15.89a.48.48 0 0 1-.46.46h-2.85a.46.46 0 0 1-.46-.46V68h-6.87v6.31a.46.46 0 0 1-.45.46h-2.86a.47.47 0 0 1-.45-.46zm21.43 0a.47.47 0 0 1 .45-.46h2.88a.48.48 0 0 1 .46.46v15.89a.48.48 0 0 1-.46.46h-2.88a.47.47 0 0 1-.45-.46zm8.47 14.23l1.63-1.65a.47.47 0 0 1 .65 0 1.5 1.5 0 0 0 1.22.51c.67 0 1.42-.63 1.42-1.82V58.42a.46.46 0 0 1 .46-.46h2.92a.46.46 0 0 1 .46.46v11.33a5 5 0 0 1-5.16 5.25 4.59 4.59 0 0 1-3.65-1.76.5.5 0 0 1 .05-.59zm15.43-14.11a.57.57 0 0 1 .58-.58H180a.59.59 0 0 1 .58.58v6.31L186 58.2a.72.72 0 0 1 .46-.24h3a.55.55 0 0 1 .43.89l-5.61 7 6.12 8a.57.57 0 0 1-.46.89h-3.34a.59.59 0 0 1-.43-.17L180.62 67v7.15a.59.59 0 0 1-.58.58h-2.8a.57.57 0 0 1-.58-.58zm19.06-.12a.46.46 0 0 1 .45-.46H199a.47.47 0 0 1 .45.46v12.82h5.72a.45.45 0 0 1 .45.45v2.62a.46.46 0 0 1-.45.46h-9a.46.46 0 0 1-.45-.46zm16.82-.31a.46.46 0 0 1 .43-.39h.39a.52.52 0 0 1 .4.24l5.57 10.37L225 58a.54.54 0 0 1 .41-.24h.38a.46.46 0 0 1 .43.39l2.72 16.13a.45.45 0 0 1-.46.53h-2.88a.49.49 0 0 1-.46-.39L224.06 67H224l-4 7.78a.55.55 0 0 1-.41.27h-.43a.52.52 0 0 1-.41-.27l-4-7.78h-.05l-1.06 7.42a.46.46 0 0 1-.45.39h-2.84a.44.44 0 0 1-.45-.53zm22.3.05a.45.45 0 0 1 .45-.44h.6l9.58 9.22v-8.52A.46.46 0 0 1 246 58h2.88a.47.47 0 0 1 .45.46v16.11a.45.45 0 0 1-.45.44h-.39a.84.84 0 0 1-.31-.12l-9.48-9.53v9a.46.46 0 0 1-.46.46h-2.85a.48.48 0 0 1-.46-.46zM9.6 85.72A8.65 8.65 0 1 1 1 94.39a8.63 8.63 0 0 1 8.6-8.67zm0 13.45a4.81 4.81 0 1 0-4.78-4.78 4.82 4.82 0 0 0 4.78 4.78zm14.45-12.75a.46.46 0 0 1 .45-.42h5.79a5.36 5.36 0 1 1 0 10.71h-2.5v5.64a.47.47 0 0 1-.45.46H24.5a.46.46 0 0 1-.45-.46zm6 6.75a1.89 1.89 0 0 0 1.9-1.9 1.84 1.84 0 0 0-1.9-1.78h-2.26v3.68zm18.43-7.45a8.63 8.63 0 0 1 8.64 8.67 9 9 0 0 1-4.44 7.61l3.1 4.85a.46.46 0 0 1-.39.72h-3.24a.44.44 0 0 1-.38-.24L49.22 103a7.08 7.08 0 0 1-.74 0 8.65 8.65 0 0 1 0-17.29zm0 13.45a4.81 4.81 0 1 0-4.78-4.78 4.82 4.82 0 0 0 4.78 4.78zM63 86.42a.46.46 0 0 1 .45-.46h7.18a5.13 5.13 0 0 1 1.68 10l3.29 6.1a.46.46 0 0 1-.41.7H72a.42.42 0 0 1-.38-.22l-3.2-6.36h-1.65v6.12a.48.48 0 0 1-.46.46h-2.86a.46.46 0 0 1-.45-.46zm7.32 6.72a1.92 1.92 0 0 0 1.82-1.92 1.83 1.83 0 0 0-1.82-1.82h-3.55v3.74zM81 100.49l1.13-2a.62.62 0 0 1 .82-.14 7.1 7.1 0 0 0 3.41 1.32A1.5 1.5 0 0 0 88 98.23c0-1-.84-1.78-2.47-2.43-2.07-.81-4.66-2.42-4.66-5.3 0-2.38 1.85-4.78 5.55-4.78a9 9 0 0 1 5.13 1.8.62.62 0 0 1 .15.77l-1.2 1.85c-.16.26-.6.48-.81.31S87.72 89 86.26 89a1.4 1.4 0 0 0-1.52 1.23c0 .89.72 1.56 2.62 2.32s4.85 2.21 4.85 5.48c0 2.47-2.14 5-5.67 5a7.65 7.65 0 0 1-5.4-1.85c-.24-.26-.31-.36-.14-.69zm19.2-11h-3.43a.45.45 0 0 1-.46-.45v-2.62a.46.46 0 0 1 .46-.46h10.65a.46.46 0 0 1 .46.46V89a.45.45 0 0 1-.46.45H104v12.82a.47.47 0 0 1-.46.46h-2.88a.47.47 0 0 1-.45-.46zm12.74-3.07a.48.48 0 0 1 .46-.46h2.95a.47.47 0 0 1 .46.46v9.72a3 3 0 1 0 6 0v-9.72a.46.46 0 0 1 .46-.46h3a.47.47 0 0 1 .45.46v9.91a6.84 6.84 0 0 1-13.68 0zm18.29.17a.43.43 0 0 1 .41-.63h3.19a.48.48 0 0 1 .41.27l4 8.76h.14l4-8.76a.48.48 0 0 1 .41-.27h3.19a.43.43 0 0 1 .41.63l-7.54 16.15a.44.44 0 0 1-.4.27h-.24a.44.44 0 0 1-.41-.27zm28.34-.87a8.64 8.64 0 0 1 8.65 8.67 9 9 0 0 1-4.45 7.56l3.1 4.85a.46.46 0 0 1-.38.72h-3.24a.44.44 0 0 1-.39-.24l-2.54-4.3a7.35 7.35 0 0 1-.75 0 8.65 8.65 0 0 1 0-17.29zm0 13.45a4.81 4.81 0 1 0-4.77-4.78 4.82 4.82 0 0 0 4.77 4.78zm18.08-5.02l-4.85-7.51a.44.44 0 0 1 .41-.68h3.5a.49.49 0 0 1 .38.22l2.76 4.46 2.81-4.46a.45.45 0 0 1 .38-.22h3.5c.41 0 .63.36.41.68l-4.87 7.51 5 7.94a.42.42 0 0 1-.38.68h-3.34a.55.55 0 0 1-.41-.22l-3.14-4.85-3.07 4.85a.52.52 0 0 1-.41.22H173a.43.43 0 0 1-.4-.68zm18.16.53l-5.3-8a.45.45 0 0 1 .38-.7H194a.5.5 0 0 1 .39.22l3.33 4.92 3.34-4.92a.43.43 0 0 1 .38-.22h3.12a.45.45 0 0 1 .39.7l-5.38 8v7.66a.47.47 0 0 1-.45.46h-2.86a.47.47 0 0 1-.46-.46zm12.46 7.2l6.38-12.34v-.05h-5.23A.47.47 0 0 1 209 89v-2.58a.48.48 0 0 1 .46-.46h10.2a.48.48 0 0 1 .46.46v.31l-6.17 12.46h5.23a.45.45 0 0 1 .46.45v2.62a.46.46 0 0 1-.46.46h-10.46a.47.47 0 0 1-.45-.46z" fill="#323232"/></g></g></svg>