<svg xmlns="http://www.w3.org/2000/svg" width="16" height="15.6" viewBox="0 0 16 15.6">
  <path id="Github" d="M-2.4-1.189c0-.074-.084-.126-.181-.116s-.168.052-.168.116.074.126.181.116S-2.4-1.124-2.4-1.189Zm-1-.145c-.023.065.042.139.139.158a.151.151,0,0,0,.2-.065c.019-.065-.042-.139-.139-.168A.166.166,0,0,0-3.4-1.334Zm1.426-.055c-.094.023-.158.084-.148.158s.094.106.19.084.158-.084.148-.148S-1.882-1.4-1.976-1.389ZM.147-13.75a7.735,7.735,0,0,0-7.9,7.871A8.087,8.087,0,0,0-2.282,1.837c.413.074.558-.181.558-.39s-.01-1.3-.01-1.981c0,0-2.258.484-2.732-.961,0,0-.368-.939-.9-1.181,0,0-.739-.506.052-.5a1.7,1.7,0,0,1,1.245.832,1.705,1.705,0,0,0,2.352.674A1.793,1.793,0,0,1-1.2-2.753c-1.8-.2-3.623-.461-3.623-3.565a2.445,2.445,0,0,1,.761-1.9,3.048,3.048,0,0,1,.084-2.19c.674-.21,2.226.871,2.226.871A7.579,7.579,0,0,1,.276-9.811,7.579,7.579,0,0,1,2.3-9.537s1.552-1.084,2.226-.871a3.046,3.046,0,0,1,.084,2.19,2.508,2.508,0,0,1,.832,1.9c0,3.113-1.9,3.361-3.7,3.565a1.908,1.908,0,0,1,.548,1.5c0,1.087-.01,2.432-.01,2.7,0,.21.148.464.558.39A8.013,8.013,0,0,0,8.25-5.879,7.91,7.91,0,0,0,.147-13.75ZM-4.615-2.624c-.042.032-.032.106.023.168s.126.074.168.032.032-.106-.023-.168S-4.573-2.666-4.615-2.624Zm-.348-.261c-.023.042.01.094.074.126a.1.1,0,0,0,.139-.023c.023-.042-.01-.094-.074-.126S-4.94-2.918-4.963-2.885Zm1.045,1.148c-.052.042-.032.139.042.2s.168.084.21.032.023-.139-.042-.2S-3.876-1.789-3.918-1.737Zm-.368-.474c-.052.032-.052.116,0,.19s.139.106.181.074a.147.147,0,0,0,0-.2C-4.15-2.221-4.234-2.253-4.285-2.211Z" transform="translate(7.75 13.75)" fill="#3f2016"/>
</svg>
