<svg xmlns="http://www.w3.org/2000/svg" width="16" height="12.695" viewBox="0 0 16 12.695">
  <path id="Medium" d="M-5.661-9.41v7.072a.806.806,0,0,1-.215.7L-7.556.4V.669h4.763V.4l-1.68-2.038a.833.833,0,0,1-.232-.7V-8.454L-.524.672h.486l3.6-9.126v7.271c0,.192,0,.232-.126.357L2.139.428V.7H8.414V.428L7.167-.8a.373.373,0,0,1-.142-.357v-9a.373.373,0,0,1,.142-.357l1.277-1.224V-12H4.021L.869-4.137-2.717-12H-7.354v.268l1.492,1.8A.625.625,0,0,1-5.661-9.41Z" transform="translate(7.556 12)" fill="#3f2016"/>
</svg>
