<svg xmlns="http://www.w3.org/2000/svg" viewBox="0 0 263.06 107.54"><defs><style>.cls-1{fill:#323232;}</style></defs><title>brandon-regular</title><g id="Layer_2" data-name="Layer 2"><g id="Layer_1-2" data-name="Layer 1"><path d="M1.74.52A.34.34,0,0,1,2.08.18H6A3.39,3.39,0,0,1,9.72,3.49,3.38,3.38,0,0,1,8,6.37a3.18,3.18,0,0,1,2.16,2.94c0,2-1.6,3.47-3.92,3.47H2.08a.34.34,0,0,1-.34-.34ZM6.33,11.58A2.22,2.22,0,0,0,8.6,9.29,2.38,2.38,0,0,0,6,7.08h-3v4.5ZM6,5.83A2.09,2.09,0,0,0,8.19,3.58,2,2,0,0,0,6,1.42H3.09V5.83Z"/><path d="M12.29,5.92a.35.35,0,0,1,.34-.34H13a.31.31,0,0,1,.31.25l.14.53a2.67,2.67,0,0,1,2.16-1c.54,0,1.44.09,1.26.6l-.21.61c-.09.23-.25.23-.43.16a2,2,0,0,0-.71-.14,2.33,2.33,0,0,0-2,1v4.81a.35.35,0,0,1-.34.34h-.56a.35.35,0,0,1-.34-.34Z"/><path d="M20.75,8.21a6,6,0,0,1,1.53.23c0-1.33-.14-1.94-1.17-1.94A6.19,6.19,0,0,0,19,6.9a.24.24,0,0,1-.34-.18l-.15-.45a.3.3,0,0,1,.2-.4,6.83,6.83,0,0,1,2.5-.47c1.84,0,2.29.94,2.29,3v4a.35.35,0,0,1-.34.34h-.34c-.2,0-.26-.1-.31-.27L22.32,12a3.13,3.13,0,0,1-2.24.93,2.18,2.18,0,0,1-2.21-2.36C17.87,9.24,18.9,8.21,20.75,8.21Zm-.47,3.67a2.54,2.54,0,0,0,2-1V9.45a3.27,3.27,0,0,0-1.51-.29c-1,0-1.73.51-1.73,1.44A1.21,1.21,0,0,0,20.28,11.88Z"/><path d="M26,5.92a.35.35,0,0,1,.34-.34h.34A.25.25,0,0,1,27,5.8l.17.56a4,4,0,0,1,2.52-1c2.08,0,2.79,1.37,2.79,3.24v3.8a.36.36,0,0,1-.35.34h-.57a.35.35,0,0,1-.34-.34V8.64c0-1.37-.62-2-1.62-2a3.59,3.59,0,0,0-2.33,1v4.81a.35.35,0,0,1-.34.34h-.56a.35.35,0,0,1-.34-.34Z"/><path d="M38,5.4a3.84,3.84,0,0,1,1.92.47V.52a.35.35,0,0,1,.34-.34h.56a.35.35,0,0,1,.34.34V12.44a.35.35,0,0,1-.34.34h-.38a.31.31,0,0,1-.3-.28L40,12a3.21,3.21,0,0,1-2.21,1,3.56,3.56,0,0,1-3.28-3.8A3.45,3.45,0,0,1,38,5.4Zm-.06,6.43a2.42,2.42,0,0,0,2-1.19V7a3.84,3.84,0,0,0-1.74-.43,2.3,2.3,0,0,0-2.36,2.57C35.78,10.59,36.61,11.83,37.92,11.83Z"/><path d="M46.87,5.4a3.69,3.69,0,0,1,3.58,3.76,3.59,3.59,0,1,1-7.17,0A3.7,3.7,0,0,1,46.87,5.4Zm0,6.39a2.48,2.48,0,0,0,2.34-2.63,2.35,2.35,0,1,0-4.68,0A2.47,2.47,0,0,0,46.87,11.79Z"/><path d="M52.57,5.92a.35.35,0,0,1,.34-.34h.35a.25.25,0,0,1,.28.22l.17.56a4,4,0,0,1,2.52-1C58.32,5.4,59,6.77,59,8.64v3.8a.35.35,0,0,1-.34.34H58.1a.35.35,0,0,1-.34-.34V8.64c0-1.37-.61-2-1.62-2a3.55,3.55,0,0,0-2.32,1v4.81a.36.36,0,0,1-.35.34h-.56a.35.35,0,0,1-.34-.34Z"/><path d="M71.8,0a6.36,6.36,0,0,1,4.36,1.67.35.35,0,0,1,0,.51c-.16.16-.36.34-.5.5s-.27.16-.47,0a5.46,5.46,0,0,0-3.42-1.4,5.08,5.08,0,0,0-5,5.17,5.12,5.12,0,0,0,5,5.2A6.82,6.82,0,0,0,75,10.88V8.35H73A.32.32,0,0,1,72.61,8V7.36A.33.33,0,0,1,73,7h3.12a.33.33,0,0,1,.32.34v4.13a.47.47,0,0,1-.14.29A9,9,0,0,1,71.8,13a6.48,6.48,0,1,1,0-13Z"/><path d="M78.74,5.92a.36.36,0,0,1,.35-.34h.34a.3.3,0,0,1,.3.25l.15.53A2.64,2.64,0,0,1,82,5.4c.54,0,1.44.09,1.26.6l-.22.61c-.09.23-.25.23-.43.16a1.88,1.88,0,0,0-.7-.14,2.31,2.31,0,0,0-2,1v4.81a.36.36,0,0,1-.35.34h-.55a.36.36,0,0,1-.35-.34Z"/><path d="M87.85,5.4a3.7,3.7,0,0,1,3.59,3.76,3.59,3.59,0,1,1-7.17,0A3.69,3.69,0,0,1,87.85,5.4Zm0,6.39a2.47,2.47,0,0,0,2.34-2.63,2.35,2.35,0,1,0-4.68,0A2.48,2.48,0,0,0,87.85,11.79Z"/><path d="M94,6.66h-.92a.34.34,0,0,1-.34-.34v-.4a.33.33,0,0,1,.34-.34H94v-2a.35.35,0,0,1,.34-.34l.57,0a.34.34,0,0,1,.33.34v2h2.09a.34.34,0,0,1,.34.34v.4a.34.34,0,0,1-.34.34H95.27v4.22c0,.72.18.86.59.86a3.43,3.43,0,0,0,1.32-.4c.27-.14.34,0,.43.11l.27.45c.13.22.07.33-.13.45a4.71,4.71,0,0,1-2.07.61C94.24,13,94,12.1,94,11Z"/><path d="M102.81,5.4a3.18,3.18,0,0,1,3.26,3.3,3.88,3.88,0,0,1,0,.48.33.33,0,0,1-.32.31h-5.19a2.54,2.54,0,0,0,2.42,2.34,3.44,3.44,0,0,0,1.78-.54c.25-.14.36-.23.5,0l.31.42c.13.16.2.27-.07.47a4.51,4.51,0,0,1-2.65.82,3.53,3.53,0,0,1-3.53-3.78A3.55,3.55,0,0,1,102.81,5.4Zm2,3.08a2.09,2.09,0,0,0-2-2,2.24,2.24,0,0,0-2.27,2Z"/><path d="M107.69,11.78c.07-.11.2-.36.25-.45a.34.34,0,0,1,.49-.06,3,3,0,0,0,1.69.63c.74,0,1.17-.38,1.17-.86s-.54-.92-1.59-1.44-2-1.1-2-2.33a2,2,0,0,1,2.29-1.87,3.76,3.76,0,0,1,2,.56.45.45,0,0,1,.11.56l-.15.29a.4.4,0,0,1-.52.16,3.63,3.63,0,0,0-1.44-.43c-.81,0-1,.41-1,.72,0,.59.6.86,1.33,1.22,1.25.59,2.36,1.15,2.36,2.45a2.28,2.28,0,0,1-2.48,2,3.6,3.6,0,0,1-2.34-.81A.34.34,0,0,1,107.69,11.78Z"/><path d="M117.5,5.4a3.23,3.23,0,0,1,2.09.76l.12-.33a.35.35,0,0,1,.34-.25h.33a.35.35,0,0,1,.34.34V17.84a.36.36,0,0,1-.34.35h-.56a.36.36,0,0,1-.34-.35V12.33a3.17,3.17,0,0,1-1.93.63A3.55,3.55,0,0,1,114.1,9.2,3.58,3.58,0,0,1,117.5,5.4Zm.21,6.36a3.12,3.12,0,0,0,1.75-.6V7.42a2.46,2.46,0,0,0-1.84-.88,2.38,2.38,0,0,0-2.26,2.64A2.41,2.41,0,0,0,117.71,11.76Z"/><path d="M123.29,5.92a.36.36,0,0,1,.35-.34h.57a.35.35,0,0,1,.34.34v3.8c0,1.37.62,2,1.62,2a2.87,2.87,0,0,0,2.15-1V5.92a.35.35,0,0,1,.34-.34h.56a.35.35,0,0,1,.34.34v6.52a.35.35,0,0,1-.34.34h-.34c-.2,0-.27-.12-.33-.3l-.12-.47a3.31,3.31,0,0,1-2.35,1c-2.08,0-2.79-1.35-2.79-3.26Z"/><path d="M135.21,5.4a3.18,3.18,0,0,1,3.26,3.3,3.88,3.88,0,0,1,0,.48.33.33,0,0,1-.32.31h-5.19a2.54,2.54,0,0,0,2.42,2.34,3.47,3.47,0,0,0,1.78-.54c.25-.14.36-.23.5,0l.31.42c.12.16.2.27-.07.47a4.53,4.53,0,0,1-2.65.82,3.53,3.53,0,0,1-3.53-3.78A3.55,3.55,0,0,1,135.21,5.4Zm2,3.08a2.09,2.09,0,0,0-2-2,2.24,2.24,0,0,0-2.27,2Z"/><path d="M1.74,24.52a.34.34,0,0,1,.34-.34H6.75A3.87,3.87,0,0,1,10.67,28,4,4,0,0,1,8,31.69l2.46,4.57a.34.34,0,0,1-.3.52H9.25A.32.32,0,0,1,9,36.62L6.57,31.85H3.13v4.59a.35.35,0,0,1-.35.34h-.7a.34.34,0,0,1-.34-.34Zm4.92,6.14a2.59,2.59,0,1,0,0-5.17H3.16v5.17Z"/><path d="M15.64,29.4a3.18,3.18,0,0,1,3.26,3.3,3.88,3.88,0,0,1,0,.48.33.33,0,0,1-.32.31H13.35a2.52,2.52,0,0,0,2.41,2.34,3.48,3.48,0,0,0,1.79-.54c.25-.14.36-.23.5,0l.31.42c.12.16.19.27-.08.47a4.47,4.47,0,0,1-2.64.82,3.53,3.53,0,0,1-3.53-3.78A3.55,3.55,0,0,1,15.64,29.4Zm2,3.08a2.07,2.07,0,0,0-2-2,2.23,2.23,0,0,0-2.27,2Z"/><path d="M21.43,34.37a3.2,3.2,0,0,1-.57-1.8,3,3,0,0,1,3-3.17h3a.33.33,0,0,1,.34.34v.31c0,.13-.07.29-.19.31l-1,.19a2.52,2.52,0,0,1,.81,2,3,3,0,0,1-3,3.06,2.85,2.85,0,0,1-1.71-.45,1.35,1.35,0,0,0-.79,1.08.89.89,0,0,0,1,.88H25c1.51,0,2.7.74,2.7,2.31S26.13,42.37,24,42.37c-2.41,0-3.45-1.3-3.45-2.49a1.92,1.92,0,0,1,1-1.67v-.06a1.72,1.72,0,0,1-1.31-1.71A2.56,2.56,0,0,1,21.43,34.37Zm2.5,6.82c1.19,0,2.42-.66,2.42-1.71,0-.23-.11-1.17-1.37-1.17H23s-1.21.33-1.21,1.39C21.77,40.56,22.71,41.19,23.93,41.19Zm1.79-8.66a1.82,1.82,0,0,0-1.8-2,2,2,0,0,0,0,4A1.82,1.82,0,0,0,25.72,32.53Z"/><path d="M29.21,29.92a.35.35,0,0,1,.34-.34h.58a.35.35,0,0,1,.34.34v3.8c0,1.37.61,2,1.62,2a2.83,2.83,0,0,0,2.14-1V29.92a.35.35,0,0,1,.34-.34h.56a.35.35,0,0,1,.34.34v6.52a.35.35,0,0,1-.34.34h-.34c-.2,0-.27-.12-.32-.3L34.34,36A3.3,3.3,0,0,1,32,37c-2.09,0-2.79-1.35-2.79-3.26Z"/><path d="M38.14,24.52a.35.35,0,0,1,.34-.34H39a.35.35,0,0,1,.34.34V36.44a.35.35,0,0,1-.34.34h-.56a.35.35,0,0,1-.34-.34Z"/><path d="M44.4,32.21a6,6,0,0,1,1.53.23c0-1.33-.14-1.94-1.17-1.94a6.19,6.19,0,0,0-2.16.4.24.24,0,0,1-.34-.18l-.15-.45a.3.3,0,0,1,.2-.4,6.83,6.83,0,0,1,2.5-.47c1.84,0,2.29.94,2.29,3v4a.35.35,0,0,1-.34.34h-.34c-.2,0-.26-.1-.31-.27L46,36a3.13,3.13,0,0,1-2.24.93,2.18,2.18,0,0,1-2.21-2.36C41.52,33.24,42.55,32.21,44.4,32.21Zm-.47,3.67a2.54,2.54,0,0,0,2-1V33.45a3.27,3.27,0,0,0-1.51-.29c-1,0-1.73.51-1.73,1.44A1.21,1.21,0,0,0,43.93,35.88Z"/><path d="M49.69,29.92a.35.35,0,0,1,.34-.34h.35a.3.3,0,0,1,.3.25l.15.53a2.64,2.64,0,0,1,2.16-1c.54,0,1.44.09,1.26.6l-.22.61c-.09.23-.25.23-.43.16a1.88,1.88,0,0,0-.7-.14,2.33,2.33,0,0,0-2,1v4.81a.35.35,0,0,1-.34.34H50a.35.35,0,0,1-.34-.34Z"/><path class="cls-1" d="M.05,74.16,7.34,58a.44.44,0,0,1,.41-.27H8A.42.42,0,0,1,8.4,58l7.25,16.15a.42.42,0,0,1-.41.62h-1a.45.45,0,0,1-.41-.26l-1.77-4H3.58l-1.76,4a.42.42,0,0,1-.4.26h-1A.42.42,0,0,1,.05,74.16Zm11.4-5.09c-1.18-2.61-2.33-5.26-3.51-7.87H7.75l-3.5,7.87Z"/><path class="cls-1" d="M22.39,58.44a.46.46,0,0,1,.46-.46H28.1C31,58,33,59.88,33,62.4a4.53,4.53,0,0,1-2.35,3.84,4.24,4.24,0,0,1,2.88,3.91c0,2.69-2.13,4.63-5.23,4.63H22.85a.45.45,0,0,1-.46-.45Zm6.12,14.74a3,3,0,0,0,3-3.05,3.19,3.19,0,0,0-3.44-3h-4v6Zm-.41-7.66a2.78,2.78,0,0,0,2.88-3,2.66,2.66,0,0,0-2.88-2.88H24.19v5.88Z"/><path class="cls-1" d="M49,57.74A8.46,8.46,0,0,1,54.77,60a.48.48,0,0,1,0,.68l-.65.64c-.19.24-.38.22-.62,0a7.27,7.27,0,0,0-4.58-1.8,6.9,6.9,0,0,0,0,13.8,7,7,0,0,0,4.58-1.8.45.45,0,0,1,.58-.07l.72.65a.46.46,0,0,1,0,.65A8.23,8.23,0,0,1,49,75a8.64,8.64,0,1,1,0-17.28Z"/><path class="cls-1" d="M62.61,58.44a.46.46,0,0,1,.44-.46h5.37a8.4,8.4,0,1,1,0,16.8H63.05a.45.45,0,0,1-.44-.45ZM68,73.13a6.76,6.76,0,1,0,0-13.52h-3.6V73.13Z"/><path class="cls-1" d="M84.67,58.44a.46.46,0,0,1,.46-.46h9.45a.46.46,0,0,1,.46.46v.69a.46.46,0,0,1-.46.46H86.52v5.86h6.89a.46.46,0,0,1,.45.45v.7a.46.46,0,0,1-.45.46H86.52v6.12h8.06a.45.45,0,0,1,.46.45v.7a.45.45,0,0,1-.46.45H85.13a.45.45,0,0,1-.46-.45Z"/><path class="cls-1" d="M103,58.44a.46.46,0,0,1,.45-.46h9.46a.46.46,0,0,1,.45.46v.69a.46.46,0,0,1-.45.46h-8.07v6.58h6.89a.47.47,0,0,1,.46.45v.7a.47.47,0,0,1-.46.45h-6.89v6.56a.46.46,0,0,1-.45.45h-.94a.45.45,0,0,1-.45-.45Z"/><path class="cls-1" d="M128.23,57.74A8.46,8.46,0,0,1,134,60a.48.48,0,0,1,0,.68c-.21.21-.48.45-.67.67s-.36.21-.62,0a7.32,7.32,0,0,0-4.56-1.87,6.92,6.92,0,0,0,0,13.83,9,9,0,0,0,4.32-1V68.88h-2.76a.43.43,0,0,1-.46-.43v-.89a.44.44,0,0,1,.46-.46h4.15a.45.45,0,0,1,.43.46v5.5a.6.6,0,0,1-.19.38A11.88,11.88,0,0,1,128.23,75a8.64,8.64,0,1,1,0-17.28Z"/><path class="cls-1" d="M142.48,58.44a.48.48,0,0,1,.46-.46h.94a.46.46,0,0,1,.45.46v7h9.75v-7a.46.46,0,0,1,.45-.46h.94a.48.48,0,0,1,.46.46V74.33a.47.47,0,0,1-.46.45h-.94a.45.45,0,0,1-.45-.45V67.06h-9.75v7.27a.45.45,0,0,1-.45.45h-.94a.47.47,0,0,1-.46-.45Z"/><path class="cls-1" d="M165,58.44a.47.47,0,0,1,.45-.46h1a.48.48,0,0,1,.46.46V74.33a.47.47,0,0,1-.46.45h-1a.46.46,0,0,1-.45-.45Z"/><path class="cls-1" d="M173,72.65l.51-.58c.38-.36.57-.19.81.07a3.42,3.42,0,0,0,2.33,1.28c1.44,0,2.93-1.06,2.93-3.6V58.44A.46.46,0,0,1,180,58h.93a.46.46,0,0,1,.46.46V69.77c0,3.33-2,5.25-4.83,5.25a4.59,4.59,0,0,1-3.64-1.77A.51.51,0,0,1,173,72.65Z"/><path class="cls-1" d="M189.69,58.56a.57.57,0,0,1,.58-.58H191a.59.59,0,0,1,.58.58v6.79L199,58.22a.69.69,0,0,1,.45-.24h1.18a.46.46,0,0,1,.29.84l-7.59,7.08L201.31,74a.47.47,0,0,1-.41.74h-1.22a.69.69,0,0,1-.44-.16l-7.7-8v7.63a.58.58,0,0,1-.58.57h-.69a.57.57,0,0,1-.58-.57Z"/><path class="cls-1" d="M208.65,58.44a.46.46,0,0,1,.46-.46H210a.48.48,0,0,1,.46.46V73.18h6.91a.45.45,0,0,1,.46.45v.7a.45.45,0,0,1-.46.45h-8.3a.45.45,0,0,1-.46-.45Z"/><path class="cls-1" d="M226.46,58.08a.47.47,0,0,1,.43-.34h.38a.46.46,0,0,1,.41.27l4.75,13.22h.12L237.24,58a.44.44,0,0,1,.4-.27H238a.47.47,0,0,1,.43.34l3.1,16.13c.07.33-.08.57-.44.57h-1a.49.49,0,0,1-.43-.33L237.6,62.09h-.1l-4.42,12.67a.49.49,0,0,1-.4.26h-.44a.5.5,0,0,1-.41-.26l-4.46-12.67h-.1l-2.08,12.36a.47.47,0,0,1-.44.33h-1c-.36,0-.5-.24-.43-.57Z"/><path class="cls-1" d="M249.38,58.17a.44.44,0,0,1,.45-.43h.6l10.83,13.49h.05V58.44a.46.46,0,0,1,.45-.46h.84a.48.48,0,0,1,.46.46V74.59a.45.45,0,0,1-.46.43h-.43l-11-13.75h0V74.33a.45.45,0,0,1-.46.45h-.84a.46.46,0,0,1-.45-.45Z"/><path class="cls-1" d="M9.74,85.74a8.64,8.64,0,1,1-8.61,8.67A8.63,8.63,0,0,1,9.74,85.74Zm0,15.6a7,7,0,1,0-6.93-6.93A7,7,0,0,0,9.74,101.34Z"/><path class="cls-1" d="M26.18,86.44a.47.47,0,0,1,.46-.46h5.3a5.36,5.36,0,1,1,0,10.71H28v5.64a.47.47,0,0,1-.46.45h-.91a.46.46,0,0,1-.46-.45Zm5.64,8.47a3.67,3.67,0,0,0,3.65-3.67,3.54,3.54,0,0,0-3.65-3.43H28v7.1Z"/><path class="cls-1" d="M52,85.74a8.66,8.66,0,0,1,3.53,16.56l2.8,4.52a.45.45,0,0,1-.38.72h-1.2a.5.5,0,0,1-.38-.24l-2.62-4.42A10.16,10.16,0,0,1,52,103a8.64,8.64,0,0,1,0-17.28Zm0,15.6a7,7,0,1,0-6.94-6.93A7,7,0,0,0,52,101.34Z"/><path class="cls-1" d="M68.47,86.44a.46.46,0,0,1,.46-.46h6.21a5.17,5.17,0,0,1,5.24,5.11A5.37,5.37,0,0,1,76.82,96l3.29,6.1a.45.45,0,0,1-.41.69H78.48a.4.4,0,0,1-.38-.21l-3.2-6.36H70.32v6.12a.47.47,0,0,1-.46.45h-.93a.45.45,0,0,1-.46-.45ZM75,94.62a3.45,3.45,0,1,0,0-6.89H70.37v6.89Z"/><path class="cls-1" d="M87.38,100.26c.12-.14.24-.31.36-.45.24-.31.51-.51.84-.22a6.6,6.6,0,0,0,4.06,1.83c1.94,0,3.21-1.23,3.21-2.64,0-1.66-1.44-2.64-4.2-3.8s-4.22-2.23-4.22-5c0-1.63,1.3-4.27,5.11-4.27A7.87,7.87,0,0,1,96.65,87a.53.53,0,0,1,.14.81l-.29.46a.54.54,0,0,1-.84.21,6.81,6.81,0,0,0-3.14-1.1C90,87.35,89.21,89,89.21,90c0,1.61,1.22,2.54,3.24,3.39,3.24,1.31,5.33,2.54,5.33,5.32,0,2.5-2.38,4.32-5.19,4.32a7.8,7.8,0,0,1-5.06-1.94A.53.53,0,0,1,87.38,100.26Z"/><path class="cls-1" d="M107.76,87.59h-4.18a.46.46,0,0,1-.45-.46v-.69a.46.46,0,0,1,.45-.46h10.18a.46.46,0,0,1,.45.46v.69a.46.46,0,0,1-.45.46h-4.18v14.74a.46.46,0,0,1-.45.45h-.92a.46.46,0,0,1-.45-.45Z"/><path class="cls-1" d="M120.77,86.44a.47.47,0,0,1,.45-.46h.91a.46.46,0,0,1,.46.46v10c0,2.73,1.7,4.87,4.51,4.87s4.56-2.09,4.56-4.82V86.44a.46.46,0,0,1,.46-.46H133a.48.48,0,0,1,.46.46V96.59a6.36,6.36,0,1,1-12.72,0Z"/><path class="cls-1" d="M140,86.61a.43.43,0,0,1,.41-.63h1a.45.45,0,0,1,.41.27l6,13.44h.09l6-13.44a.47.47,0,0,1,.41-.27h1a.42.42,0,0,1,.4.63l-7.29,16.15a.46.46,0,0,1-.41.26h-.24a.49.49,0,0,1-.41-.26Z"/><path class="cls-1" d="M169.75,85.74a8.66,8.66,0,0,1,3.53,16.56l2.8,4.52a.45.45,0,0,1-.38.72h-1.2a.5.5,0,0,1-.38-.24l-2.62-4.42a10.16,10.16,0,0,1-1.75.14,8.64,8.64,0,0,1,0-17.28Zm0,15.6a7,7,0,1,0-6.94-6.93A7,7,0,0,0,169.75,101.34Z"/><path class="cls-1" d="M189.6,94.17l-4.69-7.52a.43.43,0,0,1,.41-.67h1.3a.5.5,0,0,1,.41.22l3.69,6.36h0l3.74-6.36a.47.47,0,0,1,.41-.22h1.3a.43.43,0,0,1,.4.67l-4.68,7.52,4.85,7.94a.43.43,0,0,1-.41.67h-1.1a.51.51,0,0,1-.41-.21l-4.1-6.8h0l-4.05,6.8a.48.48,0,0,1-.41.21h-1.1c-.44,0-.63-.36-.44-.67Z"/><path class="cls-1" d="M207.72,94.69l-5.79-8a.45.45,0,0,1,.38-.7h1.13a.53.53,0,0,1,.39.22l4.85,6.7,4.84-6.7a.53.53,0,0,1,.39-.22H215a.45.45,0,0,1,.38.7l-5.86,8v7.66a.46.46,0,0,1-.45.45h-.94a.45.45,0,0,1-.45-.45Z"/><path class="cls-1" d="M220.29,101.9,229,87.73v-.07h-7.56a.46.46,0,0,1-.45-.45v-.77a.47.47,0,0,1,.45-.46h9.72a.48.48,0,0,1,.46.46v.31l-8.86,14.33v0h7.92a.46.46,0,0,1,.46.46v.77a.45.45,0,0,1-.46.45h-9.93a.47.47,0,0,1-.46-.45Z"/></g></g></svg>