<svg xmlns="http://www.w3.org/2000/svg" viewBox="0 0 248.54 107.54"><defs><style>.cls-1{fill:#323232;}</style></defs><title>brandon-bold</title><g id="Layer_2" data-name="Layer 2"><g id="Layer_1-2" data-name="Layer 1"><path d="M1.69.52A.34.34,0,0,1,2,.18H6.15A3.53,3.53,0,0,1,10,3.51,3.4,3.4,0,0,1,8,6.37a3.25,3.25,0,0,1,2.34,2.94,3.63,3.63,0,0,1-3.92,3.47H2a.34.34,0,0,1-.34-.34ZM5.94,5.47A1.54,1.54,0,0,0,7.48,3.85,1.47,1.47,0,0,0,5.94,2.32H4V5.47Zm.25,5.19A1.61,1.61,0,0,0,7.81,9,1.75,1.75,0,0,0,6,7.45H4v3.21Z"/><path d="M12,5.92a.34.34,0,0,1,.34-.34H13a.33.33,0,0,1,.33.24l.25.7a2.52,2.52,0,0,1,2-1.12c.84,0,1.6.27,1.38.72l-.66,1.17a.32.32,0,0,1-.42.16,2.35,2.35,0,0,0-.52-.1,1.47,1.47,0,0,0-1.28.73v4.36c0,.25-.16.34-.41.34H12.36a.35.35,0,0,1-.34-.34Z"/><path d="M20.6,8.23a4.66,4.66,0,0,1,1.32.2c0-.92-.27-1.25-.94-1.25a9,9,0,0,0-2,.27c-.26.08-.38-.09-.42-.32l-.16-.94a.36.36,0,0,1,.25-.45,10,10,0,0,1,2.45-.34c2.25,0,2.77,1.17,2.77,3.13v3.91a.35.35,0,0,1-.34.34h-.65c-.12,0-.21,0-.3-.25l-.22-.48a3.12,3.12,0,0,1-2.2.91,2.29,2.29,0,0,1-2.43-2.46C17.72,9.22,18.77,8.23,20.6,8.23Zm0,3.2a1.62,1.62,0,0,0,1.24-.7v-1a2.74,2.74,0,0,0-1-.22c-.7,0-1.17.4-1.17,1A.9.9,0,0,0,20.64,11.43Z"/><path d="M26,5.92a.34.34,0,0,1,.34-.34h.69a.3.3,0,0,1,.3.22l.26.66A3.57,3.57,0,0,1,30.15,5.4c2.28,0,3.2,1.71,3.2,3.58v3.46a.35.35,0,0,1-.34.34H31.53a.34.34,0,0,1-.34-.34V8.88c0-.94-.49-1.53-1.35-1.53a1.79,1.79,0,0,0-1.69,1.13v4c0,.25-.11.34-.45.34H26.36a.35.35,0,0,1-.34-.34Z"/><path d="M38.48,5.4a4.2,4.2,0,0,1,1.6.33V.52a.35.35,0,0,1,.34-.34H42a.36.36,0,0,1,.35.34V12.44a.36.36,0,0,1-.35.34h-.7c-.16,0-.29-.14-.34-.34l-.18-.56A3.17,3.17,0,0,1,38.37,13a3.61,3.61,0,0,1-3.46-3.78A3.57,3.57,0,0,1,38.48,5.4ZM38.64,11a1.57,1.57,0,0,0,1.51-1.17V7.76a2.32,2.32,0,0,0-1.4-.41A1.76,1.76,0,0,0,37,9.18,1.72,1.72,0,0,0,38.64,11Z"/><path d="M47.68,5.4A3.78,3.78,0,1,1,44,9.16,3.76,3.76,0,0,1,47.68,5.4Zm0,5.62a1.8,1.8,0,0,0,1.73-1.86,1.77,1.77,0,0,0-1.73-1.81A1.76,1.76,0,0,0,46,9.16,1.78,1.78,0,0,0,47.68,11Z"/><path d="M53.06,5.92a.34.34,0,0,1,.34-.34h.68a.31.31,0,0,1,.31.22l.25.66A3.57,3.57,0,0,1,57.18,5.4c2.29,0,3.21,1.71,3.21,3.58v3.46a.36.36,0,0,1-.35.34H58.57a.34.34,0,0,1-.34-.34V8.88c0-.94-.49-1.53-1.36-1.53a1.8,1.8,0,0,0-1.69,1.13v4c0,.25-.11.34-.45.34H53.4a.35.35,0,0,1-.34-.34Z"/><path d="M72.68,0a6.81,6.81,0,0,1,4.39,1.67.35.35,0,0,1,0,.51L76,3.35a.3.3,0,0,1-.46,0A4.07,4.07,0,0,0,72.79,2.3a4.14,4.14,0,0,0-4,4.18,4.1,4.1,0,0,0,4,4.12A5.56,5.56,0,0,0,75,10.15V8.62H73.51a.32.32,0,0,1-.34-.32V6.88a.33.33,0,0,1,.34-.34H77a.34.34,0,0,1,.33.34v4.61a.35.35,0,0,1-.15.29A9.07,9.07,0,0,1,72.68,13,6.48,6.48,0,0,1,72.68,0Z"/><path d="M79.27,5.92a.34.34,0,0,1,.34-.34h.68a.34.34,0,0,1,.33.24l.25.7a2.51,2.51,0,0,1,2-1.12c.85,0,1.61.27,1.39.72l-.67,1.17a.31.31,0,0,1-.41.16,2.64,2.64,0,0,0-.52-.1,1.45,1.45,0,0,0-1.28.73v4.36c0,.25-.16.34-.42.34H79.61a.35.35,0,0,1-.34-.34Z"/><path d="M88.57,5.4a3.78,3.78,0,1,1-3.69,3.76A3.75,3.75,0,0,1,88.57,5.4Zm0,5.62A1.79,1.79,0,0,0,90.3,9.16a1.73,1.73,0,1,0-3.46,0A1.79,1.79,0,0,0,88.57,11Z"/><path d="M94.33,7.47h-.61a.34.34,0,0,1-.33-.34V5.92a.34.34,0,0,1,.33-.34h.61v-2a.35.35,0,0,1,.34-.34l1.48,0a.33.33,0,0,1,.32.34v2h1.59a.33.33,0,0,1,.34.34V7.13a.34.34,0,0,1-.34.34H96.47v2.88c0,.51.27.58.56.58a2.86,2.86,0,0,0,.88-.2.28.28,0,0,1,.4.2l.36,1.13a.34.34,0,0,1-.2.44,7,7,0,0,1-2.14.46c-1.39,0-2-.86-2-2.32Z"/><path d="M103.39,5.4a3.3,3.3,0,0,1,3.36,3.35c0,.13,0,.36,0,.49a.35.35,0,0,1-.35.3h-4.6a1.71,1.71,0,0,0,1.72,1.57,2.57,2.57,0,0,0,1.41-.45c.18-.11.34-.14.47,0l.73.85a.29.29,0,0,1,0,.46,3.9,3.9,0,0,1-2.69,1,3.67,3.67,0,0,1-3.69-3.78A3.69,3.69,0,0,1,103.39,5.4Zm1.26,2.88a1.35,1.35,0,0,0-1.32-1.22,1.41,1.41,0,0,0-1.4,1.22Z"/><path d="M108,11.92l.48-1a.28.28,0,0,1,.42-.13,4,4,0,0,0,1.64.43c.36,0,.61-.14.61-.45s-.25-.52-1.21-.9c-1.39-.54-2-1.28-2-2.37s.81-2.13,2.64-2.13a4.16,4.16,0,0,1,2.22.56.39.39,0,0,1,.16.49l-.45.91a.34.34,0,0,1-.43.13,4.25,4.25,0,0,0-1.5-.38c-.43,0-.61.18-.61.42s.32.43,1,.7c1.39.54,2.43,1.13,2.43,2.54,0,1.19-1,2.19-2.86,2.19a4.09,4.09,0,0,1-2.4-.66A.31.31,0,0,1,108,11.92Z"/><path d="M117.93,5.4a3.11,3.11,0,0,1,2.32,1l.24-.59a.31.31,0,0,1,.3-.22h.7a.35.35,0,0,1,.35.34V17.84a.37.37,0,0,1-.35.35h-1.44c-.32,0-.43-.13-.43-.35V12.57a3.56,3.56,0,0,1-5.17-3.39A3.61,3.61,0,0,1,117.93,5.4Zm.38,5.62a2.29,2.29,0,0,0,1.4-.42V8.44a1.55,1.55,0,0,0-1.47-1.09,1.76,1.76,0,0,0-1.68,1.87A1.74,1.74,0,0,0,118.31,11Z"/><path d="M124,5.92a.34.34,0,0,1,.34-.34h1.48a.34.34,0,0,1,.34.34V9.47c0,.95.49,1.55,1.31,1.55a1.58,1.58,0,0,0,1.44-1.35V5.92c0-.27.11-.34.4-.34h1.37a.34.34,0,0,1,.34.34v6.52a.35.35,0,0,1-.34.34H130a.35.35,0,0,1-.34-.27l-.22-.59A3.21,3.21,0,0,1,127,13c-2.23,0-3-1.71-3-3.54Z"/><path d="M136.36,5.4a3.3,3.3,0,0,1,3.37,3.35,4,4,0,0,1,0,.49.34.34,0,0,1-.34.3h-4.61a1.73,1.73,0,0,0,1.73,1.57,2.5,2.5,0,0,0,1.4-.45c.18-.11.35-.14.47,0l.74.85a.29.29,0,0,1,0,.46,3.85,3.85,0,0,1-2.68,1,3.67,3.67,0,0,1-3.69-3.78A3.69,3.69,0,0,1,136.36,5.4Zm1.26,2.88a1.34,1.34,0,0,0-1.31-1.22,1.42,1.42,0,0,0-1.41,1.22Z"/><path d="M1.69,24.52A.34.34,0,0,1,2,24.18H6.15A3.53,3.53,0,0,1,10,27.51a3.4,3.4,0,0,1-2,2.86,3.25,3.25,0,0,1,2.34,2.94,3.63,3.63,0,0,1-3.92,3.47H2a.34.34,0,0,1-.34-.34Zm4.25,4.95a1.54,1.54,0,0,0,1.54-1.62,1.47,1.47,0,0,0-1.54-1.53H4v3.15Zm.25,5.19A1.61,1.61,0,0,0,7.81,33,1.75,1.75,0,0,0,6,31.45H4v3.21Z"/><path d="M15.28,29.4a3.78,3.78,0,1,1-3.69,3.76A3.76,3.76,0,0,1,15.28,29.4Zm0,5.62A1.8,1.8,0,0,0,17,33.16a1.77,1.77,0,0,0-1.73-1.81,1.76,1.76,0,0,0-1.73,1.81A1.78,1.78,0,0,0,15.28,35Z"/><path d="M20.66,24.52a.35.35,0,0,1,.34-.34h1.51a.35.35,0,0,1,.34.34V36.44a.35.35,0,0,1-.34.34H21a.35.35,0,0,1-.34-.34Z"/><path d="M28.13,29.4a4.2,4.2,0,0,1,1.6.33V24.52a.35.35,0,0,1,.34-.34H31.6a.36.36,0,0,1,.35.34V36.44a.36.36,0,0,1-.35.34h-.7c-.16,0-.29-.14-.34-.34l-.18-.56A3.17,3.17,0,0,1,28,37a3.61,3.61,0,0,1-3.46-3.78A3.57,3.57,0,0,1,28.13,29.4ZM28.29,35a1.56,1.56,0,0,0,1.51-1.17V31.76a2.32,2.32,0,0,0-1.4-.41,1.76,1.76,0,0,0-1.75,1.83A1.72,1.72,0,0,0,28.29,35Z"/><path class="cls-1" d="M.05,74.16,7.51,58a.42.42,0,0,1,.41-.27h.24a.41.41,0,0,1,.41.27L16,74.16a.42.42,0,0,1-.41.62H13.47a.69.69,0,0,1-.7-.48l-1.18-2.59H4.42L3.24,74.3a.73.73,0,0,1-.7.48H.46A.42.42,0,0,1,.05,74.16Zm10.37-5.11L8,63.77H7.94L5.59,69.05Z"/><path class="cls-1" d="M21.05,58.44A.46.46,0,0,1,21.5,58H27c2.86,0,5.07,1.92,5.07,4.44a4.59,4.59,0,0,1-2.64,3.82,4.31,4.31,0,0,1,3.12,3.91c0,2.69-2.31,4.63-5.24,4.63H21.5a.45.45,0,0,1-.45-.45ZM26.71,65a2.06,2.06,0,0,0,2.07-2.16,2,2,0,0,0-2.07-2H24.14V65ZM27.05,72a2.14,2.14,0,0,0,2.16-2.18,2.33,2.33,0,0,0-2.45-2.09H24.14V72Z"/><path class="cls-1" d="M46.2,57.74A8.15,8.15,0,0,1,52,60a.46.46,0,0,1,0,.68l-1.46,1.51a.39.39,0,0,1-.6,0,5.67,5.67,0,0,0-3.7-1.42,5.57,5.57,0,0,0,0,11.14A5.74,5.74,0,0,0,50,70.51a.44.44,0,0,1,.6,0l1.49,1.54a.46.46,0,0,1,0,.65A8.23,8.23,0,0,1,46.2,75a8.64,8.64,0,1,1,0-17.28Z"/><path class="cls-1" d="M58.08,58.44a.45.45,0,0,1,.43-.46H64.2a8.4,8.4,0,1,1,0,16.8H58.51a.44.44,0,0,1-.43-.45Zm5.83,13.42a5.49,5.49,0,0,0,0-11H61.18v11Z"/><path class="cls-1" d="M78.69,58.44a.47.47,0,0,1,.46-.46h9.77a.47.47,0,0,1,.46.46v2a.46.46,0,0,1-.46.45h-7.1V64.8h5.92a.47.47,0,0,1,.46.45v2a.46.46,0,0,1-.46.45H81.82v4.2h7.1a.47.47,0,0,1,.46.46v2a.46.46,0,0,1-.46.45H79.15a.46.46,0,0,1-.46-.45Z"/><path class="cls-1" d="M95.71,58.44a.46.46,0,0,1,.46-.46h9.77a.46.46,0,0,1,.45.46v2a.45.45,0,0,1-.45.45H98.83v4.52h5.93a.47.47,0,0,1,.46.45v2a.48.48,0,0,1-.46.46H98.83v6.07a.46.46,0,0,1-.45.45H96.17a.45.45,0,0,1-.46-.45Z"/><path class="cls-1" d="M119.57,57.74A9.06,9.06,0,0,1,125.42,60a.47.47,0,0,1,0,.68L124,62.21a.41.41,0,0,1-.62,0,5.44,5.44,0,0,0-3.63-1.4,5.54,5.54,0,0,0,0,11.07,7.53,7.53,0,0,0,2.85-.6v-2h-1.92a.43.43,0,0,1-.45-.43v-1.9a.44.44,0,0,1,.45-.45h4.61a.44.44,0,0,1,.43.45v6.15a.44.44,0,0,1-.19.38,12.11,12.11,0,0,1-6,1.56,8.63,8.63,0,0,1,0-17.26Z"/><path class="cls-1" d="M132.14,58.44a.48.48,0,0,1,.46-.46h2.23a.47.47,0,0,1,.46.46V64.8h7.82V58.44a.46.46,0,0,1,.46-.46h2.21a.47.47,0,0,1,.45.46V74.33a.46.46,0,0,1-.45.45h-2.21a.45.45,0,0,1-.46-.45V67.7h-7.82v6.63a.46.46,0,0,1-.46.45H132.6a.47.47,0,0,1-.46-.45Z"/><path class="cls-1" d="M153.5,58.44A.48.48,0,0,1,154,58h2.23a.48.48,0,0,1,.46.46V74.33a.47.47,0,0,1-.46.45H154a.47.47,0,0,1-.46-.45Z"/><path class="cls-1" d="M161.4,72.67l1.25-1.27a.47.47,0,0,1,.72,0,2.07,2.07,0,0,0,1.58.77c.94,0,1.92-.77,1.92-2.42V58.44a.46.46,0,0,1,.46-.46h2.25a.46.46,0,0,1,.46.46V69.77A4.88,4.88,0,0,1,165,75a4.59,4.59,0,0,1-3.65-1.75A.5.5,0,0,1,161.4,72.67Z"/><path class="cls-1" d="M176.85,58.56a.57.57,0,0,1,.58-.58h2.11a.59.59,0,0,1,.58.58V65l6-6.82a.56.56,0,0,1,.45-.24H189a.52.52,0,0,1,.39.87l-6.27,7.05,6.72,8a.52.52,0,0,1-.43.84h-2.62a.53.53,0,0,1-.43-.16l-6.26-7.73v7.32a.59.59,0,0,1-.58.57h-2.11a.57.57,0,0,1-.58-.57Z"/><path class="cls-1" d="M195.48,58.44a.46.46,0,0,1,.45-.46h2.21a.48.48,0,0,1,.46.46V71.9h6.12a.46.46,0,0,1,.45.46v2a.45.45,0,0,1-.45.45h-8.79a.45.45,0,0,1-.45-.45Z"/><path class="cls-1" d="M212.25,58.1a.41.41,0,0,1,.43-.36h.39a.46.46,0,0,1,.41.24l5.28,11.33h.07L224.11,58a.42.42,0,0,1,.41-.24h.38a.4.4,0,0,1,.43.36l2.84,16.13a.42.42,0,0,1-.44.55h-2.18a.52.52,0,0,1-.46-.36l-1.41-9.09h-.07l-4.2,9.43A.42.42,0,0,1,219,75h-.43a.43.43,0,0,1-.41-.26l-4.25-9.43h-.07l-1.4,9.09a.45.45,0,0,1-.43.36h-2.16a.43.43,0,0,1-.45-.55Z"/><path class="cls-1" d="M234.36,58.17a.44.44,0,0,1,.45-.43h.6l10,10.61h0V58.44a.46.46,0,0,1,.46-.46h2.21a.48.48,0,0,1,.45.46V74.59a.45.45,0,0,1-.45.43h-.58l-10-11h0V74.33a.45.45,0,0,1-.45.45h-2.19a.46.46,0,0,1-.45-.45Z"/><path class="cls-1" d="M9.65,85.74A8.64,8.64,0,1,1,1,94.41,8.63,8.63,0,0,1,9.65,85.74Zm0,14.16a5.52,5.52,0,1,0-5.5-5.49A5.53,5.53,0,0,0,9.65,99.9Z"/><path class="cls-1" d="M24.34,86.44a.46.46,0,0,1,.45-.46h5.64a5.36,5.36,0,1,1,0,10.71h-3v5.64a.47.47,0,0,1-.46.45H24.79a.45.45,0,0,1-.45-.45Zm5.9,7.32a2.48,2.48,0,0,0,2.47-2.5,2.4,2.4,0,0,0-2.47-2.33H27.46v4.83Z"/><path class="cls-1" d="M48.86,85.74a8.64,8.64,0,0,1,8.65,8.67,8.85,8.85,0,0,1-4.69,7.68l3,4.73a.45.45,0,0,1-.38.72H52.9a.54.54,0,0,1-.39-.24L49.94,103a8.83,8.83,0,0,1-1.08.07,8.64,8.64,0,0,1,0-17.28Zm0,14.16a5.52,5.52,0,1,0-5.49-5.49A5.52,5.52,0,0,0,48.86,99.9Z"/><path class="cls-1" d="M63.57,86.44A.47.47,0,0,1,64,86H70.9a5.2,5.2,0,0,1,5.23,5.16A5.31,5.31,0,0,1,72.58,96l3.28,6.1a.45.45,0,0,1-.4.69H72.94a.43.43,0,0,1-.39-.21l-3.19-6.36H66.7v6.12a.47.47,0,0,1-.46.45H64a.46.46,0,0,1-.46-.45Zm7.06,7.2A2.45,2.45,0,0,0,73,91.19a2.4,2.4,0,0,0-2.38-2.33H66.72v4.78Z"/><path class="cls-1" d="M81.48,100.43l.86-1.49a.56.56,0,0,1,.82-.16,8,8,0,0,0,3.62,1.48A2,2,0,0,0,89,98.42c0-1.23-1-2.07-3-2.88-2.26-.92-4.51-2.36-4.51-5.19,0-2.14,1.58-4.61,5.4-4.61a8.44,8.44,0,0,1,4.8,1.61.59.59,0,0,1,.14.79l-.91,1.37a.63.63,0,0,1-.84.29,7.91,7.91,0,0,0-3.34-1.32,1.91,1.91,0,0,0-2.11,1.68c0,1.13.89,1.89,2.83,2.69,2.33.93,5,2.32,5,5.42,0,2.47-2.14,4.75-5.52,4.75a7.69,7.69,0,0,1-5.28-1.87C81.38,100.94,81.26,100.82,81.48,100.43Z"/><path class="cls-1" d="M100.63,88.86H97a.45.45,0,0,1-.46-.45v-2A.46.46,0,0,1,97,86h10.49a.46.46,0,0,1,.45.46v2a.45.45,0,0,1-.45.45h-3.68v13.47a.46.46,0,0,1-.45.45h-2.23a.47.47,0,0,1-.46-.45Z"/><path class="cls-1" d="M113.06,86.44a.48.48,0,0,1,.46-.46h2.28a.46.46,0,0,1,.45.46v9.82a3.5,3.5,0,1,0,7,0V86.44a.46.46,0,0,1,.46-.46H126a.47.47,0,0,1,.45.46v10a6.69,6.69,0,0,1-13.37,0Z"/><path class="cls-1" d="M131.28,86.61a.43.43,0,0,1,.41-.63h2.44a.45.45,0,0,1,.41.27l4.61,10.32h.17l4.61-10.32a.43.43,0,0,1,.4-.27h2.45a.43.43,0,0,1,.41.63l-7.44,16.15a.43.43,0,0,1-.41.26h-.24a.45.45,0,0,1-.41-.26Z"/><path class="cls-1" d="M159.69,85.74a8.63,8.63,0,0,1,8.64,8.67,8.84,8.84,0,0,1-4.68,7.68l3,4.73a.45.45,0,0,1-.38.72h-2.54a.54.54,0,0,1-.39-.24L160.77,103a8.83,8.83,0,0,1-1.08.07,8.64,8.64,0,0,1,0-17.28Zm0,14.16a5.52,5.52,0,1,0-5.49-5.49A5.52,5.52,0,0,0,159.69,99.9Z"/><path class="cls-1" d="M177.93,94.17l-4.8-7.52a.43.43,0,0,1,.41-.67h2.79a.46.46,0,0,1,.38.22l3.07,5.09h0l3.12-5.09a.42.42,0,0,1,.38-.22h2.78a.43.43,0,0,1,.41.67l-4.82,7.52,5,7.94a.43.43,0,0,1-.41.67h-2.59a.51.51,0,0,1-.41-.21l-3.43-5.5h-.07l-3.39,5.5a.52.52,0,0,1-.4.21h-2.6a.44.44,0,0,1-.43-.67Z"/><path class="cls-1" d="M195.69,94.69l-5.47-8a.45.45,0,0,1,.38-.7h2.45a.5.5,0,0,1,.39.22l3.84,5.52,3.84-5.52a.46.46,0,0,1,.38-.22H204a.45.45,0,0,1,.39.7l-5.55,8v7.66a.46.46,0,0,1-.45.45h-2.21a.45.45,0,0,1-.46-.45Z"/><path class="cls-1" d="M207.79,101.9,214.94,89v-.09h-6a.48.48,0,0,1-.46-.46v-2a.48.48,0,0,1,.46-.46h10a.48.48,0,0,1,.46.46v.31l-7.06,13.08v0h6.12a.46.46,0,0,1,.46.46v2a.45.45,0,0,1-.46.45H208.24a.46.46,0,0,1-.45-.45Z"/></g></g></svg>