<svg xmlns="http://www.w3.org/2000/svg" viewBox="0 0 249.28 107.52"><defs><style>.cls-1{fill:#323232;}</style></defs><title>brandon-black</title><g id="Layer_2" data-name="Layer 2"><g id="Layer_1-2" data-name="Layer 1"><path d="M1.69.5A.34.34,0,0,1,2,.16h4.2A3.62,3.62,0,0,1,10.1,3.51,3.58,3.58,0,0,1,8,6.36c1,.39,2.42,1.27,2.42,2.93A3.68,3.68,0,0,1,6.5,12.77H2a.35.35,0,0,1-.34-.35ZM5.91,5.28A1.29,1.29,0,0,0,7.17,4,1.23,1.23,0,0,0,5.91,2.75H4.5V5.28Zm.23,4.91a1.31,1.31,0,0,0,1.3-1.31A1.44,1.44,0,0,0,6,7.62H4.5v2.57Z"/><path d="M11.86,5.91a.35.35,0,0,1,.34-.35h.85a.34.34,0,0,1,.33.22l.32.79a2.5,2.5,0,0,1,2-1.19c1,0,1.69.36,1.44.78L16.22,7.6a.32.32,0,0,1-.4.16,1.2,1.2,0,0,0-.43-.09,1,1,0,0,0-1,1v3.72c0,.22-.11.35-.4.35H12.2a.36.36,0,0,1-.34-.35Z"/><path d="M20.32,8.16a3.49,3.49,0,0,1,1.39.28c0-.7-.11-1.06-1-1.06a7.75,7.75,0,0,0-1.8.27c-.27.09-.4-.11-.44-.38l-.16-1.13a.39.39,0,0,1,.27-.49A12.92,12.92,0,0,1,21,5.38c2.23,0,3,.94,3,3.06v4a.36.36,0,0,1-.34.35h-.79a.34.34,0,0,1-.33-.24l-.25-.48a3,3,0,0,1-2.18.9,2.34,2.34,0,0,1-2.48-2.38A2.39,2.39,0,0,1,20.32,8.16Zm.47,3a.8.8,0,0,0,.79-.79.79.79,0,0,0-.79-.76.76.76,0,0,0-.77.76A.78.78,0,0,0,20.79,11.18Z"/><path d="M26,5.91a.35.35,0,0,1,.35-.35h.84a.41.41,0,0,1,.33.22l.29.72a3.38,3.38,0,0,1,2.53-1.12c2.24,0,3.42,1.71,3.42,3.77v3.27a.36.36,0,0,1-.34.35H31.47a.35.35,0,0,1-.35-.35V9.06A1.22,1.22,0,0,0,29.9,7.71,1.31,1.31,0,0,0,28.53,9v3.45c0,.17-.07.35-.32.35H26.32a.37.37,0,0,1-.35-.35Z"/><path d="M38.63,5.38a3.51,3.51,0,0,1,1.49.35V.5a.36.36,0,0,1,.35-.34h2a.36.36,0,0,1,.35.34V12.42a.37.37,0,0,1-.35.35h-.84c-.18,0-.31-.17-.38-.36l-.22-.6A3.09,3.09,0,0,1,38.61,13a3.64,3.64,0,0,1-3.56-3.78A3.46,3.46,0,0,1,38.63,5.38ZM39,10.62a1.43,1.43,0,0,0,1.44-1.47A1.41,1.41,0,0,0,39,7.71a1.43,1.43,0,0,0-1.46,1.44A1.45,1.45,0,0,0,39,10.62Z"/><path d="M48,5.38a3.79,3.79,0,1,1-3.75,3.77A3.79,3.79,0,0,1,48,5.38Zm0,5.24a1.44,1.44,0,0,0,1.42-1.47,1.43,1.43,0,1,0-2.85,0A1.45,1.45,0,0,0,48,10.62Z"/><path d="M53.24,5.91a.35.35,0,0,1,.35-.35h.84a.41.41,0,0,1,.33.22L55,6.5a3.42,3.42,0,0,1,2.54-1.12C59.82,5.38,61,7.09,61,9.15v3.27a.36.36,0,0,1-.34.35H58.74a.35.35,0,0,1-.35-.35V9.06a1.22,1.22,0,0,0-1.22-1.35A1.31,1.31,0,0,0,55.8,9v3.45c0,.17-.07.35-.32.35H53.59a.37.37,0,0,1-.35-.35Z"/><path d="M73.05,0a7,7,0,0,1,4.39,1.69.32.32,0,0,1,0,.49L76.05,3.69a.37.37,0,0,1-.48,0,3.33,3.33,0,0,0-2.36-.87,3.61,3.61,0,0,0,0,7.22,4.36,4.36,0,0,0,1.6-.28v-1H73.69a.33.33,0,0,1-.34-.32V6.63a.34.34,0,0,1,.34-.35h3.62a.35.35,0,0,1,.33.35v4.84a.47.47,0,0,1-.14.29,9.07,9.07,0,0,1-4.46,1.17A6.47,6.47,0,1,1,73.05,0Z"/><path d="M79.38,5.91a.35.35,0,0,1,.34-.35h.85a.32.32,0,0,1,.32.22l.33.79a2.48,2.48,0,0,1,2-1.19c1,0,1.69.36,1.44.78L83.74,7.6a.32.32,0,0,1-.4.16,1.2,1.2,0,0,0-.43-.09,1,1,0,0,0-1,1v3.72c0,.22-.1.35-.39.35H79.72a.36.36,0,0,1-.34-.35Z"/><path d="M88.79,5.38a3.79,3.79,0,1,1-3.74,3.77A3.79,3.79,0,0,1,88.79,5.38Zm0,5.24a1.45,1.45,0,0,0,1.43-1.47,1.43,1.43,0,1,0-2.85,0A1.44,1.44,0,0,0,88.79,10.62Z"/><path d="M94.3,7.85h-.47a.33.33,0,0,1-.32-.34V5.91a.33.33,0,0,1,.32-.35h.47v-2a.35.35,0,0,1,.34-.34h1.93a.33.33,0,0,1,.32.34v2h1.34a.33.33,0,0,1,.34.35v1.6a.34.34,0,0,1-.34.34H96.89V10.1c0,.4.27.43.49.43a4.05,4.05,0,0,0,.7-.12.31.31,0,0,1,.4.23l.4,1.5a.36.36,0,0,1-.24.41,9.21,9.21,0,0,1-2.18.4c-1.37,0-2.16-.87-2.16-2.51Z"/><path d="M103.48,5.38a3.37,3.37,0,0,1,3.42,3.39c0,.12,0,.36,0,.48a.35.35,0,0,1-.34.31H102.2a1.34,1.34,0,0,0,1.39,1.19,2.4,2.4,0,0,0,1.26-.43.31.31,0,0,1,.45,0l.9,1.08a.39.39,0,0,1,0,.52,3.66,3.66,0,0,1-2.66,1,3.79,3.79,0,0,1,0-7.57Zm.88,2.78a1,1,0,0,0-1-.85,1,1,0,0,0-1,.85Z"/><path d="M107.91,12l.63-1.24a.3.3,0,0,1,.38-.14,4,4,0,0,0,1.62.46.31.31,0,0,0,.34-.32c0-.18-.11-.43-1-.76a2.47,2.47,0,0,1-2-2.41c0-1.2.86-2.18,2.81-2.18a4.79,4.79,0,0,1,2.39.56c.16.11.29.27.18.45l-.67,1.23a.31.31,0,0,1-.37.1,4.18,4.18,0,0,0-1.53-.41c-.24,0-.4.05-.4.25s.2.36.81.58c1.46.5,2.47,1.08,2.47,2.52,0,1.26-1,2.29-3,2.29a4.3,4.3,0,0,1-2.44-.6C107.91,12.24,107.82,12.14,107.91,12Z"/><path d="M118.1,5.38a3.11,3.11,0,0,1,2.41,1.14l.22-.6c.07-.19.2-.36.37-.36H122a.36.36,0,0,1,.34.35V17.83a.36.36,0,0,1-.34.34h-2a.36.36,0,0,1-.34-.34V12.6a3.56,3.56,0,0,1-1.49.35,3.46,3.46,0,0,1-3.59-3.78A3.65,3.65,0,0,1,118.1,5.38Zm.36,5.24a1.46,1.46,0,0,0,0-2.91,1.46,1.46,0,1,0,0,2.91Z"/><path d="M124.16,5.91a.35.35,0,0,1,.35-.35h1.92a.35.35,0,0,1,.34.35V9.24a1.24,1.24,0,0,0,1.16,1.38A1.18,1.18,0,0,0,129,9.34V5.91c0-.29.19-.35.37-.35h1.84a.35.35,0,0,1,.34.35v6.51a.36.36,0,0,1-.34.35h-.85a.4.4,0,0,1-.34-.26l-.27-.66a3.06,3.06,0,0,1-2.43,1.1c-2.14,0-3.17-1.73-3.17-3.78Z"/><path d="M136.78,5.38a3.37,3.37,0,0,1,3.42,3.39c0,.12,0,.36,0,.48a.36.36,0,0,1-.35.31H135.5a1.34,1.34,0,0,0,1.39,1.19,2.4,2.4,0,0,0,1.26-.43.31.31,0,0,1,.45,0l.9,1.08a.39.39,0,0,1,0,.52,3.66,3.66,0,0,1-2.66,1,3.79,3.79,0,0,1,0-7.57Zm.88,2.78a1,1,0,0,0-.95-.85,1,1,0,0,0-1,.85Z"/><path d="M1.69,24.5A.34.34,0,0,1,2,24.16h4.2a3.62,3.62,0,0,1,3.87,3.35A3.58,3.58,0,0,1,8,30.36c1,.39,2.42,1.27,2.42,2.93A3.68,3.68,0,0,1,6.5,36.77H2a.35.35,0,0,1-.34-.35Zm4.22,4.78A1.29,1.29,0,0,0,7.17,28a1.23,1.23,0,0,0-1.26-1.23H4.5v2.53Zm.23,4.91a1.31,1.31,0,0,0,1.3-1.31A1.44,1.44,0,0,0,6,31.62H4.5v2.57Z"/><path d="M11.88,24.5a.35.35,0,0,1,.34-.34h2a.36.36,0,0,1,.35.34V36.42a.37.37,0,0,1-.35.35h-2a.36.36,0,0,1-.34-.35Z"/><path d="M18.74,32.16a3.49,3.49,0,0,1,1.39.28c0-.7-.11-1.06-1-1.06a7.92,7.92,0,0,0-1.8.27c-.27.09-.39-.11-.43-.38l-.16-1.13a.39.39,0,0,1,.27-.49,12.89,12.89,0,0,1,2.39-.27c2.24,0,3,.94,3,3.06v4a.37.37,0,0,1-.35.35h-.79a.33.33,0,0,1-.32-.24l-.25-.48a3.06,3.06,0,0,1-2.18.9,2.34,2.34,0,0,1-2.49-2.38A2.4,2.4,0,0,1,18.74,32.16Zm.47,3a.78.78,0,1,0,0-1.55.77.77,0,0,0-.78.76A.79.79,0,0,0,19.21,35.18Z"/><path d="M27.72,29.38a3.34,3.34,0,0,1,2.7,1.3.35.35,0,0,1-.09.5l-1.08,1a.32.32,0,0,1-.39,0,1.44,1.44,0,0,0-2.49,1,1.42,1.42,0,0,0,1.41,1.45A1.54,1.54,0,0,0,29,34.06a.31.31,0,0,1,.4-.07l1.08.94c.16.14.25.32.12.5A3.22,3.22,0,0,1,27.7,37a3.83,3.83,0,0,1-3.87-3.78A3.88,3.88,0,0,1,27.72,29.38Z"/><path d="M32,24.5a.35.35,0,0,1,.34-.34h2a.35.35,0,0,1,.34.34v7.8l2.18-2.52a.61.61,0,0,1,.45-.22h2a.34.34,0,0,1,.27.56l-2.38,2.76,2.88,3.35a.32.32,0,0,1-.27.54H37.44a.49.49,0,0,1-.27-.15l-2.45-3.13v2.93a.36.36,0,0,1-.34.35h-2a.36.36,0,0,1-.34-.35Z"/><path class="cls-1" d="M.05,74.14,7.56,58A.48.48,0,0,1,8,57.72h.24a.48.48,0,0,1,.41.27l7.51,16.15a.43.43,0,0,1-.41.63H13.06c-.43,0-.63-.15-.84-.6l-.87-1.9H4.82L4,74.19a.89.89,0,0,1-.86.58H.46A.43.43,0,0,1,.05,74.14ZM9.91,69,8.09,65h0L6.26,69Z"/><path class="cls-1" d="M21,58.42a.46.46,0,0,1,.46-.46h5.59c2.83,0,5.16,1.95,5.16,4.47,0,1.85-1.66,3.19-2.79,3.79,1.28.53,3.22,1.7,3.22,3.91,0,2.69-2.38,4.64-5.23,4.64H21.46a.46.46,0,0,1-.46-.46Zm5.62,6.36a1.71,1.71,0,0,0,1.68-1.73,1.63,1.63,0,0,0-1.68-1.63H24.74v3.36Zm.31,6.55a1.74,1.74,0,0,0,1.73-1.75,1.92,1.92,0,0,0-2-1.68h-2v3.43Z"/><path class="cls-1" d="M46,57.72A8.06,8.06,0,0,1,51.84,60a.44.44,0,0,1,0,.67L50,62.57a.42.42,0,0,1-.6,0,4.91,4.91,0,0,0-3.24-1.22,4.91,4.91,0,0,0,0,9.82A5,5,0,0,0,49.39,70,.49.49,0,0,1,50,70l1.87,2a.48.48,0,0,1,0,.65A8.24,8.24,0,0,1,46,75a8.65,8.65,0,1,1,0-17.29Z"/><path class="cls-1" d="M57.65,58.42a.45.45,0,0,1,.43-.46h5.86a8.41,8.41,0,1,1,0,16.81H58.08a.45.45,0,0,1-.43-.46ZM63.7,71.21a4.86,4.86,0,0,0,0-9.72H61.39v9.72Z"/><path class="cls-1" d="M78.19,58.42a.46.46,0,0,1,.46-.46h9.93a.46.46,0,0,1,.46.46V61a.45.45,0,0,1-.46.45H81.94v3h5.47a.46.46,0,0,1,.45.45v2.62a.46.46,0,0,1-.45.46H81.94v3.24h6.64a.45.45,0,0,1,.46.45v2.62a.46.46,0,0,1-.46.46H78.65a.46.46,0,0,1-.46-.46Z"/><path class="cls-1" d="M95.16,58.42a.46.46,0,0,1,.45-.46h9.94a.46.46,0,0,1,.46.46V61a.45.45,0,0,1-.46.45H98.9V65h5.48a.47.47,0,0,1,.45.46V68a.47.47,0,0,1-.45.46H98.9v5.83a.47.47,0,0,1-.45.46H95.61a.46.46,0,0,1-.45-.46Z"/><path class="cls-1" d="M119,57.75A9.29,9.29,0,0,1,124.85,60a.43.43,0,0,1,.05.65l-1.9,2a.5.5,0,0,1-.65,0,4.41,4.41,0,0,0-3.14-1.15,4.82,4.82,0,0,0,0,9.63,5.65,5.65,0,0,0,2.14-.39V69.39h-1.52a.43.43,0,0,1-.45-.43V66.58a.44.44,0,0,1,.45-.45h4.83a.44.44,0,0,1,.43.45l0,6.46a.57.57,0,0,1-.2.38A12.11,12.11,0,0,1,119,75a8.62,8.62,0,1,1,0-17.23Z"/><path class="cls-1" d="M131.33,58.42a.47.47,0,0,1,.45-.46h2.86a.46.46,0,0,1,.45.46v6H142v-6a.46.46,0,0,1,.46-.46h2.85a.48.48,0,0,1,.46.46V74.31a.48.48,0,0,1-.46.46h-2.85a.46.46,0,0,1-.46-.46V68h-6.87v6.31a.46.46,0,0,1-.45.46h-2.86a.47.47,0,0,1-.45-.46Z"/><path class="cls-1" d="M152.76,58.42a.47.47,0,0,1,.45-.46h2.88a.48.48,0,0,1,.46.46V74.31a.48.48,0,0,1-.46.46h-2.88a.47.47,0,0,1-.45-.46Z"/><path class="cls-1" d="M161.23,72.65,162.86,71a.47.47,0,0,1,.65,0,1.5,1.5,0,0,0,1.22.51c.67,0,1.42-.63,1.42-1.82V58.42a.46.46,0,0,1,.46-.46h2.92a.46.46,0,0,1,.46.46V69.75A5,5,0,0,1,164.83,75a4.59,4.59,0,0,1-3.65-1.76A.5.5,0,0,1,161.23,72.65Z"/><path class="cls-1" d="M176.66,58.54a.57.57,0,0,1,.58-.58H180a.59.59,0,0,1,.58.58v6.31L186,58.2a.72.72,0,0,1,.46-.24h3a.55.55,0,0,1,.43.89l-5.61,7,6.12,8a.57.57,0,0,1-.46.89H186.6a.59.59,0,0,1-.43-.17L180.62,67v7.15a.59.59,0,0,1-.58.58h-2.8a.57.57,0,0,1-.58-.58Z"/><path class="cls-1" d="M195.72,58.42a.46.46,0,0,1,.45-.46H199a.47.47,0,0,1,.45.46V71.24h5.72a.45.45,0,0,1,.45.45v2.62a.46.46,0,0,1-.45.46h-9a.46.46,0,0,1-.45-.46Z"/><path class="cls-1" d="M212.54,58.11a.46.46,0,0,1,.43-.39h.39a.52.52,0,0,1,.4.24l5.57,10.37h0L225,58a.54.54,0,0,1,.41-.24h.38a.46.46,0,0,1,.43.39l2.72,16.13a.45.45,0,0,1-.46.53H225.6a.49.49,0,0,1-.46-.39L224.06,67H224l-4,7.78a.55.55,0,0,1-.41.27h-.43a.52.52,0,0,1-.41-.27l-4-7.78h-.05l-1.06,7.42a.46.46,0,0,1-.45.39h-2.84a.44.44,0,0,1-.45-.53Z"/><path class="cls-1" d="M234.84,58.16a.45.45,0,0,1,.45-.44h.6l9.58,9.22h0V58.42A.46.46,0,0,1,246,58h2.88a.47.47,0,0,1,.45.46V74.57a.45.45,0,0,1-.45.44h-.39a.84.84,0,0,1-.31-.12l-9.48-9.53h0v9a.46.46,0,0,1-.46.46h-2.85a.48.48,0,0,1-.46-.46Z"/><path class="cls-1" d="M9.6,85.72A8.65,8.65,0,1,1,1,94.39,8.63,8.63,0,0,1,9.6,85.72Zm0,13.45a4.81,4.81,0,1,0-4.78-4.78A4.82,4.82,0,0,0,9.6,99.17Z"/><path class="cls-1" d="M24.05,86.42A.46.46,0,0,1,24.5,86h5.79a5.36,5.36,0,1,1,0,10.71H27.79v5.64a.47.47,0,0,1-.45.46H24.5a.46.46,0,0,1-.45-.46Zm6,6.75a1.89,1.89,0,0,0,1.9-1.9,1.84,1.84,0,0,0-1.9-1.78H27.79v3.68Z"/><path class="cls-1" d="M48.48,85.72a8.63,8.63,0,0,1,8.64,8.67A9,9,0,0,1,52.68,102l3.1,4.85a.46.46,0,0,1-.39.72H52.15a.44.44,0,0,1-.38-.24L49.22,103a7.08,7.08,0,0,1-.74,0,8.65,8.65,0,0,1,0-17.29Zm0,13.45a4.81,4.81,0,1,0-4.78-4.78A4.82,4.82,0,0,0,48.48,99.17Z"/><path class="cls-1" d="M63,86.42a.46.46,0,0,1,.45-.46h7.18a5.13,5.13,0,0,1,1.68,10l3.29,6.1a.46.46,0,0,1-.41.7H72a.42.42,0,0,1-.38-.22l-3.2-6.36H66.77v6.12a.48.48,0,0,1-.46.46H63.45a.46.46,0,0,1-.45-.46Zm7.32,6.72a1.92,1.92,0,0,0,1.82-1.92,1.83,1.83,0,0,0-1.82-1.82H66.77v3.74Z"/><path class="cls-1" d="M81,100.49l1.13-2a.62.62,0,0,1,.82-.14,7.1,7.1,0,0,0,3.41,1.32A1.5,1.5,0,0,0,88,98.23c0-1-.84-1.78-2.47-2.43-2.07-.81-4.66-2.42-4.66-5.3,0-2.38,1.85-4.78,5.55-4.78a9,9,0,0,1,5.13,1.8.62.62,0,0,1,.15.77L90.5,90.14c-.16.26-.6.48-.81.31S87.72,89,86.26,89a1.4,1.4,0,0,0-1.52,1.23c0,.89.72,1.56,2.62,2.32s4.85,2.21,4.85,5.48c0,2.47-2.14,5-5.67,5a7.65,7.65,0,0,1-5.4-1.85C80.9,100.92,80.83,100.82,81,100.49Z"/><path class="cls-1" d="M100.2,89.49H96.77a.45.45,0,0,1-.46-.45V86.42a.46.46,0,0,1,.46-.46h10.65a.46.46,0,0,1,.46.46V89a.45.45,0,0,1-.46.45H104v12.82a.47.47,0,0,1-.46.46h-2.88a.47.47,0,0,1-.45-.46Z"/><path class="cls-1" d="M112.94,86.42a.48.48,0,0,1,.46-.46h2.95a.47.47,0,0,1,.46.46v9.72a3,3,0,1,0,6,0V86.42a.46.46,0,0,1,.46-.46h3a.47.47,0,0,1,.45.46v9.91a6.84,6.84,0,0,1-13.68,0Z"/><path class="cls-1" d="M131.23,86.59a.43.43,0,0,1,.41-.63h3.19a.48.48,0,0,1,.41.27l4,8.76h.14l4-8.76a.48.48,0,0,1,.41-.27h3.19a.43.43,0,0,1,.41.63l-7.54,16.15a.44.44,0,0,1-.4.27h-.24a.44.44,0,0,1-.41-.27Z"/><path class="cls-1" d="M159.57,85.72a8.64,8.64,0,0,1,8.65,8.67,9,9,0,0,1-4.45,7.56l3.1,4.85a.46.46,0,0,1-.38.72h-3.24a.44.44,0,0,1-.39-.24l-2.54-4.3a7.35,7.35,0,0,1-.75,0,8.65,8.65,0,0,1,0-17.29Zm0,13.45a4.81,4.81,0,1,0-4.77-4.78A4.82,4.82,0,0,0,159.57,99.17Z"/><path class="cls-1" d="M177.65,94.15l-4.85-7.51a.44.44,0,0,1,.41-.68h3.5a.49.49,0,0,1,.38.22l2.76,4.46h0l2.81-4.46a.45.45,0,0,1,.38-.22h3.5c.41,0,.63.36.41.68l-4.87,7.51,5,7.94a.42.42,0,0,1-.38.68h-3.34a.55.55,0,0,1-.41-.22l-3.14-4.85h0l-3.07,4.85a.52.52,0,0,1-.41.22H173a.43.43,0,0,1-.4-.68Z"/><path class="cls-1" d="M195.81,94.68l-5.3-8a.45.45,0,0,1,.38-.7H194a.5.5,0,0,1,.39.22l3.33,4.92,3.34-4.92a.43.43,0,0,1,.38-.22h3.12a.45.45,0,0,1,.39.7l-5.38,8v7.66a.47.47,0,0,1-.45.46h-2.86a.47.47,0,0,1-.46-.46Z"/><path class="cls-1" d="M208.27,101.88l6.38-12.34v-.05h-5.23A.47.47,0,0,1,209,89V86.42a.48.48,0,0,1,.46-.46h10.2a.48.48,0,0,1,.46.46v.31l-6.17,12.46v0h5.23a.45.45,0,0,1,.46.45v2.62a.46.46,0,0,1-.46.46H208.72a.47.47,0,0,1-.45-.46Z"/></g></g></svg>