<svg xmlns="http://www.w3.org/2000/svg" viewBox="0 0 156.62 43.62"><g data-name="Layer 2"><path d="M8.67 15.62a8.68 8.68 0 0 1-3.18-.56A7.8 7.8 0 0 1 3 13.48a7.32 7.32 0 0 1-1.68-2.4A7.67 7.67 0 0 1 .67 8a7.44 7.44 0 0 1 .6-3 7.58 7.58 0 0 1 1.65-2.45A7.72 7.72 0 0 1 5.43.92 8.42 8.42 0 0 1 8.59.34 9 9 0 0 1 12 .9a9.33 9.33 0 0 1 2.59 1.58l-2.43 2.87a6.56 6.56 0 0 0-1.63-1A4.77 4.77 0 0 0 8.61 4a3.47 3.47 0 0 0-1.48.31 3.66 3.66 0 0 0-1.19.87 4.06 4.06 0 0 0-.79 1.28A4.1 4.1 0 0 0 4.85 8a4.39 4.39 0 0 0 .3 1.64A3.57 3.57 0 0 0 6 11a3.87 3.87 0 0 0 1.26.84 4 4 0 0 0 1.61.31 4.23 4.23 0 0 0 2.35-.61V9.72H8.29v-3h6.77v6.62A10.84 10.84 0 0 1 12.29 15a9.42 9.42 0 0 1-3.62.62zm14.45-.02a6.45 6.45 0 0 1-2.51-.47 6.34 6.34 0 0 1-2-1.27A5.43 5.43 0 0 1 17.33 12a5.68 5.68 0 0 1-.46-2.29 5.6 5.6 0 0 1 .47-2.3 5.78 5.78 0 0 1 1.31-1.89 6.24 6.24 0 0 1 2-1.28 7 7 0 0 1 5 0 6.11 6.11 0 0 1 2 1.27A5.82 5.82 0 0 1 29 7.33a5.68 5.68 0 0 1 .46 2.29A5.6 5.6 0 0 1 29 12a5.78 5.78 0 0 1-1.31 1.89 6.18 6.18 0 0 1-2 1.28 6.5 6.5 0 0 1-2.57.43zm.05-3.38a2.23 2.23 0 0 0 1-.2 2.15 2.15 0 0 0 .75-.54 2.5 2.5 0 0 0 .47-.81 2.87 2.87 0 0 0 .17-1 2.72 2.72 0 0 0-.18-1 2.81 2.81 0 0 0-.5-.81 2.64 2.64 0 0 0-.77-.55 2.42 2.42 0 0 0-1.95 0 2.07 2.07 0 0 0-.75.54 2.5 2.5 0 0 0-.47.81 2.87 2.87 0 0 0-.17 1 2.72 2.72 0 0 0 .18 1 2.5 2.5 0 0 0 .5.81 2.64 2.64 0 0 0 .77.55 2.19 2.19 0 0 0 .95.2zm12.31 3.34a4.21 4.21 0 0 1-2.81-.86 3.64 3.64 0 0 1-1-2.9V7.18h-1.35V4h1.34V1.09h4V4h2.64v3.18h-2.65V11a1.2 1.2 0 0 0 .27.88 1.19 1.19 0 0 0 .82.26 2.88 2.88 0 0 0 .78-.11 4.2 4.2 0 0 0 .74-.29v3.13a5.51 5.51 0 0 1-1.24.47 6.2 6.2 0 0 1-1.54.22zM40.33 0h4v5.52a5.94 5.94 0 0 1 1.37-1.26 3.59 3.59 0 0 1 2-.54 3.68 3.68 0 0 1 2.85 1.11 4.36 4.36 0 0 1 1 3.07v7.43h-4V9.18a2.07 2.07 0 0 0-.44-1.43A1.51 1.51 0 0 0 46 7.27a1.64 1.64 0 0 0-1.21.48 2 2 0 0 0-.47 1.43v6.15h-4zM57 15.58a4.88 4.88 0 0 1-1.51-.23 3.66 3.66 0 0 1-1.21-.67 3.12 3.12 0 0 1-.81-1.1 3.75 3.75 0 0 1-.29-1.5V12a3.5 3.5 0 0 1 .33-1.55 2.87 2.87 0 0 1 .9-1.11 4.06 4.06 0 0 1 1.4-.68 6.81 6.81 0 0 1 1.82-.23 8.37 8.37 0 0 1 1.53.14 8.7 8.7 0 0 1 1.2.3v-.16a1.71 1.71 0 0 0-.55-1.36 2.58 2.58 0 0 0-1.71-.48 6.89 6.89 0 0 0-1.61.13 9.77 9.77 0 0 0-1.49.5l-.82-2.82a12.78 12.78 0 0 1 2-.64 12 12 0 0 1 2.56-.24 8.13 8.13 0 0 1 2.59.36 4.36 4.36 0 0 1 1.73 1A3.52 3.52 0 0 1 64 6.71a6.87 6.87 0 0 1 .28 2.09v6.53h-3.91v-1.18A4.22 4.22 0 0 1 57 15.58zm1.43-2.5a2 2 0 0 0 1.43-.5 1.79 1.79 0 0 0 .54-1.37v-.52a3.44 3.44 0 0 0-.7-.21 4 4 0 0 0-.85-.08 2.05 2.05 0 0 0-1.35.38 1.25 1.25 0 0 0-.48 1 1.14 1.14 0 0 0 .4.92 1.58 1.58 0 0 0 1.04.38zM66.57 4h4v1.52a5.89 5.89 0 0 1 1.36-1.26 3.6 3.6 0 0 1 2-.54 3.89 3.89 0 0 1 2 .48 3.37 3.37 0 0 1 1.31 1.36 5.9 5.9 0 0 1 1.63-1.35A4.49 4.49 0 0 1 81 3.72a3.73 3.73 0 0 1 2.87 1.08 4.28 4.28 0 0 1 1 3.08v7.45h-4V9.16a2.08 2.08 0 0 0-.42-1.42 1.42 1.42 0 0 0-1.13-.47 1.56 1.56 0 0 0-1.18.47 1.94 1.94 0 0 0-.46 1.42v6.17h-4V9.16a2.08 2.08 0 0 0-.42-1.42 1.42 1.42 0 0 0-1.13-.47 1.52 1.52 0 0 0-1.13.47 2 2 0 0 0-.45 1.42v6.17h-4zM93 .63h7.54a7.24 7.24 0 0 1 2.37.34 4.2 4.2 0 0 1 1.64 1 3.45 3.45 0 0 1 .69 1 3.35 3.35 0 0 1 .25 1.35 3.18 3.18 0 0 1-.64 2.07 4.17 4.17 0 0 1-1.62 1.2 5.2 5.2 0 0 1 2.13 1.27 3.27 3.27 0 0 1 .78 2.32 3.48 3.48 0 0 1-1.46 3 6.85 6.85 0 0 1-4.1 1.07H93zm6.54 5.86a2.68 2.68 0 0 0 1.46-.32 1.06 1.06 0 0 0 .49-1 1.08 1.08 0 0 0-.46-.94 2.39 2.39 0 0 0-1.38-.32H97v2.58zm.58 5.56a2.57 2.57 0 0 0 1.45-.34 1.16 1.16 0 0 0 .5-1 1.15 1.15 0 0 0-.48-1 2.53 2.53 0 0 0-1.51-.35H97v2.7zM108.21 0h4v15.33h-4zm9.58 15.58a4.88 4.88 0 0 1-1.51-.23 3.66 3.66 0 0 1-1.21-.67 3 3 0 0 1-.8-1.1 3.59 3.59 0 0 1-.3-1.5V12a3.5 3.5 0 0 1 .33-1.55 3 3 0 0 1 .9-1.11 4.06 4.06 0 0 1 1.4-.68 6.81 6.81 0 0 1 1.82-.23 8.37 8.37 0 0 1 1.58.17 8.7 8.7 0 0 1 1.2.3v-.19a1.71 1.71 0 0 0-.55-1.36 2.57 2.57 0 0 0-1.71-.48 6.89 6.89 0 0 0-1.64.17 9.77 9.77 0 0 0-1.49.46l-.82-2.82A12.59 12.59 0 0 1 117 4a11.88 11.88 0 0 1 2.55-.24 8.13 8.13 0 0 1 2.59.36 4.29 4.29 0 0 1 1.73 1 3.52 3.52 0 0 1 .94 1.52 6.87 6.87 0 0 1 .28 2.09v6.53h-4v-1.11a4.34 4.34 0 0 1-1.39 1 4.46 4.46 0 0 1-1.91.43zm1.43-2.5a2 2 0 0 0 1.43-.5 1.79 1.79 0 0 0 .55-1.37v-.52a3.54 3.54 0 0 0-.71-.21 3.89 3.89 0 0 0-.85-.08 2.05 2.05 0 0 0-1.35.38 1.25 1.25 0 0 0-.48 1 1.14 1.14 0 0 0 .4.92 1.6 1.6 0 0 0 1.01.38zm13.44 2.52a5.87 5.87 0 0 1-4.25-1.74 5.75 5.75 0 0 1-1.24-1.86 5.88 5.88 0 0 1-.46-2.28 5.88 5.88 0 0 1 .46-2.28 5.77 5.77 0 0 1 1.25-1.89 5.87 5.87 0 0 1 1.92-1.28 6.38 6.38 0 0 1 2.46-.47 5.4 5.4 0 0 1 4.86 2.55l-2.71 2a3.47 3.47 0 0 0-.91-.89 2.15 2.15 0 0 0-1.21-.31 2.08 2.08 0 0 0-.9.2 2.16 2.16 0 0 0-.7.54 2.49 2.49 0 0 0-.46.79 2.78 2.78 0 0 0-.17 1 3 3 0 0 0 .17 1 2.48 2.48 0 0 0 .46.81 2.1 2.1 0 0 0 .71.54 2 2 0 0 0 .93.2 2.22 2.22 0 0 0 1.21-.31 5 5 0 0 0 1-.86l2.64 1.94a6.1 6.1 0 0 1-2 1.89 5.82 5.82 0 0 1-3.06.71zM139.18 0h4v7.77L146.26 4h4.52l-3.95 4.56 4 6.8h-4.39l-2.29-3.86-1 1.19v2.67h-4zM6.26 28.53h3.92l6.26 14.8h-4.36L11 40.71H5.33l-1 2.62H0zm3.57 9l-1.64-4.17-1.66 4.17zm11.5 6.05a4.94 4.94 0 0 1-1.52-.23 3.52 3.52 0 0 1-1.2-.67 3 3 0 0 1-.81-1.1 3.62 3.62 0 0 1-.3-1.5 3.5 3.5 0 0 1 .33-1.55 3.07 3.07 0 0 1 .9-1.11 4.15 4.15 0 0 1 1.4-.68 6.83 6.83 0 0 1 1.87-.28 8.34 8.34 0 0 1 1.52.14 8.7 8.7 0 0 1 1.2.3v-.19a1.71 1.71 0 0 0-.55-1.36 2.57 2.57 0 0 0-1.71-.48 6.89 6.89 0 0 0-1.64.17 9.77 9.77 0 0 0-1.49.46l-.82-2.82a12.59 12.59 0 0 1 2.01-.68 11.88 11.88 0 0 1 2.55-.24 8.13 8.13 0 0 1 2.59.36 4.29 4.29 0 0 1 1.73 1 3.52 3.52 0 0 1 .94 1.52 6.87 6.87 0 0 1 .28 2.09v6.53h-3.95v-1.11a4.34 4.34 0 0 1-1.39 1 4.45 4.45 0 0 1-1.94.43zm1.42-2.5a2 2 0 0 0 1.43-.5 1.79 1.79 0 0 0 .55-1.37v-.52a4.35 4.35 0 0 0-.71-.21 3.89 3.89 0 0 0-.85-.08 2.05 2.05 0 0 0-1.35.38 1.24 1.24 0 0 0-.47 1 1.11 1.11 0 0 0 .4.92 1.56 1.56 0 0 0 1 .38zm8.97-12.45h7.54a7.24 7.24 0 0 1 2.37.34 4.13 4.13 0 0 1 1.64 1A3.11 3.11 0 0 1 44 31a3.35 3.35 0 0 1 .26 1.35 3.24 3.24 0 0 1-.64 2.07A4.2 4.2 0 0 1 42 35.64a5.1 5.1 0 0 1 2.13 1.28 3.24 3.24 0 0 1 .79 2.32 3.51 3.51 0 0 1-1.46 3 6.88 6.88 0 0 1-4.11 1.07h-7.63zm6.54 5.86a2.63 2.63 0 0 0 1.43-.32 1.06 1.06 0 0 0 .49-1 1.08 1.08 0 0 0-.46-.94 2.34 2.34 0 0 0-1.38-.32h-2.63v2.58zm.59 5.56a2.51 2.51 0 0 0 1.44-.34 1.13 1.13 0 0 0 .5-1 1.15 1.15 0 0 0-.48-1 2.51 2.51 0 0 0-1.5-.36h-3.1v2.71zm15.99 3.53a4 4 0 0 1-2.1-.49 5.37 5.37 0 0 1-1.37-1.15v1.39h-4V28h4v5.48a8 8 0 0 1 .63-.67 4.19 4.19 0 0 1 .75-.56 4 4 0 0 1 .92-.39 4.73 4.73 0 0 1 3.07.27 4.8 4.8 0 0 1 1.6 1.16 5.67 5.67 0 0 1 1.11 1.85 7.05 7.05 0 0 1 .41 2.46 7.22 7.22 0 0 1-.41 2.49A6.1 6.1 0 0 1 58.36 42a4.69 4.69 0 0 1-1.6 1.17 4.54 4.54 0 0 1-1.92.41zm-1.24-3.34a2.21 2.21 0 0 0 1.66-.71 2.62 2.62 0 0 0 .67-1.87 2.58 2.58 0 0 0-.67-1.85 2.17 2.17 0 0 0-1.66-.71 2.11 2.11 0 0 0-.9.19 2.15 2.15 0 0 0-.74.53 2.54 2.54 0 0 0-.49.81 2.82 2.82 0 0 0-.18 1 2.91 2.91 0 0 0 .18 1 2.59 2.59 0 0 0 .49.82 2.15 2.15 0 0 0 .74.53 2.11 2.11 0 0 0 .9.26zm15.91 3.38a7.68 7.68 0 0 1-3-.56 7.29 7.29 0 0 1-2.4-1.59A7.61 7.61 0 0 1 61.93 36a7.61 7.61 0 0 1 .59-3 7.46 7.46 0 0 1 4.07-4.06 8.06 8.06 0 0 1 3.09-.58 7.55 7.55 0 0 1 3.76.85 7.44 7.44 0 0 1 2.48 2.21l-3.07 2.38a5.16 5.16 0 0 0-1.39-1.27 3.49 3.49 0 0 0-1.82-.46 3.31 3.31 0 0 0-2.52 1.14 3.91 3.91 0 0 0-.73 1.24 4.44 4.44 0 0 0-.26 1.51 4.57 4.57 0 0 0 .26 1.54 3.85 3.85 0 0 0 .73 1.25 3.33 3.33 0 0 0 1.1.83 3.18 3.18 0 0 0 1.42.31 3.43 3.43 0 0 0 1.91-.5A6.5 6.5 0 0 0 73 38.12l3 2.19a12 12 0 0 1-1.14 1.32 6.72 6.72 0 0 1-1.41 1 7.51 7.51 0 0 1-1.76.69 8.76 8.76 0 0 1-2.18.3zm13.94-.02a5.92 5.92 0 0 1-4.26-1.74 5.93 5.93 0 0 1-1.69-4.16 5.87 5.87 0 0 1 .5-2.32 5.93 5.93 0 0 1 1.25-1.89 6 6 0 0 1 1.93-1.28 6.34 6.34 0 0 1 2.46-.47 5.61 5.61 0 0 1 2.94.7 5.54 5.54 0 0 1 1.91 1.85l-2.71 2a3.6 3.6 0 0 0-.9-.89 2.19 2.19 0 0 0-1.22-.31 1.91 1.91 0 0 0-.89.2 2.06 2.06 0 0 0-.7.54 2.49 2.49 0 0 0-.46.79 2.57 2.57 0 0 0-.17 1 2.78 2.78 0 0 0 .17 1 2.48 2.48 0 0 0 .46.81 2 2 0 0 0 .71.54 2 2 0 0 0 .93.2 2.19 2.19 0 0 0 1.2-.31 4.76 4.76 0 0 0 1-.86l2.6 2a6.1 6.1 0 0 1-2 1.89 5.82 5.82 0 0 1-3.06.71zm7.37-14.97h5.67a10.62 10.62 0 0 1 3.52.54 7.27 7.27 0 0 1 2.61 1.5 6.43 6.43 0 0 1 1.61 2.3 7.54 7.54 0 0 1 .56 2.93 7.53 7.53 0 0 1-.57 3 6.62 6.62 0 0 1-1.64 2.34 7.45 7.45 0 0 1-2.58 1.53 10.54 10.54 0 0 1-3.55.56h-5.63zm5.74 11.09a4.31 4.31 0 0 0 2.94-1 3.44 3.44 0 0 0 1.11-2.72 3.45 3.45 0 0 0-1.11-2.74 4.31 4.31 0 0 0-2.94-1H94.9v7.48zm15.32 3.86a4.54 4.54 0 0 1-1.92-.41 4.66 4.66 0 0 1-1.59-1.17 5.82 5.82 0 0 1-1.1-1.85 7.05 7.05 0 0 1-.41-2.46 7.47 7.47 0 0 1 .4-2.49 5.73 5.73 0 0 1 1.09-1.87 4.89 4.89 0 0 1 1.6-1.17 4.46 4.46 0 0 1 1.91-.41 4.65 4.65 0 0 1 1.17.13 4.28 4.28 0 0 1 .93.36 3.76 3.76 0 0 1 .77.53 6 6 0 0 1 .62.62V28h4v15.33h-4v-1.51a6.36 6.36 0 0 1-1.35 1.24 3.71 3.71 0 0 1-2.12.52zm1.22-3.34a2.11 2.11 0 0 0 .9-.19 2.15 2.15 0 0 0 .74-.53 2.59 2.59 0 0 0 .49-.82 2.91 2.91 0 0 0 .18-1 2.82 2.82 0 0 0-.18-1 2.54 2.54 0 0 0-.49-.81 2.15 2.15 0 0 0-.74-.53 2.23 2.23 0 0 0-1.8 0 2.26 2.26 0 0 0-.74.52 2.36 2.36 0 0 0-.5.81 2.68 2.68 0 0 0-.19 1 2.71 2.71 0 0 0 .19 1 2.62 2.62 0 0 0 .5.82 2.15 2.15 0 0 0 .74.53 2.11 2.11 0 0 0 .9.2zm11.28-7.91l-2.48.56-.77-3.15 4.29-1.21h3v14.8h-4zm6.81 7.93l5.5-4.2a7.65 7.65 0 0 0 1.46-1.38 2.07 2.07 0 0 0 .43-1.26 1.37 1.37 0 0 0-.45-1.09 1.71 1.71 0 0 0-1.19-.4 2.42 2.42 0 0 0-1.39.45 8.4 8.4 0 0 0-1.55 1.44l-2.76-2.29a13.5 13.5 0 0 1 1.2-1.35 6.4 6.4 0 0 1 1.31-1 6 6 0 0 1 1.56-.61 8 8 0 0 1 1.92-.21 6.62 6.62 0 0 1 2.19.34 5.41 5.41 0 0 1 1.72 1 4.47 4.47 0 0 1 1.11 1.47 4.56 4.56 0 0 1 .4 1.91 5.43 5.43 0 0 1-.22 1.58 4.41 4.41 0 0 1-.67 1.29 6.69 6.69 0 0 1-1.07 1.14q-.63.55-1.44 1.14l-2.5 1.77h6.07v3.32h-11.63zm19.74 3.36a8.71 8.71 0 0 1-3.67-.7 7.84 7.84 0 0 1-2.59-1.9l2.56-2.56a6.86 6.86 0 0 0 1.65 1.24 4 4 0 0 0 1.86.44 2.12 2.12 0 0 0 1.38-.41 1.31 1.31 0 0 0 .51-1.08 1.27 1.27 0 0 0-.62-1.12 3.38 3.38 0 0 0-1.78-.4h-1.72l-.59-2.13 3.38-3h-5.62v-3.3h10.62v2.92l-3.5 3a6.77 6.77 0 0 1 1.48.49 4.47 4.47 0 0 1 1.22.81 3.56 3.56 0 0 1 .82 1.2 4.1 4.1 0 0 1 .3 1.64 4.6 4.6 0 0 1-.43 2 4.44 4.44 0 0 1-1.19 1.53 5.32 5.32 0 0 1-1.8 1 7.27 7.27 0 0 1-2.27.33z" fill="#323232" data-name="Layer 1"/></g></svg>