<svg xmlns="http://www.w3.org/2000/svg" viewBox="0 0 156.62 43.62"><defs><style>.cls-1{fill:#323232;}</style></defs><title>gotham-black</title><g id="Layer_2" data-name="Layer 2"><g id="Layer_1-2" data-name="Layer 1"><path class="cls-1" d="M8.67,15.62a8.68,8.68,0,0,1-3.18-.56A7.8,7.8,0,0,1,3,13.48a7.32,7.32,0,0,1-1.68-2.4A7.67,7.67,0,0,1,.67,8V8a7.44,7.44,0,0,1,.6-3A7.58,7.58,0,0,1,2.92,2.55,7.72,7.72,0,0,1,5.43.92,8.42,8.42,0,0,1,8.59.34,9,9,0,0,1,12,.9a9.33,9.33,0,0,1,2.59,1.58L12.16,5.35a6.56,6.56,0,0,0-1.63-1A4.77,4.77,0,0,0,8.61,4a3.47,3.47,0,0,0-1.48.31,3.66,3.66,0,0,0-1.19.87,4.06,4.06,0,0,0-.79,1.28A4.1,4.1,0,0,0,4.85,8V8a4.39,4.39,0,0,0,.3,1.64A3.57,3.57,0,0,0,6,11a3.87,3.87,0,0,0,1.26.84,4,4,0,0,0,1.61.31,4.23,4.23,0,0,0,2.35-.61V9.72H8.29v-3h6.77v6.62A10.84,10.84,0,0,1,12.29,15,9.42,9.42,0,0,1,8.67,15.62Z"/><path class="cls-1" d="M23.12,15.6a6.45,6.45,0,0,1-2.51-.47,6.34,6.34,0,0,1-2-1.27A5.43,5.43,0,0,1,17.33,12a5.68,5.68,0,0,1-.46-2.29v0a5.6,5.6,0,0,1,.47-2.3,5.78,5.78,0,0,1,1.31-1.89,6.24,6.24,0,0,1,2-1.28,7,7,0,0,1,5,0,6.11,6.11,0,0,1,2,1.27A5.82,5.82,0,0,1,29,7.33a5.68,5.68,0,0,1,.46,2.29v0A5.6,5.6,0,0,1,29,12a5.78,5.78,0,0,1-1.31,1.89,6.18,6.18,0,0,1-2,1.28A6.5,6.5,0,0,1,23.12,15.6Zm.05-3.38a2.23,2.23,0,0,0,1-.2,2.15,2.15,0,0,0,.75-.54,2.5,2.5,0,0,0,.47-.81,2.87,2.87,0,0,0,.17-1v0a2.72,2.72,0,0,0-.18-1,2.81,2.81,0,0,0-.5-.81,2.64,2.64,0,0,0-.77-.55,2.42,2.42,0,0,0-1.95,0,2.07,2.07,0,0,0-.75.54,2.5,2.5,0,0,0-.47.81,2.87,2.87,0,0,0-.17,1v0a2.72,2.72,0,0,0,.18,1,2.5,2.5,0,0,0,.5.81,2.64,2.64,0,0,0,.77.55A2.19,2.19,0,0,0,23.17,12.22Z"/><path class="cls-1" d="M35.48,15.56a4.21,4.21,0,0,1-2.81-.86,3.64,3.64,0,0,1-1-2.9V7.18H30.32V4h1.34V1.09h4V4H38.3V7.18H35.65V11a1.2,1.2,0,0,0,.27.88,1.19,1.19,0,0,0,.82.26,2.88,2.88,0,0,0,.78-.11,4.2,4.2,0,0,0,.74-.29v3.13a5.51,5.51,0,0,1-1.24.47A6.2,6.2,0,0,1,35.48,15.56Z"/><path class="cls-1" d="M40.33,0h4V5.52a5.94,5.94,0,0,1,1.37-1.26,3.59,3.59,0,0,1,2-.54,3.68,3.68,0,0,1,2.85,1.11,4.36,4.36,0,0,1,1,3.07v7.43h-4V9.18a2.07,2.07,0,0,0-.44-1.43A1.51,1.51,0,0,0,46,7.27a1.64,1.64,0,0,0-1.21.48,2,2,0,0,0-.47,1.43v6.15h-4Z"/><path class="cls-1" d="M57,15.58a4.88,4.88,0,0,1-1.51-.23,3.66,3.66,0,0,1-1.21-.67,3.12,3.12,0,0,1-.81-1.1,3.75,3.75,0,0,1-.29-1.5V12a3.5,3.5,0,0,1,.33-1.55,2.87,2.87,0,0,1,.9-1.11,4.06,4.06,0,0,1,1.4-.68,6.81,6.81,0,0,1,1.82-.23,8.37,8.37,0,0,1,1.53.14,8.7,8.7,0,0,1,1.2.3V8.71a1.71,1.71,0,0,0-.55-1.36,2.58,2.58,0,0,0-1.71-.48A6.89,6.89,0,0,0,56.49,7,9.77,9.77,0,0,0,55,7.5l-.82-2.82a12.78,12.78,0,0,1,2-.64,12,12,0,0,1,2.56-.24,8.13,8.13,0,0,1,2.59.36,4.36,4.36,0,0,1,1.73,1A3.52,3.52,0,0,1,64,6.71a6.87,6.87,0,0,1,.28,2.09v6.53H60.37V14.15A4.22,4.22,0,0,1,57,15.58Zm1.43-2.5a2,2,0,0,0,1.43-.5,1.79,1.79,0,0,0,.54-1.37v-.52a3.44,3.44,0,0,0-.7-.21,4,4,0,0,0-.85-.08,2.05,2.05,0,0,0-1.35.38,1.25,1.25,0,0,0-.48,1v0a1.14,1.14,0,0,0,.4.92A1.58,1.58,0,0,0,58.46,13.08Z"/><path class="cls-1" d="M66.57,4h4V5.52a5.89,5.89,0,0,1,1.36-1.26,3.6,3.6,0,0,1,2-.54,3.89,3.89,0,0,1,2,.48,3.37,3.37,0,0,1,1.31,1.36,5.9,5.9,0,0,1,1.63-1.35A4.49,4.49,0,0,1,81,3.72,3.73,3.73,0,0,1,83.87,4.8a4.28,4.28,0,0,1,1,3.08v7.45h-4V9.16a2.08,2.08,0,0,0-.42-1.42,1.42,1.42,0,0,0-1.13-.47,1.56,1.56,0,0,0-1.18.47,1.94,1.94,0,0,0-.46,1.42v6.17h-4V9.16a2.08,2.08,0,0,0-.42-1.42,1.42,1.42,0,0,0-1.13-.47A1.52,1.52,0,0,0,71,7.74a2,2,0,0,0-.45,1.42v6.17h-4Z"/><path class="cls-1" d="M93,.63h7.54a7.24,7.24,0,0,1,2.37.34,4.2,4.2,0,0,1,1.64,1,3.45,3.45,0,0,1,.69,1,3.35,3.35,0,0,1,.25,1.35v0a3.18,3.18,0,0,1-.64,2.07,4.17,4.17,0,0,1-1.62,1.2,5.2,5.2,0,0,1,2.13,1.27,3.27,3.27,0,0,1,.78,2.32v0a3.48,3.48,0,0,1-1.46,3,6.85,6.85,0,0,1-4.1,1.07H93Zm6.54,5.86A2.68,2.68,0,0,0,101,6.17a1.06,1.06,0,0,0,.49-1v0a1.08,1.08,0,0,0-.46-.94,2.39,2.39,0,0,0-1.38-.32H97V6.49Zm.58,5.56a2.57,2.57,0,0,0,1.45-.34,1.16,1.16,0,0,0,.5-1v0a1.15,1.15,0,0,0-.48-1,2.53,2.53,0,0,0-1.51-.35H97v2.7Z"/><path class="cls-1" d="M108.21,0h4V15.33h-4Z"/><path class="cls-1" d="M117.79,15.58a4.88,4.88,0,0,1-1.51-.23,3.66,3.66,0,0,1-1.21-.67,3,3,0,0,1-.8-1.1,3.59,3.59,0,0,1-.3-1.5V12a3.5,3.5,0,0,1,.33-1.55,3,3,0,0,1,.9-1.11,4.06,4.06,0,0,1,1.4-.68,6.81,6.81,0,0,1,1.82-.23A8.37,8.37,0,0,1,120,8.6a8.7,8.7,0,0,1,1.2.3V8.71a1.71,1.71,0,0,0-.55-1.36,2.57,2.57,0,0,0-1.71-.48,6.89,6.89,0,0,0-1.64.17,9.77,9.77,0,0,0-1.49.46l-.82-2.82A12.59,12.59,0,0,1,117,4a11.88,11.88,0,0,1,2.55-.24,8.13,8.13,0,0,1,2.59.36,4.29,4.29,0,0,1,1.73,1,3.52,3.52,0,0,1,.94,1.52,6.87,6.87,0,0,1,.28,2.09v6.53h-4V14.15a4.34,4.34,0,0,1-1.39,1A4.46,4.46,0,0,1,117.79,15.58Zm1.43-2.5a2,2,0,0,0,1.43-.5,1.79,1.79,0,0,0,.55-1.37v-.52a3.54,3.54,0,0,0-.71-.21,3.89,3.89,0,0,0-.85-.08,2.05,2.05,0,0,0-1.35.38,1.25,1.25,0,0,0-.48,1v0a1.14,1.14,0,0,0,.4.92A1.6,1.6,0,0,0,119.22,13.08Z"/><path class="cls-1" d="M132.66,15.6a5.87,5.87,0,0,1-4.25-1.74A5.75,5.75,0,0,1,127.17,12a5.88,5.88,0,0,1-.46-2.28v0a5.88,5.88,0,0,1,.46-2.28,5.77,5.77,0,0,1,1.25-1.89,5.87,5.87,0,0,1,1.92-1.28,6.38,6.38,0,0,1,2.46-.47,5.4,5.4,0,0,1,4.86,2.55l-2.71,2a3.47,3.47,0,0,0-.91-.89,2.15,2.15,0,0,0-1.21-.31,2.08,2.08,0,0,0-.9.2,2.16,2.16,0,0,0-.7.54,2.49,2.49,0,0,0-.46.79,2.78,2.78,0,0,0-.17,1v0a3,3,0,0,0,.17,1,2.48,2.48,0,0,0,.46.81,2.1,2.1,0,0,0,.71.54,2,2,0,0,0,.93.2,2.22,2.22,0,0,0,1.21-.31,5,5,0,0,0,1-.86L137.72,13a6.1,6.1,0,0,1-2,1.89A5.82,5.82,0,0,1,132.66,15.6Z"/><path class="cls-1" d="M139.18,0h4V7.77L146.26,4h4.52l-3.95,4.56,4,6.8h-4.39l-2.29-3.86-1,1.19v2.67h-4Z"/><path class="cls-1" d="M6.26,28.53h3.92l6.26,14.8H12.08L11,40.71H5.33l-1,2.62H0Zm3.57,9L8.19,33.36,6.53,37.53Z"/><path class="cls-1" d="M21.33,43.58a4.94,4.94,0,0,1-1.52-.23,3.52,3.52,0,0,1-1.2-.67,3,3,0,0,1-.81-1.1,3.62,3.62,0,0,1-.3-1.5v0a3.5,3.5,0,0,1,.33-1.55,3.07,3.07,0,0,1,.9-1.11,4.15,4.15,0,0,1,1.4-.68A6.83,6.83,0,0,1,22,36.46a8.34,8.34,0,0,1,1.52.14,8.7,8.7,0,0,1,1.2.3v-.19a1.71,1.71,0,0,0-.55-1.36,2.57,2.57,0,0,0-1.71-.48,6.89,6.89,0,0,0-1.64.17,9.77,9.77,0,0,0-1.49.46l-.82-2.82A12.59,12.59,0,0,1,20.52,32a11.88,11.88,0,0,1,2.55-.24,8.13,8.13,0,0,1,2.59.36,4.29,4.29,0,0,1,1.73,1,3.52,3.52,0,0,1,.94,1.52,6.87,6.87,0,0,1,.28,2.09v6.53H24.66V42.15a4.34,4.34,0,0,1-1.39,1A4.45,4.45,0,0,1,21.33,43.58Zm1.42-2.5a2,2,0,0,0,1.43-.5,1.79,1.79,0,0,0,.55-1.37v-.52a4.35,4.35,0,0,0-.71-.21,3.89,3.89,0,0,0-.85-.08,2.05,2.05,0,0,0-1.35.38,1.24,1.24,0,0,0-.47,1v0a1.11,1.11,0,0,0,.4.92A1.56,1.56,0,0,0,22.75,41.08Z"/><path class="cls-1" d="M31.72,28.63h7.54a7.24,7.24,0,0,1,2.37.34,4.13,4.13,0,0,1,1.64,1A3.11,3.11,0,0,1,44,31a3.35,3.35,0,0,1,.26,1.35v0a3.24,3.24,0,0,1-.64,2.07A4.2,4.2,0,0,1,42,35.64a5.1,5.1,0,0,1,2.13,1.28,3.24,3.24,0,0,1,.79,2.32v0a3.51,3.51,0,0,1-1.46,3,6.88,6.88,0,0,1-4.11,1.07H31.72Zm6.54,5.86a2.63,2.63,0,0,0,1.43-.32,1.06,1.06,0,0,0,.49-1v0a1.08,1.08,0,0,0-.46-.94,2.34,2.34,0,0,0-1.38-.32H35.71v2.58Zm.59,5.56a2.51,2.51,0,0,0,1.44-.34,1.13,1.13,0,0,0,.5-1v0a1.15,1.15,0,0,0-.48-1,2.51,2.51,0,0,0-1.5-.36h-3.1v2.71Z"/><path class="cls-1" d="M54.84,43.58a4,4,0,0,1-2.1-.49,5.37,5.37,0,0,1-1.37-1.15v1.39h-4V28h4v5.48a8,8,0,0,1,.63-.67,4.19,4.19,0,0,1,.75-.56,4,4,0,0,1,.92-.39,4.73,4.73,0,0,1,3.07.27,4.8,4.8,0,0,1,1.6,1.16,5.67,5.67,0,0,1,1.11,1.85,7.05,7.05,0,0,1,.41,2.46v0a7.22,7.22,0,0,1-.41,2.49A6.1,6.1,0,0,1,58.36,42a4.69,4.69,0,0,1-1.6,1.17A4.54,4.54,0,0,1,54.84,43.58ZM53.6,40.24a2.21,2.21,0,0,0,1.66-.71,2.62,2.62,0,0,0,.67-1.87v0a2.58,2.58,0,0,0-.67-1.85,2.17,2.17,0,0,0-1.66-.71,2.11,2.11,0,0,0-.9.19,2.15,2.15,0,0,0-.74.53,2.54,2.54,0,0,0-.49.81,2.82,2.82,0,0,0-.18,1v0a2.91,2.91,0,0,0,.18,1,2.59,2.59,0,0,0,.49.82,2.15,2.15,0,0,0,.74.53A2.11,2.11,0,0,0,53.6,40.24Z"/><path class="cls-1" d="M69.51,43.62a7.68,7.68,0,0,1-3-.56,7.29,7.29,0,0,1-2.4-1.59A7.61,7.61,0,0,1,61.93,36v0a7.61,7.61,0,0,1,.59-3,7.46,7.46,0,0,1,4.07-4.06,8.06,8.06,0,0,1,3.09-.58,7.55,7.55,0,0,1,3.76.85,7.44,7.44,0,0,1,2.48,2.21l-3.07,2.38a5.16,5.16,0,0,0-1.39-1.27,3.49,3.49,0,0,0-1.82-.46,3.31,3.31,0,0,0-2.52,1.14,3.91,3.91,0,0,0-.73,1.24,4.44,4.44,0,0,0-.26,1.51v0a4.57,4.57,0,0,0,.26,1.54,3.85,3.85,0,0,0,.73,1.25,3.33,3.33,0,0,0,1.1.83,3.18,3.18,0,0,0,1.42.31,3.43,3.43,0,0,0,1.91-.5A6.5,6.5,0,0,0,73,38.12L76,40.31a12,12,0,0,1-1.14,1.32,6.72,6.72,0,0,1-1.41,1,7.51,7.51,0,0,1-1.76.69A8.76,8.76,0,0,1,69.51,43.62Z"/><path class="cls-1" d="M83.45,43.6a5.92,5.92,0,0,1-4.26-1.74A5.93,5.93,0,0,1,77.5,37.7v0A5.87,5.87,0,0,1,78,35.38a5.93,5.93,0,0,1,1.25-1.89,6,6,0,0,1,1.93-1.28,6.34,6.34,0,0,1,2.46-.47,5.61,5.61,0,0,1,2.94.7,5.54,5.54,0,0,1,1.91,1.85l-2.71,2a3.6,3.6,0,0,0-.9-.89,2.19,2.19,0,0,0-1.22-.31,1.91,1.91,0,0,0-.89.2,2.06,2.06,0,0,0-.7.54,2.49,2.49,0,0,0-.46.79,2.57,2.57,0,0,0-.17,1v0a2.78,2.78,0,0,0,.17,1,2.48,2.48,0,0,0,.46.81,2,2,0,0,0,.71.54,2,2,0,0,0,.93.2,2.19,2.19,0,0,0,1.2-.31,4.76,4.76,0,0,0,1-.86L88.51,41a6.1,6.1,0,0,1-2,1.89A5.82,5.82,0,0,1,83.45,43.6Z"/><path class="cls-1" d="M90.82,28.63h5.67a10.62,10.62,0,0,1,3.52.54,7.27,7.27,0,0,1,2.61,1.5,6.43,6.43,0,0,1,1.61,2.3,7.54,7.54,0,0,1,.56,2.93v0a7.53,7.53,0,0,1-.57,3,6.62,6.62,0,0,1-1.64,2.34A7.45,7.45,0,0,1,100,42.77a10.54,10.54,0,0,1-3.55.56H90.82Zm5.74,11.09a4.31,4.31,0,0,0,2.94-1A3.44,3.44,0,0,0,100.61,36v0a3.45,3.45,0,0,0-1.11-2.74,4.31,4.31,0,0,0-2.94-1H94.9v7.48Z"/><path class="cls-1" d="M111.88,43.58a4.54,4.54,0,0,1-1.92-.41A4.66,4.66,0,0,1,108.37,42a5.82,5.82,0,0,1-1.1-1.85,7.05,7.05,0,0,1-.41-2.46v0a7.47,7.47,0,0,1,.4-2.49,5.73,5.73,0,0,1,1.09-1.87,4.89,4.89,0,0,1,1.6-1.17,4.46,4.46,0,0,1,1.91-.41,4.65,4.65,0,0,1,1.17.13,4.28,4.28,0,0,1,.93.36,3.76,3.76,0,0,1,.77.53,6,6,0,0,1,.62.62V28h4V43.33h-4V41.82A6.36,6.36,0,0,1,114,43.06,3.71,3.71,0,0,1,111.88,43.58Zm1.22-3.34a2.11,2.11,0,0,0,.9-.19,2.15,2.15,0,0,0,.74-.53,2.59,2.59,0,0,0,.49-.82,2.91,2.91,0,0,0,.18-1v0a2.82,2.82,0,0,0-.18-1,2.54,2.54,0,0,0-.49-.81,2.15,2.15,0,0,0-.74-.53,2.23,2.23,0,0,0-1.8,0,2.26,2.26,0,0,0-.74.52,2.36,2.36,0,0,0-.5.81,2.68,2.68,0,0,0-.19,1v0a2.71,2.71,0,0,0,.19,1,2.62,2.62,0,0,0,.5.82,2.15,2.15,0,0,0,.74.53A2.11,2.11,0,0,0,113.1,40.24Z"/><path class="cls-1" d="M124.38,32.33l-2.48.56-.77-3.15,4.29-1.21h3v14.8h-4Z"/><path class="cls-1" d="M131.19,40.26l5.5-4.2a7.65,7.65,0,0,0,1.46-1.38,2.07,2.07,0,0,0,.43-1.26,1.37,1.37,0,0,0-.45-1.09,1.71,1.71,0,0,0-1.19-.4,2.42,2.42,0,0,0-1.39.45A8.4,8.4,0,0,0,134,33.82l-2.76-2.29a13.5,13.5,0,0,1,1.2-1.35,6.4,6.4,0,0,1,1.31-1,6,6,0,0,1,1.56-.61,8,8,0,0,1,1.92-.21,6.62,6.62,0,0,1,2.19.34,5.41,5.41,0,0,1,1.72,1,4.47,4.47,0,0,1,1.11,1.47,4.56,4.56,0,0,1,.4,1.91v0a5.43,5.43,0,0,1-.22,1.58,4.41,4.41,0,0,1-.67,1.29,6.69,6.69,0,0,1-1.07,1.14q-.63.55-1.44,1.14L136.75,40h6.07v3.32H131.19Z"/><path class="cls-1" d="M150.93,43.62a8.71,8.71,0,0,1-3.67-.7,7.84,7.84,0,0,1-2.59-1.9l2.56-2.56a6.86,6.86,0,0,0,1.65,1.24,4,4,0,0,0,1.86.44,2.12,2.12,0,0,0,1.38-.41,1.31,1.31,0,0,0,.51-1.08v0a1.27,1.27,0,0,0-.62-1.12,3.38,3.38,0,0,0-1.78-.4h-1.72L147.92,35l3.38-3h-5.62v-3.3H156.3v2.92l-3.5,3a6.77,6.77,0,0,1,1.48.49,4.47,4.47,0,0,1,1.22.81,3.56,3.56,0,0,1,.82,1.2,4.1,4.1,0,0,1,.3,1.64v0a4.6,4.6,0,0,1-.43,2A4.44,4.44,0,0,1,155,42.29a5.32,5.32,0,0,1-1.8,1A7.27,7.27,0,0,1,150.93,43.62Z"/></g></g></svg>