<svg xmlns="http://www.w3.org/2000/svg" viewBox="0 0 171.73 43.58"><defs><style>.cls-1{fill:#323232;}</style></defs><title>gotham-medium</title><g id="Layer_2" data-name="Layer 2"><g id="Layer_1-2" data-name="Layer 1"><path class="cls-1" d="M8.23,15.58A8.08,8.08,0,0,1,5.1,15a6.93,6.93,0,0,1-3.94-4A7.9,7.9,0,0,1,.61,8V8a7.57,7.57,0,0,1,.56-2.93A7.36,7.36,0,0,1,2.73,2.64,7.24,7.24,0,0,1,5.13,1,7.53,7.53,0,0,1,8.19.38,10.4,10.4,0,0,1,9.94.51,8.75,8.75,0,0,1,11.41.9a7.13,7.13,0,0,1,1.27.62,10.11,10.11,0,0,1,1.16.85l-1.64,2a8.44,8.44,0,0,0-.86-.65,5.52,5.52,0,0,0-.92-.51,5,5,0,0,0-1.06-.31,7.18,7.18,0,0,0-1.28-.11,4.37,4.37,0,0,0-1.87.41A4.69,4.69,0,0,0,4.69,4.28a5.45,5.45,0,0,0-1,1.66,5.33,5.33,0,0,0-.37,2V8a6.25,6.25,0,0,0,.35,2.1,4.7,4.7,0,0,0,2.6,2.74,5,5,0,0,0,2.05.4,6.24,6.24,0,0,0,2-.3,5.66,5.66,0,0,0,1.59-.81V9.37H8.11V7.12h6.25v6.17a10.38,10.38,0,0,1-1.2.89,9.22,9.22,0,0,1-4.93,1.4Z"/><path class="cls-1" d="M22.85,15.58a6,6,0,0,1-2.34-.45,5.85,5.85,0,0,1-1.87-1.23,5.73,5.73,0,0,1-1.23-1.82A5.8,5.8,0,0,1,17,9.85v0a5.65,5.65,0,0,1,.45-2.25,6,6,0,0,1,1.24-1.84,6.21,6.21,0,0,1,6.6-1.26A5.87,5.87,0,0,1,27.13,5.7a5.81,5.81,0,0,1,1.22,1.83,5.56,5.56,0,0,1,.44,2.24v0A5.58,5.58,0,0,1,28.34,12a5.69,5.69,0,0,1-1.24,1.84,5.79,5.79,0,0,1-1.87,1.25A6,6,0,0,1,22.85,15.58Zm0-2.2a3.3,3.3,0,0,0,1.4-.29,3.26,3.26,0,0,0,1.06-.76A3.14,3.14,0,0,0,26,11.2a3.76,3.76,0,0,0,.23-1.35v0A3.77,3.77,0,0,0,26,8.42a3.53,3.53,0,0,0-.7-1.13,3.44,3.44,0,0,0-1.07-.77,3.27,3.27,0,0,0-1.38-.28,3.23,3.23,0,0,0-1.37.28,3.29,3.29,0,0,0-1.74,1.87,4.16,4.16,0,0,0-.23,1.38v0a3.7,3.7,0,0,0,.26,1.36,3.45,3.45,0,0,0,.7,1.15,3.29,3.29,0,0,0,1.07.77A3.17,3.17,0,0,0,22.89,13.38Z"/><path class="cls-1" d="M34.76,15.52a4.66,4.66,0,0,1-1.28-.17,2.5,2.5,0,0,1-1-.54,2.41,2.41,0,0,1-.66-1,4.35,4.35,0,0,1-.23-1.54V6.43H30.16V4.24h1.41v-3h2.54v3h3V6.43h-3v5.44a1.41,1.41,0,0,0,.35,1.06,1.49,1.49,0,0,0,1,.32,3.41,3.41,0,0,0,1.58-.38V15a4.44,4.44,0,0,1-2.29.57Z"/><path class="cls-1" d="M39.53,0h2.54V6a5.37,5.37,0,0,1,1.36-1.37A3.54,3.54,0,0,1,45.53,4a3.72,3.72,0,0,1,2.92,1.16,4.46,4.46,0,0,1,1,3.1v7.06H46.94V9a3,3,0,0,0-.62-2,2.24,2.24,0,0,0-1.75-.7,2.36,2.36,0,0,0-1.81.73,2.8,2.8,0,0,0-.69,2v6.26H39.53Z"/><path class="cls-1" d="M59.32,15.33V14a4.77,4.77,0,0,1-1.45,1.14,4.54,4.54,0,0,1-2.14.46,5,5,0,0,1-1.5-.22A3.77,3.77,0,0,1,53,14.69a3.11,3.11,0,0,1-.86-1.07,3.19,3.19,0,0,1-.33-1.48v0a3.51,3.51,0,0,1,.34-1.61,3,3,0,0,1,.93-1.13,4,4,0,0,1,1.43-.68,7.27,7.27,0,0,1,1.8-.22A9.3,9.3,0,0,1,58,8.59a9.52,9.52,0,0,1,1.35.34V8.71A2.21,2.21,0,0,0,58.64,7a3.06,3.06,0,0,0-2-.61,7.06,7.06,0,0,0-1.68.19A11.42,11.42,0,0,0,53.44,7l-.69-2a10.62,10.62,0,0,1,1.89-.67A9.19,9.19,0,0,1,57,4.07,4.9,4.9,0,0,1,60.64,5.3a4.74,4.74,0,0,1,1.2,3.46v6.57Zm.06-4.64a6.57,6.57,0,0,0-1.14-.32,7.85,7.85,0,0,0-1.4-.12,3.25,3.25,0,0,0-1.87.46A1.47,1.47,0,0,0,54.3,12v0a1.39,1.39,0,0,0,.62,1.22,2.64,2.64,0,0,0,1.52.42,4,4,0,0,0,1.17-.17,2.91,2.91,0,0,0,.93-.47,2.08,2.08,0,0,0,.84-1.69Z"/><path class="cls-1" d="M64.86,4.24h2.55V5.92A6.64,6.64,0,0,1,68,5.21a3.94,3.94,0,0,1,.73-.61,3.38,3.38,0,0,1,.92-.43A3.81,3.81,0,0,1,70.79,4a3.62,3.62,0,0,1,2,.54A3.45,3.45,0,0,1,74.08,6a5.46,5.46,0,0,1,1.59-1.41A4.18,4.18,0,0,1,77.84,4a3.74,3.74,0,0,1,2.86,1.1,4.48,4.48,0,0,1,1,3.14v7.08H79.19V9a3.08,3.08,0,0,0-.59-2,2.07,2.07,0,0,0-1.66-.69,2.27,2.27,0,0,0-1.71.7,2.9,2.9,0,0,0-.66,2.05v6.26H72V9a3,3,0,0,0-.59-2,2.07,2.07,0,0,0-1.66-.69,2.17,2.17,0,0,0-1.72.74,2.93,2.93,0,0,0-.65,2v6.24H64.86Z"/><path class="cls-1" d="M91.41.63h2.75l4.47,7L103.1.63h2.76v14.7h-2.59V4.79l-4.64,6.93h-.08L94,4.83v10.5H91.41Z"/><path class="cls-1" d="M114.51,15.58a5.9,5.9,0,0,1-2.23-.42A5.43,5.43,0,0,1,110.47,14a5.63,5.63,0,0,1-1.21-1.82,6.13,6.13,0,0,1-.44-2.34v0a6.41,6.41,0,0,1,.4-2.25,5.67,5.67,0,0,1,1.13-1.84,5.29,5.29,0,0,1,1.71-1.24A5.15,5.15,0,0,1,114.24,4a5.28,5.28,0,0,1,2.32.48,4.79,4.79,0,0,1,1.66,1.31,5.75,5.75,0,0,1,1,1.9,7.76,7.76,0,0,1,.33,2.28c0,.11,0,.22,0,.34a2.4,2.4,0,0,1,0,.37h-8.15a3.09,3.09,0,0,0,3.2,2.81,3.73,3.73,0,0,0,1.63-.33,5.5,5.5,0,0,0,1.37-1l1.49,1.32a6.22,6.22,0,0,1-1.9,1.52A5.81,5.81,0,0,1,114.51,15.58ZM117,9a4.3,4.3,0,0,0-.27-1.15,3.14,3.14,0,0,0-.57-.93,2.4,2.4,0,0,0-.85-.62,2.67,2.67,0,0,0-1.12-.22,2.56,2.56,0,0,0-1.94.81A3.71,3.71,0,0,0,111.34,9Z"/><path class="cls-1" d="M126.67,15.56a4.85,4.85,0,0,1-1.9-.38,4.62,4.62,0,0,1-1.65-1.11A5.63,5.63,0,0,1,122,12.26a6.45,6.45,0,0,1-.44-2.45v0A6.67,6.67,0,0,1,122,7.31,5.45,5.45,0,0,1,123.1,5.5a4.62,4.62,0,0,1,1.65-1.11A5.09,5.09,0,0,1,126.67,4a4.1,4.1,0,0,1,2.27.59A6,6,0,0,1,130.45,6V0H133V15.33h-2.54V13.48A5.6,5.6,0,0,1,128.93,15,3.91,3.91,0,0,1,126.67,15.56Zm.62-2.2a3.15,3.15,0,0,0,2.24-1,3.86,3.86,0,0,0,.7-1.12,4,4,0,0,0,.26-1.45v0a4,4,0,0,0-.26-1.46,3.55,3.55,0,0,0-.7-1.13,3.17,3.17,0,0,0-1-.71,3,3,0,0,0-1.21-.25,3.17,3.17,0,0,0-1.23.24,2.92,2.92,0,0,0-1,.7,3.11,3.11,0,0,0-.69,1.12,4.16,4.16,0,0,0-.26,1.49v0a4,4,0,0,0,.26,1.46,3.11,3.11,0,0,0,.69,1.12,2.94,2.94,0,0,0,1,.71A3,3,0,0,0,127.29,13.36Z"/><path class="cls-1" d="M136.07.13h2.73V2.54h-2.73Zm.1,4.11h2.54V15.33h-2.54Z"/><path class="cls-1" d="M145.74,15.56a3.7,3.7,0,0,1-2.92-1.15,4.49,4.49,0,0,1-1-3.11V4.24h2.54v6.3a3,3,0,0,0,.62,2,2.2,2.2,0,0,0,1.75.7,2.4,2.4,0,0,0,1.81-.72,2.84,2.84,0,0,0,.69-2V4.24h2.54V15.33H149.2V13.61a6.06,6.06,0,0,1-.6.74,3.81,3.81,0,0,1-.75.62,3.42,3.42,0,0,1-.95.43A3.78,3.78,0,0,1,145.74,15.56Z"/><path class="cls-1" d="M154.86,4.24h2.54V5.92a6.73,6.73,0,0,1,.59-.71,3.64,3.64,0,0,1,.73-.61,3.38,3.38,0,0,1,.92-.43A3.7,3.7,0,0,1,160.78,4a3.64,3.64,0,0,1,2,.54A3.52,3.52,0,0,1,164.08,6a5.46,5.46,0,0,1,1.59-1.41A4.18,4.18,0,0,1,167.84,4a3.74,3.74,0,0,1,2.86,1.1,4.48,4.48,0,0,1,1,3.14v7.08h-2.55V9a3.08,3.08,0,0,0-.58-2,2.08,2.08,0,0,0-1.66-.69,2.27,2.27,0,0,0-1.71.7,2.91,2.91,0,0,0-.67,2.05v6.26H162V9a3,3,0,0,0-.58-2,2.08,2.08,0,0,0-1.66-.69,2.21,2.21,0,0,0-1.73.74,3,3,0,0,0-.65,2v6.24h-2.54Z"/><path class="cls-1" d="M6.47,28.53H8.86l6.47,14.8H12.6l-1.49-3.55H4.16L2.65,43.33H0Zm3.69,8.94L7.62,31.59,5.1,37.47Z"/><path class="cls-1" d="M24.74,43.33V42a4.77,4.77,0,0,1-1.45,1.14,4.54,4.54,0,0,1-2.14.46,5,5,0,0,1-1.5-.22,3.77,3.77,0,0,1-1.26-.65,3.11,3.11,0,0,1-.86-1.07,3.19,3.19,0,0,1-.33-1.48v0a3.51,3.51,0,0,1,.34-1.61,3.09,3.09,0,0,1,.93-1.13,4,4,0,0,1,1.43-.68,7.27,7.27,0,0,1,1.8-.22,9.3,9.3,0,0,1,1.71.13,11.1,11.1,0,0,1,1.35.33v-.21a2.21,2.21,0,0,0-.7-1.76,3,3,0,0,0-2-.61,7.06,7.06,0,0,0-1.68.19,11.42,11.42,0,0,0-1.49.51l-.69-2a10.62,10.62,0,0,1,1.89-.67,9.19,9.19,0,0,1,2.33-.26,4.9,4.9,0,0,1,3.67,1.23,4.74,4.74,0,0,1,1.2,3.46v6.57Zm.06-4.64a6.57,6.57,0,0,0-1.14-.32,7.85,7.85,0,0,0-1.4-.12,3.25,3.25,0,0,0-1.87.46A1.47,1.47,0,0,0,19.72,40v0a1.39,1.39,0,0,0,.62,1.22,2.64,2.64,0,0,0,1.52.42A4,4,0,0,0,23,41.48,2.91,2.91,0,0,0,24,41a2.08,2.08,0,0,0,.84-1.69Z"/><path class="cls-1" d="M31.22,28.63h6.59a5.21,5.21,0,0,1,3.85,1.3,3.34,3.34,0,0,1,1,2.44v0a3.65,3.65,0,0,1-.18,1.18,3.38,3.38,0,0,1-.46.91,3.28,3.28,0,0,1-.66.68,4.51,4.51,0,0,1-.8.51A5.19,5.19,0,0,1,42.65,37a3.13,3.13,0,0,1,.81,2.31v0A3.72,3.72,0,0,1,43.07,41,3.49,3.49,0,0,1,42,42.3a5.37,5.37,0,0,1-1.71.77,9.07,9.07,0,0,1-2.24.26h-6.8Zm6.07,6.2a3.6,3.6,0,0,0,2-.5,1.63,1.63,0,0,0,.76-1.49v0a1.61,1.61,0,0,0-.66-1.37,3.16,3.16,0,0,0-1.92-.49H33.76v3.89ZM38,41a3.76,3.76,0,0,0,2.08-.5A1.69,1.69,0,0,0,40.88,39v0a1.66,1.66,0,0,0-.75-1.45A4,4,0,0,0,37.85,37H33.76v4Z"/><path class="cls-1" d="M53.06,43.56A4,4,0,0,1,50.79,43a5.75,5.75,0,0,1-1.49-1.36v1.72H46.76V28H49.3v6.09a5.6,5.6,0,0,1,1.51-1.48,4,4,0,0,1,2.25-.6,5,5,0,0,1,3.56,1.49,5.47,5.47,0,0,1,1.16,1.81,6.26,6.26,0,0,1,.44,2.45v.05a6.45,6.45,0,0,1-.43,2.45,5.3,5.3,0,0,1-1.15,1.81A4.84,4.84,0,0,1,55,43.18,4.91,4.91,0,0,1,53.06,43.56Zm-.59-2.2a3.15,3.15,0,0,0,2.24-1,3.41,3.41,0,0,0,.68-1.11,4.1,4.1,0,0,0,.25-1.48v-.05a4,4,0,0,0-.25-1.45,3.51,3.51,0,0,0-.68-1.13,3.09,3.09,0,0,0-1-.71,3,3,0,0,0-1.23-.25,3.09,3.09,0,0,0-1.24.25,3.2,3.2,0,0,0-1,.72,3.59,3.59,0,0,0-.7,1.13,3.69,3.69,0,0,0-.26,1.44v.05a3.83,3.83,0,0,0,.26,1.46,3.44,3.44,0,0,0,.7,1.12,3,3,0,0,0,1,.71A3.1,3.1,0,0,0,52.47,41.36Z"/><path class="cls-1" d="M68.49,43.58a7.36,7.36,0,0,1-3-.59,7.14,7.14,0,0,1-2.37-1.6A7.34,7.34,0,0,1,61.58,39,7.68,7.68,0,0,1,61,36v0A7.82,7.82,0,0,1,61.57,33a7.3,7.3,0,0,1,4-4.05,7.66,7.66,0,0,1,3.06-.6,8.63,8.63,0,0,1,1.83.17A7.61,7.61,0,0,1,72,29a6.93,6.93,0,0,1,1.28.72,9.76,9.76,0,0,1,1.11.93l-1.66,1.91a8.33,8.33,0,0,0-1.87-1.33,4.92,4.92,0,0,0-2.24-.5,4.65,4.65,0,0,0-3.48,1.52,5.31,5.31,0,0,0-1,1.65,5.62,5.62,0,0,0-.37,2v0a5.75,5.75,0,0,0,.37,2,5.52,5.52,0,0,0,1,1.67,4.61,4.61,0,0,0,3.48,1.53,5.26,5.26,0,0,0,1.23-.14,4.94,4.94,0,0,0,1.08-.38,6.13,6.13,0,0,0,1-.59,11.4,11.4,0,0,0,.94-.8L74.46,41a11.85,11.85,0,0,1-1.19,1.07,7.6,7.6,0,0,1-1.33.83,6.44,6.44,0,0,1-1.57.52A9.09,9.09,0,0,1,68.49,43.58Z"/><path class="cls-1" d="M82.33,43.58A5.78,5.78,0,0,1,80,43.13a5.58,5.58,0,0,1-1.81-1.23A5.66,5.66,0,0,1,77,40.08a5.79,5.79,0,0,1-.43-2.23v0A5.92,5.92,0,0,1,85,32.54a6.13,6.13,0,0,1,1.81,1.38l-1.57,1.7a5.73,5.73,0,0,0-1.25-1,3.15,3.15,0,0,0-1.63-.39,2.89,2.89,0,0,0-1.28.28,3.16,3.16,0,0,0-1,.76,3.41,3.41,0,0,0-.66,1.11,3.91,3.91,0,0,0-.24,1.37v.05a3.93,3.93,0,0,0,.24,1.38,3.53,3.53,0,0,0,.68,1.14,3.45,3.45,0,0,0,1,.76,3.17,3.17,0,0,0,1.35.29A3.11,3.11,0,0,0,84,41a5.74,5.74,0,0,0,1.29-1l1.54,1.51a6.81,6.81,0,0,1-.86.84A5.61,5.61,0,0,1,85,43a5,5,0,0,1-1.2.43A6,6,0,0,1,82.33,43.58Z"/><path class="cls-1" d="M91.2,31.15l-2.65.73L88,29.79,92,28.53h1.82v14.8H91.2Z"/><path class="cls-1" d="M97.22,41.29l5.06-4.3c.51-.42.93-.8,1.28-1.15a7,7,0,0,0,.85-1,3.49,3.49,0,0,0,.48-.91A3.14,3.14,0,0,0,105,33a2.14,2.14,0,0,0-.68-1.69,2.48,2.48,0,0,0-1.69-.6,3,3,0,0,0-1.78.55,7.78,7.78,0,0,0-1.62,1.66l-1.83-1.43a13.61,13.61,0,0,1,1.07-1.32,6,6,0,0,1,1.19-1,4.86,4.86,0,0,1,1.4-.6,7.22,7.22,0,0,1,1.76-.2,5.84,5.84,0,0,1,2,.32,4.29,4.29,0,0,1,1.53.89,4,4,0,0,1,1,1.38,4.38,4.38,0,0,1,.36,1.8v0a5.13,5.13,0,0,1-.23,1.57,5,5,0,0,1-.71,1.35,9.24,9.24,0,0,1-1.18,1.31c-.48.44-1,.93-1.7,1.46l-3,2.52h7v2.27H97.22Z"/><path class="cls-1" d="M116.23,43.58a7.06,7.06,0,0,1-3.31-.72A7.39,7.39,0,0,1,110.6,41l1.81-1.68a6,6,0,0,0,1.71,1.44,4.43,4.43,0,0,0,2.15.49,2.72,2.72,0,0,0,1.82-.61,2,2,0,0,0,.72-1.62v0a1.87,1.87,0,0,0-.91-1.68,4.47,4.47,0,0,0-2.47-.59h-1.2l-.42-1.62,4-4.23h-6.36V28.63h9.74v1.93l-4.11,4.2a7.37,7.37,0,0,1,1.62.39,4.64,4.64,0,0,1,1.38.77,3.61,3.61,0,0,1,1,1.21,3.88,3.88,0,0,1,.37,1.77v0a4.47,4.47,0,0,1-.38,1.87A4.2,4.2,0,0,1,120,42.28a5,5,0,0,1-1.63,1A6.15,6.15,0,0,1,116.23,43.58Z"/></g></g></svg>