<svg xmlns="http://www.w3.org/2000/svg" viewBox="0 0 509.33 185.31"><defs><style>.cls-1{fill:#323232;}</style></defs><title>proxima-bold</title><g id="Layer_2" data-name="Layer 2"><g id="Layer_1-2" data-name="Layer 1"><path class="cls-1" d="M2.32,1.25h10c4.63,0,7.16,3.13,7.16,6.88s-2.56,6.81-7.16,6.81H6.87v7.65H2.32Zm9.38,3.9H6.87V11H11.7a3,3,0,1,0,0-5.89Z"/><path class="cls-1" d="M22.19,7.14h4.07V9.25a6.61,6.61,0,0,1,4.93-2.47v4a5.86,5.86,0,0,0-1.13-.09,5.14,5.14,0,0,0-3.8,1.72V22.59H22.19Z"/><path class="cls-1" d="M32.72,14.85a7.83,7.83,0,0,1,8.16-8.1,7.83,7.83,0,0,1,8.19,8.1A7.84,7.84,0,0,1,40.88,23,7.83,7.83,0,0,1,32.72,14.85Zm12.13,0c0-2.4-1.44-4.48-4-4.48s-3.94,2.08-3.94,4.48,1.41,4.51,3.94,4.51S44.85,17.28,44.85,14.85Z"/><path class="cls-1" d="M57.36,17.37l-3.55,5.22H49.3l5.47-7.94L49.62,7.14h4.54l3.2,4.76,3.17-4.76h4.54l-5.18,7.51,5.53,7.94H60.88Z"/><path class="cls-1" d="M67,2.43a2.43,2.43,0,0,1,4.86,0,2.43,2.43,0,0,1-4.86,0Zm.41,4.71H71.5V22.59H67.44Z"/><path class="cls-1" d="M94.7,12.83c0-1.44-.64-2.46-2.3-2.46a4.11,4.11,0,0,0-3.2,1.79V22.59H85.1V12.83c0-1.44-.64-2.46-2.3-2.46a4.16,4.16,0,0,0-3.2,1.82v10.4H75.54V7.14H79.6v2a6.76,6.76,0,0,1,5.06-2.4,4.08,4.08,0,0,1,4.28,2.82,6.58,6.58,0,0,1,5.32-2.82c2.84,0,4.54,1.51,4.54,4.67V22.59H94.7Z"/><path class="cls-1" d="M112.08,21a6.4,6.4,0,0,1-4.9,2,5.14,5.14,0,0,1-5.37-5.12c0-3.61,2.91-4.92,5.37-4.92a6.27,6.27,0,0,1,4.9,1.88V12.67c0-1.57-1.34-2.59-3.39-2.59a6.51,6.51,0,0,0-4.51,1.82l-1.54-2.72a10.16,10.16,0,0,1,6.75-2.43c3.52,0,6.75,1.41,6.75,5.86v10h-4.06Zm0-4a4,4,0,0,0-3.26-1.35c-1.6,0-2.92.87-2.92,2.34s1.32,2.27,2.92,2.27a4.07,4.07,0,0,0,3.26-1.34Z"/><path class="cls-1" d="M133,8.26V22.59h-4.55V1.25h4.68L143,15.07V1.25h4.55V22.59h-4.39Z"/><path class="cls-1" d="M150.7,14.85a8.18,8.18,0,0,1,16.35,0,8.18,8.18,0,0,1-16.35,0Zm12.13,0c0-2.4-1.44-4.48-4-4.48s-3.93,2.08-3.93,4.48,1.41,4.51,3.93,4.51S162.83,17.28,162.83,14.85Z"/><path class="cls-1" d="M167.86,7.14h4.35l4,10.75,4-10.75h4.38l-6.2,15.45h-4.39Z"/><path class="cls-1" d="M195.76,21a6.4,6.4,0,0,1-4.9,2,5.14,5.14,0,0,1-5.37-5.12c0-3.61,2.91-4.92,5.37-4.92a6.28,6.28,0,0,1,4.9,1.88V12.67c0-1.57-1.35-2.59-3.39-2.59a6.55,6.55,0,0,0-4.52,1.82l-1.53-2.72a10.16,10.16,0,0,1,6.75-2.43c3.52,0,6.75,1.41,6.75,5.86v10h-4.06Zm0-4a4.06,4.06,0,0,0-3.27-1.35c-1.59,0-2.91.87-2.91,2.34s1.32,2.27,2.91,2.27a4.08,4.08,0,0,0,3.27-1.34Z"/><path class="cls-1" d="M2.32,46.25H13.55c4.07,0,6.15,2.59,6.15,5.44A4.73,4.73,0,0,1,16,56.58a5.18,5.18,0,0,1,4.09,5.25c0,3.2-2.14,5.76-6.21,5.76H2.32Zm10.24,8.57a2.35,2.35,0,1,0,0-4.7H6.87v4.7Zm.16,8.9a2.45,2.45,0,0,0,2.75-2.53,2.5,2.5,0,0,0-2.75-2.5H6.87v5Z"/><path class="cls-1" d="M22.45,59.85a7.83,7.83,0,0,1,8.16-8.1,8.11,8.11,0,1,1,0,16.22A7.83,7.83,0,0,1,22.45,59.85Zm12.13,0c0-2.4-1.44-4.48-4-4.48s-3.94,2.08-3.94,4.48,1.41,4.51,3.94,4.51S34.58,62.28,34.58,59.85Z"/><path class="cls-1" d="M41.81,46.25h4.06V67.59H41.81Z"/><path class="cls-1" d="M60.53,65.64A6.07,6.07,0,0,1,55.76,68c-3.9,0-6.85-2.94-6.85-8.09s2.91-8.13,6.85-8.13a6,6,0,0,1,4.77,2.37V46.25h4.09V67.59H60.53Zm0-8.51A4.47,4.47,0,0,0,57,55.37c-2.31,0-3.91,1.82-3.91,4.51s1.6,4.48,3.91,4.48a4.5,4.5,0,0,0,3.52-1.76Z"/><path class="cls-1" d="M20.84,130.76H8.32l-1.77,4.83H0l10.84-28h7.47l10.8,28H22.6ZM9.91,125.59H19.2l-4.62-12.85Z"/><path class="cls-1" d="M42.46,107.57H57.21c5.33,0,8.06,3.4,8.06,7.14a6.23,6.23,0,0,1-4.83,6.43A6.79,6.79,0,0,1,65.82,128c0,4.2-2.82,7.56-8.15,7.56H42.46ZM55.9,118.83a3.1,3.1,0,1,0,0-6.18H48.43v6.18Zm.21,11.68c2.27,0,3.62-1.3,3.62-3.32a3.28,3.28,0,0,0-3.62-3.28H48.43v6.6Z"/><path class="cls-1" d="M79.72,121.6c0-8.61,6.51-14.49,14.7-14.49A12.94,12.94,0,0,1,106.35,114l-5.13,2.52a7.66,7.66,0,0,0-6.8-4.08c-4.88,0-8.57,3.91-8.57,9.2s3.69,9.2,8.57,9.2a7.58,7.58,0,0,0,6.8-4.07l5.13,2.48a13,13,0,0,1-11.93,6.88C86.23,136.09,79.72,130.21,79.72,121.6Z"/><path class="cls-1" d="M120.67,107.57h11c8.78,0,14.87,5.59,14.87,14s-6.09,14-14.87,14h-11Zm11,22.77a8.38,8.38,0,0,0,8.78-8.74c0-4.95-3-8.78-8.78-8.78h-5.08v17.52Z"/><path class="cls-1" d="M161.57,107.57H181.4v5.13H167.54v6.09h13.57v5.12H167.54v6.51H181.4v5.17H161.57Z"/><path class="cls-1" d="M196.81,107.57h19.83v5.13H202.77v6.09h13.57v5.12H202.77v11.68h-6Z"/><path class="cls-1" d="M245.11,107.11a13.14,13.14,0,0,1,11.6,6.13l-5,2.69a8,8,0,0,0-6.64-3.53c-5.08,0-8.78,3.91-8.78,9.2s3.7,9.2,8.78,9.2a9.49,9.49,0,0,0,6-2.14v-3.4h-7.48v-5.13H257v10.71a15.51,15.51,0,0,1-11.93,5.3c-8.19,0-14.91-5.72-14.91-14.54S236.92,107.11,245.11,107.11Z"/><path class="cls-1" d="M291.73,123.83H278.5v11.76h-6v-28h6v11h13.23v-11h6v28h-6Z"/><path class="cls-1" d="M314,107.57h6v28h-6Z"/><path class="cls-1" d="M336.33,128.79a6.33,6.33,0,0,0,4.45,2,4.15,4.15,0,0,0,4.37-4.49V107.57h6v18.82c0,6.64-4.12,9.7-9.87,9.7a10.32,10.32,0,0,1-7.52-2.73Z"/><path class="cls-1" d="M375.56,124.37,373.38,127v8.61h-6v-28h6v12.52l9.91-12.52h7.35l-11.13,13.15,11.89,14.87h-7.35Z"/><path class="cls-1" d="M404.87,107.57h6v22.77h11.85v5.25H404.87Z"/><path class="cls-1" d="M462,115.43l-7.9,20.16h-2.61l-7.89-20.16v20.16h-6v-28H446l6.81,17.48,6.8-17.48H468v28h-6Z"/><path class="cls-1" d="M490.22,116.77v18.82h-6v-28h6.14l13,18.15V107.57h6v28h-5.75Z"/><path class="cls-1" d="M16.26,155.11c8.48,0,14.66,6,14.66,14.49s-6.18,14.49-14.66,14.49-14.62-6-14.62-14.49S7.81,155.11,16.26,155.11Zm0,5.29c-5.17,0-8.49,3.95-8.49,9.2s3.32,9.2,8.49,9.2,8.52-4,8.52-9.2S21.42,160.4,16.26,160.4Z"/><path class="cls-1" d="M45.86,155.57H59c6.09,0,9.41,4.12,9.41,9s-3.36,9-9.41,9H51.83v10h-6Zm12.31,5.13H51.83v7.73h6.34a3.87,3.87,0,1,0,0-7.73Z"/><path class="cls-1" d="M107.1,179.52l2.06,2.39-4.16,3.4-2.22-2.64a15.82,15.82,0,0,1-6.68,1.42c-8.45,0-14.62-6-14.62-14.49s6.17-14.49,14.62-14.49,14.66,6,14.66,14.49A14.48,14.48,0,0,1,107.1,179.52ZM99,178.3l-3.19-3.74L100,171.2l3.2,3.74a10.06,10.06,0,0,0,1.43-5.34c0-5.25-3.36-9.2-8.53-9.2s-8.49,3.95-8.49,9.2,3.32,9.2,8.49,9.2A8.44,8.44,0,0,0,99,178.3Z"/><path class="cls-1" d="M136,173.55h-4.37v10h-6v-28h13.1c5.84,0,9.41,3.82,9.41,9,0,5-3.11,7.61-6.13,8.32l6.3,10.67h-6.85Zm1.89-12.85h-6.26v7.73h6.26a3.87,3.87,0,0,0,4.2-3.87C142.13,162.21,140.32,160.7,137.93,160.7Z"/><path class="cls-1" d="M164.81,175.1a12.27,12.27,0,0,0,8.9,3.79c3.28,0,4.88-1.56,4.88-3.16,0-2.1-2.44-2.81-5.68-3.57-4.57-1-10.46-2.31-10.46-8.56,0-4.67,4-8.45,10.63-8.45A15.58,15.58,0,0,1,184,159.06l-3.31,4.37a12,12,0,0,0-8-3.07c-2.69,0-4.11,1.18-4.11,2.86,0,1.89,2.35,2.47,5.58,3.23,4.62,1.05,10.5,2.44,10.5,8.65,0,5.13-3.65,9-11.21,9-5.38,0-9.24-1.8-11.89-4.45Z"/><path class="cls-1" d="M205.88,160.82h-8.19v-5.25H220v5.25h-8.15v22.77h-6Z"/><path class="cls-1" d="M234.61,155.57h6v16.64c0,3.9,2.14,6.59,6.51,6.59s6.43-2.69,6.43-6.59V155.57h6v16.8c0,7-4,11.72-12.48,11.72s-12.56-4.78-12.56-11.67Z"/><path class="cls-1" d="M273,155.57h6.8l7.77,21.55,7.73-21.55h6.81l-10.8,28h-7.48Z"/><path class="cls-1" d="M339.7,179.52l2.06,2.39-4.16,3.4-2.23-2.64a15.76,15.76,0,0,1-6.68,1.42c-8.44,0-14.62-6-14.62-14.49s6.18-14.49,14.62-14.49,14.66,6,14.66,14.49A14.47,14.47,0,0,1,339.7,179.52Zm-8.07-1.22-3.19-3.74,4.16-3.36,3.19,3.74a10.06,10.06,0,0,0,1.43-5.34c0-5.25-3.36-9.2-8.53-9.2s-8.48,3.95-8.48,9.2,3.31,9.2,8.48,9.2A8.44,8.44,0,0,0,331.63,178.3Z"/><path class="cls-1" d="M369.56,173.34l-7.06,10.25h-7.1l10.17-14.37L356,155.57h7.1l6.43,9.58,6.34-9.58h7.18l-9.53,13.61,10.16,14.41h-7.14Z"/><path class="cls-1" d="M404.92,172.12l-10.8-16.55h6.81l7,11.26,6.89-11.26h6.81l-10.71,16.55v11.47h-6Z"/><path class="cls-1" d="M433.94,178.76l13.23-17.94H433.94v-5.25h21v4.79l-13.23,18h13.53v5.25H433.94Z"/></g></g></svg>