<svg xmlns="http://www.w3.org/2000/svg" viewBox="0 0 522.85 186.62"><defs><style>.cls-1{fill:#323232;}</style></defs><title>proxima-regular</title><g id="Layer_2" data-name="Layer 2"><g id="Layer_1-2" data-name="Layer 1"><path class="cls-1" d="M2.48,2.18h11.4c5,0,7.67,3.32,7.67,7.32s-2.68,7.17-7.67,7.17H9v6.85H2.48ZM13,7.55H9v3.74H13a1.87,1.87,0,1,0,0-3.74Z"/><path class="cls-1" d="M23.54,8.06H29.3V9.82A6.92,6.92,0,0,1,34,7.68v5.5A4.81,4.81,0,0,0,32.72,13c-1.21,0-2.78.32-3.42,1.09v9.41H23.54Z"/><path class="cls-1" d="M35,15.78c0-4.32,3.2-8.1,8.68-8.1s8.7,3.78,8.7,8.1-3.2,8.12-8.7,8.12S35,20.09,35,15.78Zm11.46,0a2.78,2.78,0,1,0-5.54,0,2.78,2.78,0,1,0,5.54,0Z"/><path class="cls-1" d="M60.6,19.42l-2.47,4.1H51.86l5.06-7.94L52.18,8.06h6.3l2.08,3.62,2.08-3.62H69l-4.74,7.52,5.09,7.94H63Z"/><path class="cls-1" d="M70.16,3.23A3.24,3.24,0,1,1,73.4,6.46,3.22,3.22,0,0,1,70.16,3.23Zm.36,4.83h5.76V23.52H70.52Z"/><path class="cls-1" d="M99.22,14.5a1.59,1.59,0,0,0-1.76-1.73A3,3,0,0,0,95.09,14v9.54H89.33v-9a1.57,1.57,0,0,0-1.76-1.73A3,3,0,0,0,85.24,14v9.54H79.48V8.06h5.76V9.82a6.91,6.91,0,0,1,5.11-2.14c2.18,0,3.75.8,4.45,2.72a6.68,6.68,0,0,1,5.41-2.72c2.85,0,4.77,1.44,4.77,4.64v11.2H99.22Z"/><path class="cls-1" d="M117.11,22.05a6.28,6.28,0,0,1-4.67,1.85,5.12,5.12,0,0,1-5.32-5.09c0-3.84,3-4.76,5.32-4.76a6.13,6.13,0,0,1,4.67,1.69V14c0-1.08-1-1.92-2.88-1.92a7.43,7.43,0,0,0-4.29,1.51L108,10a12,12,0,0,1,7.29-2.34c3.84,0,7.59,1.34,7.59,6.5v9.34h-5.76Zm0-3.59a3,3,0,0,0-2.28-.83c-1,0-2,.32-2,1.28s1.06,1.25,2,1.25a3,3,0,0,0,2.28-.83Z"/><path class="cls-1" d="M140.82,12.06V23.52h-6.47V2.18H141l7.42,10.75V2.18h6.47V23.52h-6.21Z"/><path class="cls-1" d="M157.17,15.78c0-4.32,3.2-8.1,8.67-8.1s8.71,3.78,8.71,8.1-3.2,8.12-8.71,8.12S157.17,20.09,157.17,15.78Zm11.46,0a2.78,2.78,0,1,0-5.54,0,2.78,2.78,0,1,0,5.54,0Z"/><path class="cls-1" d="M174.61,8.06h6.08l2.94,8.83,3-8.83h6.08l-6,15.46h-6.12Z"/><path class="cls-1" d="M202.74,22.05a6.27,6.27,0,0,1-4.67,1.85,5.12,5.12,0,0,1-5.32-5.09c0-3.84,3-4.76,5.32-4.76,2,0,3.84.64,4.67,1.69V14c0-1.08-1-1.92-2.88-1.92a7.43,7.43,0,0,0-4.29,1.51L193.62,10a12,12,0,0,1,7.29-2.34c3.84,0,7.59,1.34,7.59,6.5v9.34h-5.76Zm0-3.59a3,3,0,0,0-2.27-.83c-1,0-2,.32-2,1.28s1.06,1.25,2,1.25a3,3,0,0,0,2.27-.83Z"/><path class="cls-1" d="M2.48,47.18h13c4.42,0,6.34,2.94,6.34,5.44a4.71,4.71,0,0,1-3.65,4.89,5,5,0,0,1,4.06,5.22c0,3-2,5.79-6.3,5.79H2.48Zm11.46,7.93a1.35,1.35,0,0,0,1.28-1.37,1.32,1.32,0,0,0-1.28-1.32H9v2.69Zm.19,8.16a1.42,1.42,0,0,0,1.51-1.44,1.46,1.46,0,0,0-1.51-1.47H9v2.91Z"/><path class="cls-1" d="M24.66,47.18h5.76V68.52H24.66Z"/><path class="cls-1" d="M42.55,67.05a6.27,6.27,0,0,1-4.67,1.85,5.12,5.12,0,0,1-5.32-5.09c0-3.84,3-4.76,5.32-4.76,2,0,3.84.64,4.67,1.69V59c0-1.08-1-1.92-2.88-1.92a7.43,7.43,0,0,0-4.29,1.51l-2-3.55a12,12,0,0,1,7.29-2.34c3.84,0,7.59,1.34,7.59,6.5v9.34H42.55Zm0-3.59a3,3,0,0,0-2.27-.83c-1,0-2,.32-2,1.28s1.06,1.25,2,1.25a3,3,0,0,0,2.27-.83Z"/><path class="cls-1" d="M59.12,52.68c3.52,0,5.7,1.6,6.56,2.91L62,59.08a3,3,0,0,0-2.59-1.31,3,3,0,1,0,0,6A3.12,3.12,0,0,0,62,62.47L65.68,66c-.86,1.28-3,2.91-6.56,2.91-4.89,0-8.67-3.2-8.67-8.12S54.23,52.68,59.12,52.68Z"/><path class="cls-1" d="M74.45,63.53,73.33,65v3.49H67.57V47.18h5.76V58.57l3.55-5.51h7l-5.32,7,5.67,8.42H77.11Z"/><path class="cls-1" d="M21.05,132.91H10.29L9.2,136.52H0l10.33-28H21l10.34,28h-9.2Zm-8.57-7.06h6.38L15.67,116Z"/><path class="cls-1" d="M43.55,108.5h17c5.79,0,8.31,3.86,8.31,7.14,0,3.49-2,5.84-4.78,6.43,3,.46,5.33,3.23,5.33,6.85,0,3.9-2.65,7.6-8.27,7.6H43.55Zm15,10.42a1.77,1.77,0,0,0,1.68-1.81,1.71,1.71,0,0,0-1.68-1.72H52v3.53Zm.25,10.71a1.86,1.86,0,0,0,2-1.89,1.91,1.91,0,0,0-2-1.93H52v3.82Z"/><path class="cls-1" d="M82,122.53C82,113.88,88.66,108,97.23,108c7.56,0,11.26,4.28,12.94,8.15l-7.31,3.4a6,6,0,0,0-5.63-4.08c-3.86,0-6.59,3.11-6.59,7s2.73,7,6.59,7a6,6,0,0,0,5.63-4.07l7.31,3.36c-1.64,3.74-5.38,8.19-12.94,8.19C88.66,137,82,131.14,82,122.53Z"/><path class="cls-1" d="M123.52,108.5H136c8.82,0,15.37,5,15.37,14s-6.55,14-15.33,14H123.52ZM136,129.13a6.47,6.47,0,0,0,6.76-6.64c0-3.78-2.18-6.6-6.72-6.6H132v13.24Z"/><path class="cls-1" d="M165.14,108.5H186.4v7.06H173.63v3.27H186.1v7.06H173.63v3.57H186.4v7.06H165.14Z"/><path class="cls-1" d="M200.88,108.5h21.26v7.06H209.37v3.27h12.47v7.06H209.37v10.63h-8.49Z"/><path class="cls-1" d="M250.36,108c6.51,0,10.38,3.27,12.31,6.89l-7.14,3.65a5.81,5.81,0,0,0-5.17-3.07,7,7,0,0,0,0,14,8,8,0,0,0,4.58-1.25v-1.22h-5.42v-7h13.65v11.26A16.62,16.62,0,0,1,250.36,137c-8.48,0-15.42-5.54-15.42-14.49S241.88,108,250.36,108Z"/><path class="cls-1" d="M296.18,125.81h-10v10.71h-8.48v-28h8.48v9.91h10V108.5h8.49v28h-8.49Z"/><path class="cls-1" d="M319.91,108.5h8.48v28h-8.48Z"/><path class="cls-1" d="M344.81,128.29a6.57,6.57,0,0,0,3.62,1.25,2.92,2.92,0,0,0,3.11-3.15V108.5H360v18c0,7.18-4.33,10.5-10.84,10.5a12.81,12.81,0,0,1-7.81-2.27Z"/><path class="cls-1" d="M385.3,126.65l-1.55,2.1v7.77h-8.49v-28h8.49V119l7.35-10.5h10.38l-10.59,13,11.05,15H391.6Z"/><path class="cls-1" d="M414.15,108.5h8.49v20.63h10.63v7.39H414.15Z"/><path class="cls-1" d="M472.16,118.83l-6.26,17.69h-3.78l-6.26-17.69v17.69h-8.48v-28H459.1L464,122.78l4.92-14.28h11.72v28h-8.49Z"/><path class="cls-1" d="M504.37,121.48v15h-8.48v-28h8.73l9.75,14.11V108.5h8.48v28h-8.14Z"/><path class="cls-1" d="M16.85,156c8.65,0,15.33,5.88,15.33,14.49S25.5,185,16.85,185,1.51,179.14,1.51,170.53,8.19,156,16.85,156Zm0,7.47c-4.08,0-6.73,3.11-6.73,7s2.65,7,6.73,7,6.72-3.1,6.72-7S20.92,163.51,16.85,163.51Z"/><path class="cls-1" d="M45.91,156.5h15c6.55,0,10.08,4.37,10.08,9.62s-3.53,9.41-10.08,9.41H54.39v9H45.91Zm13.86,7.06H54.39v4.91h5.38a2.46,2.46,0,1,0,0-4.91Z"/><path class="cls-1" d="M110.09,180l1.51,1.89-5.88,4.71-2-2.48a16.56,16.56,0,0,1-5.5.88c-8.65,0-15.33-5.88-15.33-14.49S89.59,156,98.24,156s15.33,5.88,15.33,14.49A14,14,0,0,1,110.09,180Zm-11.6-2.48-2.31-2.89,5.88-4.71,2.48,3.15a7.56,7.56,0,0,0,.42-2.56c0-3.91-2.65-7-6.72-7s-6.72,3.11-6.72,7,2.64,7,6.72,7Z"/><path class="cls-1" d="M138.85,175.53h-3.06v9H127.3v-28h15c6.56,0,10.09,4.37,10.09,9.62a9.06,9.06,0,0,1-5,8.49l5.08,9.91h-9.66Zm2.1-12h-5.16v4.91H141a2.47,2.47,0,1,0,0-4.91Z"/><path class="cls-1" d="M168.75,174.27a13,13,0,0,0,9,3.61c1.59,0,3.1-.54,3.1-1.64s-1.17-1.63-3.94-2.14c-4.63-.84-11.68-1.93-11.68-8.95,0-4.74,3.95-9.07,11.63-9.07A18.45,18.45,0,0,1,188.79,160l-4.54,6a13.9,13.9,0,0,0-7.81-2.77c-2.1,0-2.56.76-2.56,1.47,0,1.09,1.13,1.47,4.12,2,4.62.79,11.46,2.14,11.46,8.61,0,6.17-4.58,9.74-12.09,9.74-6,0-10-1.76-13-4.45Z"/><path class="cls-1" d="M209,163.89h-7.52V156.5h23.48v7.39h-7.48v20.63H209Z"/><path class="cls-1" d="M238.64,156.5h8.61v16.21c0,2.69,1.39,4.83,4.87,4.83s4.83-2.14,4.83-4.83V156.5h8.62V173c0,7-4,12.05-13.45,12.05s-13.48-5.08-13.48-12Z"/><path class="cls-1" d="M277.78,156.5h9.62l6.05,18.86,6.05-18.86h9.62l-10.33,28H288.12Z"/><path class="cls-1" d="M347,180l1.52,1.89-5.89,4.71-2-2.48a16.56,16.56,0,0,1-5.5.88c-8.66,0-15.34-5.88-15.34-14.49S326.5,156,335.16,156s15.33,5.88,15.33,14.49A14,14,0,0,1,347,180Zm-11.59-2.48-2.31-2.89,5.88-4.71,2.48,3.15a7.56,7.56,0,0,0,.42-2.56c0-3.91-2.65-7-6.72-7s-6.72,3.11-6.72,7,2.64,7,6.72,7Z"/><path class="cls-1" d="M376.32,176l-5.13,8.57h-10l9.37-14.37-8.74-13.65h10l4.54,8,4.45-8h10l-8.74,13.61,9.37,14.41h-10Z"/><path class="cls-1" d="M411.13,173.39l-10.5-16.89h9.54l5.2,9.45,5.13-9.45H430l-10.42,16.89v11.13h-8.49Z"/><path class="cls-1" d="M441.5,177.8l10.67-13.91H441.5V156.5h21.88v6.68l-10.71,13.95h11v7.39H441.5Z"/></g></g></svg>