<svg xmlns="http://www.w3.org/2000/svg" viewBox="0 0 509.33 185.31"><g data-name="Layer 2"><path d="M2.32 1.25h10c4.63 0 7.16 3.13 7.16 6.88s-2.56 6.81-7.16 6.81H6.87v7.65H2.32zm9.38 3.9H6.87V11h4.83a3 3 0 1 0 0-5.89zm10.49 1.99h4.07v2.11a6.61 6.61 0 0 1 4.93-2.47v4a5.86 5.86 0 0 0-1.13-.09 5.14 5.14 0 0 0-3.8 1.72v10.18h-4.07zm10.53 7.71a7.83 7.83 0 0 1 8.16-8.1 7.83 7.83 0 0 1 8.19 8.1A7.84 7.84 0 0 1 40.88 23a7.83 7.83 0 0 1-8.16-8.15zm12.13 0c0-2.4-1.44-4.48-4-4.48s-3.94 2.08-3.94 4.48 1.41 4.51 3.94 4.51 4-2.08 4-4.51zm12.51 2.52l-3.55 5.22H49.3l5.47-7.94-5.15-7.51h4.54l3.2 4.76 3.17-4.76h4.54l-5.18 7.51 5.53 7.94h-4.54zM67 2.43a2.43 2.43 0 0 1 4.86 0 2.43 2.43 0 0 1-4.86 0zm.41 4.71h4.09v15.45h-4.06zm27.29 5.69c0-1.44-.64-2.46-2.3-2.46a4.11 4.11 0 0 0-3.2 1.79v10.43h-4.1v-9.76c0-1.44-.64-2.46-2.3-2.46a4.16 4.16 0 0 0-3.2 1.82v10.4h-4.06V7.14h4.06v2a6.76 6.76 0 0 1 5.06-2.4 4.08 4.08 0 0 1 4.28 2.82 6.58 6.58 0 0 1 5.32-2.82c2.84 0 4.54 1.51 4.54 4.67v11.18h-4.1zM112.08 21a6.4 6.4 0 0 1-4.9 2 5.14 5.14 0 0 1-5.37-5.12c0-3.61 2.91-4.92 5.37-4.92a6.27 6.27 0 0 1 4.9 1.88v-2.17c0-1.57-1.34-2.59-3.39-2.59a6.51 6.51 0 0 0-4.51 1.82l-1.54-2.72a10.16 10.16 0 0 1 6.75-2.43c3.52 0 6.75 1.41 6.75 5.86v10h-4.06zm0-4a4 4 0 0 0-3.26-1.35c-1.6 0-2.92.87-2.92 2.34s1.32 2.27 2.92 2.27a4.07 4.07 0 0 0 3.26-1.34zM133 8.26v14.33h-4.55V1.25h4.68L143 15.07V1.25h4.55v21.34h-4.39zm17.7 6.59a8.18 8.18 0 0 1 16.35 0 8.18 8.18 0 0 1-16.35 0zm12.13 0c0-2.4-1.44-4.48-4-4.48s-3.93 2.08-3.93 4.48 1.41 4.51 3.93 4.51 4-2.08 4-4.51zm5.03-7.71h4.35l4 10.75 4-10.75h4.38l-6.2 15.45H174zM195.76 21a6.4 6.4 0 0 1-4.9 2 5.14 5.14 0 0 1-5.37-5.12c0-3.61 2.91-4.92 5.37-4.92a6.28 6.28 0 0 1 4.9 1.88v-2.17c0-1.57-1.35-2.59-3.39-2.59a6.55 6.55 0 0 0-4.52 1.82l-1.53-2.72a10.16 10.16 0 0 1 6.75-2.43c3.52 0 6.75 1.41 6.75 5.86v10h-4.06zm0-4a4.06 4.06 0 0 0-3.27-1.35c-1.59 0-2.91.87-2.91 2.34s1.32 2.27 2.91 2.27a4.08 4.08 0 0 0 3.27-1.34zM2.32 46.25h11.23c4.07 0 6.15 2.59 6.15 5.44a4.73 4.73 0 0 1-3.7 4.89 5.18 5.18 0 0 1 4.09 5.25c0 3.2-2.14 5.76-6.21 5.76H2.32zm10.24 8.57a2.35 2.35 0 1 0 0-4.7H6.87v4.7zm.16 8.9a2.45 2.45 0 0 0 2.75-2.53 2.5 2.5 0 0 0-2.75-2.5H6.87v5zm9.73-3.87a7.83 7.83 0 0 1 8.16-8.1 8.11 8.11 0 1 1 0 16.22 7.83 7.83 0 0 1-8.16-8.12zm12.13 0c0-2.4-1.44-4.48-4-4.48s-3.94 2.08-3.94 4.48 1.41 4.51 3.94 4.51 4-2.08 4-4.51zm7.23-13.6h4.06v21.34h-4.06zm18.72 19.39A6.07 6.07 0 0 1 55.76 68c-3.9 0-6.85-2.94-6.85-8.09s2.91-8.13 6.85-8.13a6 6 0 0 1 4.77 2.37v-7.9h4.09v21.34h-4.09zm0-8.51A4.47 4.47 0 0 0 57 55.37c-2.31 0-3.91 1.82-3.91 4.51s1.6 4.48 3.91 4.48a4.5 4.5 0 0 0 3.52-1.76zm-39.69 73.63H8.32l-1.77 4.83H0l10.84-28h7.47l10.8 28H22.6zm-10.93-5.17h9.29l-4.62-12.85zm32.55-18.02h14.75c5.33 0 8.06 3.4 8.06 7.14a6.23 6.23 0 0 1-4.83 6.43 6.79 6.79 0 0 1 5.38 6.86c0 4.2-2.82 7.56-8.15 7.56H42.46zm13.44 11.26a3.1 3.1 0 1 0 0-6.18h-7.47v6.18zm.21 11.68c2.27 0 3.62-1.3 3.62-3.32a3.28 3.28 0 0 0-3.62-3.28h-7.68v6.6zm23.61-8.91c0-8.61 6.51-14.49 14.7-14.49a12.94 12.94 0 0 1 11.93 6.89l-5.13 2.52a7.66 7.66 0 0 0-6.8-4.08c-4.88 0-8.57 3.91-8.57 9.2s3.69 9.2 8.57 9.2a7.58 7.58 0 0 0 6.8-4.07l5.13 2.48a13 13 0 0 1-11.93 6.88c-8.19-.04-14.7-5.92-14.7-14.53zm40.95-14.03h11c8.78 0 14.87 5.59 14.87 14s-6.09 14-14.87 14h-11zm11 22.77a8.38 8.38 0 0 0 8.78-8.74c0-4.95-3-8.78-8.78-8.78h-5.08v17.52zm29.9-22.77h19.83v5.13h-13.86v6.09h13.57v5.12h-13.57v6.51h13.86v5.17h-19.83zm35.24 0h19.83v5.13h-13.87v6.09h13.57v5.12h-13.57v11.68h-6zm48.3-.46a13.14 13.14 0 0 1 11.6 6.13l-5 2.69a8 8 0 0 0-6.64-3.53c-5.08 0-8.78 3.91-8.78 9.2s3.7 9.2 8.78 9.2a9.49 9.49 0 0 0 6-2.14v-3.4h-7.48v-5.13H257v10.71a15.51 15.51 0 0 1-11.93 5.3c-8.19 0-14.91-5.72-14.91-14.54s6.76-14.49 14.95-14.49zm46.62 16.72H278.5v11.76h-6v-28h6v11h13.23v-11h6v28h-6zM314 107.57h6v28h-6zm22.33 21.22a6.33 6.33 0 0 0 4.45 2 4.15 4.15 0 0 0 4.37-4.49v-18.73h6v18.82c0 6.64-4.12 9.7-9.87 9.7a10.32 10.32 0 0 1-7.52-2.73zm39.23-4.42l-2.18 2.63v8.61h-6v-28h6v12.52l9.91-12.52h7.35l-11.13 13.15 11.89 14.87h-7.35zm29.31-16.8h6v22.77h11.85v5.25h-17.85zm57.13 7.86l-7.9 20.16h-2.61l-7.89-20.16v20.16h-6v-28h8.4l6.81 17.48 6.8-17.48H468v28h-6zm28.22 1.34v18.82h-6v-28h6.14l13 18.15v-18.17h6v28h-5.75zM16.26 155.11c8.48 0 14.66 6 14.66 14.49s-6.18 14.49-14.66 14.49-14.62-6-14.62-14.49 6.17-14.49 14.62-14.49zm0 5.29c-5.17 0-8.49 3.95-8.49 9.2s3.32 9.2 8.49 9.2 8.52-4 8.52-9.2-3.36-9.2-8.52-9.2zm29.6-4.83H59c6.09 0 9.41 4.12 9.41 9s-3.36 9-9.41 9h-7.17v10h-6zm12.31 5.13h-6.34v7.73h6.34a3.87 3.87 0 1 0 0-7.73zm48.93 18.82l2.06 2.39-4.16 3.4-2.22-2.64a15.82 15.82 0 0 1-6.68 1.42c-8.45 0-14.62-6-14.62-14.49s6.17-14.49 14.62-14.49 14.66 6 14.66 14.49a14.48 14.48 0 0 1-3.66 9.92zM99 178.3l-3.19-3.74 4.19-3.36 3.2 3.74a10.06 10.06 0 0 0 1.43-5.34c0-5.25-3.36-9.2-8.53-9.2s-8.49 3.95-8.49 9.2 3.32 9.2 8.49 9.2a8.44 8.44 0 0 0 2.9-.5zm37-4.75h-4.37v10h-6v-28h13.1c5.84 0 9.41 3.82 9.41 9 0 5-3.11 7.61-6.13 8.32l6.3 10.67h-6.85zm1.89-12.85h-6.26v7.73h6.26a3.87 3.87 0 0 0 4.2-3.87c.04-2.35-1.77-3.86-4.16-3.86zm26.92 14.4a12.27 12.27 0 0 0 8.9 3.79c3.28 0 4.88-1.56 4.88-3.16 0-2.1-2.44-2.81-5.68-3.57-4.57-1-10.46-2.31-10.46-8.56 0-4.67 4-8.45 10.63-8.45a15.58 15.58 0 0 1 10.92 3.91l-3.31 4.37a12 12 0 0 0-8-3.07c-2.69 0-4.11 1.18-4.11 2.86 0 1.89 2.35 2.47 5.58 3.23 4.62 1.05 10.5 2.44 10.5 8.65 0 5.13-3.65 9-11.21 9-5.38 0-9.24-1.8-11.89-4.45zm41.07-14.28h-8.19v-5.25H220v5.25h-8.15v22.77h-6zm28.73-5.25h6v16.64c0 3.9 2.14 6.59 6.51 6.59s6.43-2.69 6.43-6.59v-16.64h6v16.8c0 7-4 11.72-12.48 11.72s-12.56-4.78-12.56-11.67zm38.39 0h6.8l7.77 21.55 7.73-21.55h6.81l-10.8 28h-7.48zm66.7 23.95l2.06 2.39-4.16 3.4-2.23-2.64a15.76 15.76 0 0 1-6.68 1.42c-8.44 0-14.62-6-14.62-14.49s6.18-14.49 14.62-14.49 14.66 6 14.66 14.49a14.47 14.47 0 0 1-3.65 9.92zm-8.07-1.22l-3.19-3.74 4.16-3.36 3.19 3.74a10.06 10.06 0 0 0 1.43-5.34c0-5.25-3.36-9.2-8.53-9.2s-8.48 3.95-8.48 9.2 3.31 9.2 8.48 9.2a8.44 8.44 0 0 0 2.94-.5zm37.93-4.96l-7.06 10.25h-7.1l10.17-14.37-9.57-13.65h7.1l6.43 9.58 6.34-9.58h7.18l-9.53 13.61 10.16 14.41h-7.14zm35.36-1.22l-10.8-16.55h6.81l7 11.26 6.89-11.26h6.81l-10.71 16.55v11.47h-6zm29.02 6.64l13.23-17.94h-13.23v-5.25h21v4.79l-13.23 18h13.53v5.25h-21.3z" fill="#323232" data-name="Layer 1"/></g></svg>