<svg xmlns="http://www.w3.org/2000/svg" viewBox="0 0 522.85 186.62"><defs><style>.cls-1{fill:#323232}</style></defs><g id="Layer_2" data-name="Layer 2"><g id="Layer_1-2" data-name="Layer 1"><path class="cls-1" d="M2.48 2.18h11.4c5 0 7.67 3.32 7.67 7.32s-2.68 7.17-7.67 7.17H9v6.85H2.48zM13 7.55H9v3.74h4a1.87 1.87 0 1 0 0-3.74zm10.54.51h5.76v1.76A6.92 6.92 0 0 1 34 7.68v5.5a4.81 4.81 0 0 0-1.28-.18c-1.21 0-2.78.32-3.42 1.09v9.41h-5.76zM35 15.78c0-4.32 3.2-8.1 8.68-8.1s8.7 3.78 8.7 8.1-3.2 8.12-8.7 8.12S35 20.09 35 15.78zm11.46 0a2.78 2.78 0 1 0-5.54 0 2.78 2.78 0 1 0 5.54 0z"/><path class="cls-1" d="M60.6 19.42l-2.47 4.1h-6.27l5.06-7.94-4.74-7.52h6.3l2.08 3.62 2.08-3.62H69l-4.74 7.52 5.09 7.94H63zm9.56-16.19a3.24 3.24 0 1 1 3.24 3.23 3.22 3.22 0 0 1-3.24-3.23zm.36 4.83h5.76v15.46h-5.76zm28.7 6.44a1.59 1.59 0 0 0-1.76-1.73A3 3 0 0 0 95.09 14v9.54h-5.76v-9a1.57 1.57 0 0 0-1.76-1.73A3 3 0 0 0 85.24 14v9.54h-5.76V8.06h5.76v1.76a6.91 6.91 0 0 1 5.11-2.14c2.18 0 3.75.8 4.45 2.72a6.68 6.68 0 0 1 5.41-2.72c2.85 0 4.77 1.44 4.77 4.64v11.2h-5.76zm17.89 7.55a6.28 6.28 0 0 1-4.67 1.85 5.12 5.12 0 0 1-5.32-5.09c0-3.84 3-4.76 5.32-4.76a6.13 6.13 0 0 1 4.67 1.69V14c0-1.08-1-1.92-2.88-1.92a7.43 7.43 0 0 0-4.29 1.51L108 10a12 12 0 0 1 7.29-2.34c3.84 0 7.59 1.34 7.59 6.5v9.34h-5.76zm0-3.59a3 3 0 0 0-2.28-.83c-1 0-2 .32-2 1.28s1.06 1.25 2 1.25a3 3 0 0 0 2.28-.83zm23.71-6.4v11.46h-6.47V2.18H141l7.42 10.75V2.18h6.47v21.34h-6.21zm16.35 3.72c0-4.32 3.2-8.1 8.67-8.1s8.71 3.78 8.71 8.1-3.2 8.12-8.71 8.12-8.67-3.81-8.67-8.12zm11.46 0a2.78 2.78 0 1 0-5.54 0 2.78 2.78 0 1 0 5.54 0zm5.98-7.72h6.08l2.94 8.83 3-8.83h6.08l-6 15.46h-6.12zm28.13 13.99a6.27 6.27 0 0 1-4.67 1.85 5.12 5.12 0 0 1-5.32-5.09c0-3.84 3-4.76 5.32-4.76 2 0 3.84.64 4.67 1.69V14c0-1.08-1-1.92-2.88-1.92a7.43 7.43 0 0 0-4.29 1.51L193.62 10a12 12 0 0 1 7.29-2.34c3.84 0 7.59 1.34 7.59 6.5v9.34h-5.76zm0-3.59a3 3 0 0 0-2.27-.83c-1 0-2 .32-2 1.28s1.06 1.25 2 1.25a3 3 0 0 0 2.27-.83zM2.48 47.18h13c4.42 0 6.34 2.94 6.34 5.44a4.71 4.71 0 0 1-3.65 4.89 5 5 0 0 1 4.06 5.22c0 3-2 5.79-6.3 5.79H2.48zm11.46 7.93a1.35 1.35 0 0 0 1.28-1.37 1.32 1.32 0 0 0-1.28-1.32H9v2.69zm.19 8.16a1.42 1.42 0 0 0 1.51-1.44 1.46 1.46 0 0 0-1.51-1.47H9v2.91zm10.53-16.09h5.76v21.34h-5.76zm17.89 19.87a6.27 6.27 0 0 1-4.67 1.85 5.12 5.12 0 0 1-5.32-5.09c0-3.84 3-4.76 5.32-4.76 2 0 3.84.64 4.67 1.69V59c0-1.08-1-1.92-2.88-1.92a7.43 7.43 0 0 0-4.29 1.51l-2-3.55a12 12 0 0 1 7.29-2.34c3.84 0 7.59 1.34 7.59 6.5v9.34h-5.71zm0-3.59a3 3 0 0 0-2.27-.83c-1 0-2 .32-2 1.28s1.06 1.25 2 1.25a3 3 0 0 0 2.27-.83zm16.57-10.78c3.52 0 5.7 1.6 6.56 2.91L62 59.08a3 3 0 0 0-2.59-1.31 3 3 0 1 0 0 6 3.12 3.12 0 0 0 2.59-1.3L65.68 66c-.86 1.28-3 2.91-6.56 2.91-4.89 0-8.67-3.2-8.67-8.12s3.78-8.11 8.67-8.11zm15.33 10.85L73.33 65v3.49h-5.76V47.18h5.76v11.39l3.55-5.51h7l-5.32 7 5.67 8.42h-7.12zm-53.4 69.38H10.29l-1.09 3.61H0l10.33-28H21l10.34 28h-9.2zm-8.57-7.06h6.38L15.67 116zm31.07-17.35h17c5.79 0 8.31 3.86 8.31 7.14 0 3.49-2 5.84-4.78 6.43 3 .46 5.33 3.23 5.33 6.85 0 3.9-2.65 7.6-8.27 7.6H43.55zm15 10.42a1.77 1.77 0 0 0 1.68-1.81 1.71 1.71 0 0 0-1.68-1.72H52v3.53zm.25 10.71a1.86 1.86 0 0 0 2-1.89 1.91 1.91 0 0 0-2-1.93H52v3.82zm23.2-7.1c0-8.65 6.66-14.53 15.23-14.53 7.56 0 11.26 4.28 12.94 8.15l-7.31 3.4a6 6 0 0 0-5.63-4.08c-3.86 0-6.59 3.11-6.59 7s2.73 7 6.59 7a6 6 0 0 0 5.63-4.07l7.31 3.36c-1.64 3.74-5.38 8.19-12.94 8.19C88.66 137 82 131.14 82 122.53zm41.52-14.03H136c8.82 0 15.37 5 15.37 14s-6.55 14-15.33 14h-12.52zM136 129.13a6.47 6.47 0 0 0 6.76-6.64c0-3.78-2.18-6.6-6.72-6.6H132v13.24zm29.14-20.63h21.26v7.06h-12.77v3.27h12.47v7.06h-12.47v3.57h12.77v7.06h-21.26zm35.74 0h21.26v7.06h-12.77v3.27h12.47v7.06h-12.47v10.63h-8.49zm49.48-.5c6.51 0 10.38 3.27 12.31 6.89l-7.14 3.65a5.81 5.81 0 0 0-5.17-3.07 7 7 0 0 0 0 14 8 8 0 0 0 4.58-1.25V127h-5.42v-7h13.65v11.26a16.62 16.62 0 0 1-12.81 5.74c-8.48 0-15.42-5.54-15.42-14.49S241.88 108 250.36 108zm45.82 17.81h-10v10.71h-8.48v-28h8.48v9.91h10v-9.93h8.49v28h-8.49zm23.73-17.31h8.48v28h-8.48zm24.9 19.79a6.57 6.57 0 0 0 3.62 1.25 2.92 2.92 0 0 0 3.11-3.15V108.5H360v18c0 7.18-4.33 10.5-10.84 10.5a12.81 12.81 0 0 1-7.81-2.27zm40.49-1.64l-1.55 2.1v7.77h-8.49v-28h8.49V119l7.35-10.5h10.38l-10.59 13 11.05 15H391.6zm28.85-18.15h8.49v20.63h10.63v7.39h-19.12zm58.01 10.33l-6.26 17.69h-3.78l-6.26-17.69v17.69h-8.48v-28h11.72l4.9 14.26 4.92-14.28h11.72v28h-8.49zm32.21 2.65v15h-8.48v-28h8.73l9.75 14.11V108.5h8.48v28h-8.14zM16.85 156c8.65 0 15.33 5.88 15.33 14.49S25.5 185 16.85 185s-15.34-5.86-15.34-14.47S8.19 156 16.85 156zm0 7.47c-4.08 0-6.73 3.11-6.73 7s2.65 7 6.73 7 6.72-3.1 6.72-7-2.65-6.96-6.72-6.96zm29.06-6.97h15c6.55 0 10.08 4.37 10.08 9.62s-3.53 9.41-10.08 9.41h-6.52v9h-8.48zm13.86 7.06h-5.38v4.91h5.38a2.46 2.46 0 1 0 0-4.91zM110.09 180l1.51 1.89-5.88 4.71-2-2.48a16.56 16.56 0 0 1-5.5.88c-8.65 0-15.33-5.88-15.33-14.49S89.59 156 98.24 156s15.33 5.88 15.33 14.49a14 14 0 0 1-3.48 9.51zm-11.6-2.48l-2.31-2.89 5.88-4.71 2.48 3.15a7.56 7.56 0 0 0 .42-2.56c0-3.91-2.65-7-6.72-7s-6.72 3.11-6.72 7 2.64 7 6.72 7zm40.36-1.99h-3.06v9h-8.49v-28h15c6.56 0 10.09 4.37 10.09 9.62a9.06 9.06 0 0 1-5 8.49l5.08 9.91h-9.66zm2.1-12h-5.16v4.91H141a2.47 2.47 0 1 0 0-4.91zm27.8 10.74a13 13 0 0 0 9 3.61c1.59 0 3.1-.54 3.1-1.64s-1.17-1.63-3.94-2.14c-4.63-.84-11.68-1.93-11.68-8.95 0-4.74 3.95-9.07 11.63-9.07a18.45 18.45 0 0 1 11.93 3.92l-4.54 6a13.9 13.9 0 0 0-7.81-2.77c-2.1 0-2.56.76-2.56 1.47 0 1.09 1.13 1.47 4.12 2 4.62.79 11.46 2.14 11.46 8.61 0 6.17-4.58 9.74-12.09 9.74-6 0-10-1.76-13-4.45zM209 163.89h-7.52v-7.39h23.48v7.39h-7.48v20.63H209zm29.64-7.39h8.61v16.21c0 2.69 1.39 4.83 4.87 4.83s4.83-2.14 4.83-4.83V156.5h8.62V173c0 7-4 12.05-13.45 12.05s-13.48-5.08-13.48-12zm39.14 0h9.62l6.05 18.86 6.05-18.86h9.62l-10.33 28h-10.67zM347 180l1.52 1.89-5.89 4.71-2-2.48a16.56 16.56 0 0 1-5.5.88c-8.66 0-15.34-5.88-15.34-14.49S326.5 156 335.16 156s15.33 5.88 15.33 14.49A14 14 0 0 1 347 180zm-11.59-2.48l-2.31-2.89 5.88-4.71 2.48 3.15a7.56 7.56 0 0 0 .42-2.56c0-3.91-2.65-7-6.72-7s-6.72 3.11-6.72 7 2.64 7 6.72 7zm40.91-1.52l-5.13 8.57h-10l9.37-14.37-8.74-13.65h10l4.54 8 4.45-8h10l-8.74 13.61 9.37 14.41h-10zm34.81-2.61l-10.5-16.89h9.54l5.2 9.45 5.13-9.45h9.5l-10.42 16.89v11.13h-8.49zm30.37 4.41l10.67-13.91H441.5v-7.39h21.88v6.68l-10.71 13.95h11v7.39H441.5z"/></g></g></svg>