<svg xmlns="http://www.w3.org/2000/svg" viewBox="0 0 496.27 183.64"><g data-name="Layer 2"><path d="M2.12 0h8.57c4.31 0 6.69 2.94 6.69 6.43a6.28 6.28 0 0 1-6.69 6.43H4.77v8.48H2.12zm8.25 2.37h-5.6v8.13h5.6a4 4 0 0 0 4.26-4.07 4 4 0 0 0-4.26-4.06zm10.44 3.52h2.4v2.49a6.56 6.56 0 0 1 5.15-2.81V8a4.54 4.54 0 0 0-1-.09 5.64 5.64 0 0 0-4.19 2.46v10.97h-2.4zm9.66 7.71c0-4.48 2.94-8.1 7.65-8.1s7.64 3.62 7.64 8.1-2.94 8.13-7.64 8.13-7.65-3.65-7.65-8.13zm12.77 0c0-3.14-1.83-5.95-5.12-5.95S33 10.46 33 13.6s1.86 6 5.16 6 5.08-2.83 5.08-6zM54.05 15l-4.64 6.33h-2.75l5.92-7.93L47 5.89h2.79l4.28 5.88 4.29-5.88h2.78l-5.6 7.52 6 7.93h-2.85zm9.76-13.34a1.62 1.62 0 0 1 3.23 0 1.62 1.62 0 1 1-3.23 0zm.42 4.23h2.4v15.45h-2.4zm25.85 4.96c0-1.95-.86-3.2-2.84-3.2a5.4 5.4 0 0 0-4.1 2.35v11.34h-2.4V10.85c0-1.95-.83-3.2-2.85-3.2a5.38 5.38 0 0 0-4.06 2.4v11.29h-2.4V5.89h2.4v2.24a6.69 6.69 0 0 1 5-2.63A4 4 0 0 1 83 8.38a6.51 6.51 0 0 1 5.16-2.88c2.82 0 4.32 1.57 4.32 4.68v11.16h-2.4zM107 19.58a6.68 6.68 0 0 1-5.12 2.15 5.15 5.15 0 0 1-5.41-5.12c0-3.46 2.78-5.09 5.41-5.09a6.47 6.47 0 0 1 5.12 2.11v-2.78c0-2.08-1.67-3.27-3.91-3.27a6.14 6.14 0 0 0-4.73 2.15l-1.17-1.67a8.11 8.11 0 0 1 6.17-2.56c3.27 0 6 1.48 6 5.22v10.62H107zm0-4.41a5.18 5.18 0 0 0-4.26-1.92c-2.24 0-3.81 1.4-3.81 3.39s1.52 3.36 3.76 3.36a5.18 5.18 0 0 0 4.31-1.92zm18.16-11.04v17.21h-2.66V0h2.72l12.29 16.86V0h2.65v21.34h-2.56zm19 9.47c0-4.48 3-8.1 7.65-8.1s7.65 3.62 7.65 8.1-2.94 8.13-7.65 8.13-7.65-3.65-7.65-8.13zm12.77 0c0-3.14-1.82-5.95-5.12-5.95s-5.15 2.81-5.15 5.95 1.86 6 5.15 6 5.12-2.83 5.12-6zm4.13-7.71h2.59l5.15 12.67 5.12-12.67h2.63l-6.43 15.45h-2.63zm27.65 13.69a6.68 6.68 0 0 1-5.12 2.15 5.15 5.15 0 0 1-5.41-5.12c0-3.46 2.78-5.09 5.41-5.09a6.47 6.47 0 0 1 5.12 2.11v-2.78c0-2.08-1.67-3.27-3.91-3.27a6.14 6.14 0 0 0-4.73 2.15L179 8.06a8.11 8.11 0 0 1 6.17-2.56c3.27 0 6 1.48 6 5.22v10.62h-2.4zm0-4.41a5.18 5.18 0 0 0-4.26-1.92c-2.24 0-3.81 1.4-3.81 3.39s1.57 3.36 3.81 3.36a5.18 5.18 0 0 0 4.26-1.92zM9 57.86H4.77v8.48H2.12V45h8.57c3.91 0 6.69 2.5 6.69 6.43a5.9 5.9 0 0 1-5.53 6.21l5.75 8.7h-3.13zm1.34-10.49H4.77v8.16h5.6a4.08 4.08 0 1 0 0-8.16zm16.9 3.13c4.67 0 7.42 3.65 7.42 8.29v.61H22.15a5.44 5.44 0 0 0 5.57 5.34 6.72 6.72 0 0 0 4.76-1.95l1.16 1.57a8.44 8.44 0 0 1-6.15 2.37c-4.57 0-7.87-3.3-7.87-8.13 0-4.48 3.2-8.1 7.62-8.1zm-5.09 7.14h10.14a5 5 0 0 0-5.08-5.15 5.16 5.16 0 0 0-5.06 5.15zm17.57 10.88a5.91 5.91 0 0 0 5 2.11c2.56 0 5-1.25 5-4.64v-2.21a6.45 6.45 0 0 1-5.18 2.75c-4 0-6.88-3-6.88-8s2.81-8 6.88-8a6.42 6.42 0 0 1 5.18 2.72v-2.36h2.4v15c0 5.12-3.58 6.72-7.36 6.72a7.91 7.91 0 0 1-6.24-2.3zm10-13.38a5.7 5.7 0 0 0-4.61-2.49c-3.1 0-5 2.46-5 5.88s1.86 5.89 5 5.89a5.71 5.71 0 0 0 4.61-2.53zm17.61 9.03a7.57 7.57 0 0 1-5.5 2.56c-3.23 0-4.93-1.57-4.93-4.93V50.89h2.4v10.17c0 2.72 1.38 3.52 3.46 3.52a5.92 5.92 0 0 0 4.57-2.33V50.89h2.4v15.45h-2.4zM74.53 45h2.4v21.34h-2.4zM91.4 64.58a6.68 6.68 0 0 1-5.12 2.15 5.15 5.15 0 0 1-5.41-5.12c0-3.46 2.78-5.09 5.41-5.09a6.47 6.47 0 0 1 5.12 2.11v-2.78c0-2.08-1.67-3.27-3.91-3.27a6.14 6.14 0 0 0-4.73 2.15l-1.12-1.67a8.1 8.1 0 0 1 6.17-2.56c3.27 0 6 1.48 6 5.22v10.62H91.4zm0-4.41a5.18 5.18 0 0 0-4.26-1.92c-2.24 0-3.81 1.4-3.81 3.39S84.9 65 87.14 65a5.18 5.18 0 0 0 4.26-1.92zm7.2-9.28h2.4v2.49a6.56 6.56 0 0 1 5.15-2.81V53a4.54 4.54 0 0 0-1-.09A5.64 5.64 0 0 0 101 55.4v10.94h-2.4zm-78.06 77.24H6.34l-2.48 6.21H0l11.26-28h4.32l11.3 28H23zM7.35 125h12.14l-6-15.59zm34.02-18.68h12.48c4.87 0 7.85 2.94 7.85 7.14a6.36 6.36 0 0 1-4.91 6.43c3 .46 5.46 3.53 5.46 6.89 0 4.5-3 7.56-8.11 7.56H41.37zm11.89 12.14c3.15 0 4.83-1.93 4.83-4.49s-1.68-4.54-4.83-4.54h-8.4v9zm.17 12.77c3.27 0 5.2-1.84 5.2-4.83 0-2.56-1.76-4.83-5.2-4.83h-8.57v9.66zm24.06-10.88c0-8.61 6.34-14.49 14.28-14.49a12.62 12.62 0 0 1 10.76 5.55L99.59 113a9.53 9.53 0 0 0-7.82-4c-6 0-10.67 4.7-10.67 11.38s4.67 11.39 10.67 11.39a9.41 9.41 0 0 0 7.82-4.08l3 1.64a12.76 12.76 0 0 1-10.8 5.55c-7.96-.03-14.3-5.88-14.3-14.53zm40.36-14.03h9.58c8.69 0 14.37 6.09 14.37 14s-5.68 14-14.37 14h-9.58zm9.58 24.91c6.8 0 10.75-4.87 10.75-10.88s-3.82-10.92-10.75-10.92h-6.09v21.8zm30.66-24.91h18.35v3.11h-14.87v9h14.58v3.11h-14.58v9.66h14.87v3.11h-18.35zm34.73 0h18.36v3.11h-14.87v9h14.57v3.11h-14.57v12.77h-3.49zm47.18-.46a13.37 13.37 0 0 1 10.88 5.25l-2.77 1.72A10.37 10.37 0 0 0 240 109c-6.13 0-10.8 4.7-10.8 11.38s4.67 11.43 10.8 11.43a11.09 11.09 0 0 0 7.52-3V123h-9.62v-3.11H251v10.13a14.6 14.6 0 0 1-11 4.83 14.52 14.52 0 0 1 0-29zm47.41 15.63H271v12.85h-3.48v-28H271v12.06h16.39v-12.08h3.48v28h-3.48zm20.87-15.17h3.48v28h-3.48zM328.14 129a6.72 6.72 0 0 0 5.3 2.77c3.44 0 5.62-2.4 5.62-5.88v-19.57h3.49v19.58c0 6.09-3.91 8.95-8.9 8.95a9 9 0 0 1-7.31-3.24zm38.1-7.26l-2.82 3.19v9.41h-3.48v-28h3.48v14.5l12.39-14.5h4.37l-11.67 13.32 12.68 14.7h-4.33zM396 106.32h3.49v24.91h13v3.11H396zm56.21 4.68l-9.53 23.31h-1.43L431.76 111v23.31h-3.49v-28h5l8.73 21.35 8.74-21.34h5v28h-3.49zm24.36.74v22.6h-3.49v-28h3.57l16.13 22.14v-22.16h3.49v28h-3.36zm-460.9 42.12c8.27 0 13.9 6.22 13.9 14.49s-5.63 14.5-13.9 14.5-13.91-6.22-13.91-14.5 5.59-14.49 13.91-14.49zm0 3.11c-6.3 0-10.29 4.83-10.29 11.38s4 11.39 10.29 11.39S26 174.86 26 168.35 21.93 157 15.67 157zm30.19-2.65h11.26c5.63 0 8.78 3.87 8.78 8.45s-3.23 8.44-8.78 8.44h-7.77v11.13h-3.49zm10.84 3.11h-7.35v10.67h7.35c3.32 0 5.59-2.18 5.59-5.33s-2.29-5.34-5.59-5.34zm47.51 21.26l2.64 2.85-2.43 2.1-2.69-2.89a14.19 14.19 0 0 1-7.61 2.1c-8.31 0-13.9-6.22-13.9-14.5s5.59-14.49 13.9-14.49S108 160.08 108 168.35a15 15 0 0 1-3.79 10.34zm-4.75-.38l-4-4.33 2.43-2.06 3.95 4.25a12.15 12.15 0 0 0 2.57-7.82c0-6.55-4-11.38-10.3-11.38s-10.29 4.83-10.29 11.38 4 11.39 10.29 11.39a10.06 10.06 0 0 0 5.35-1.43zm33.93-7.1h-5.58v11.13h-3.49v-28h11.26c5.12 0 8.78 3.28 8.78 8.45a7.75 7.75 0 0 1-7.27 8.15l7.56 11.42h-4.12zm1.77-13.78h-7.35v10.71h7.35a5.36 5.36 0 1 0 0-10.71zm25.91 18.32a11.83 11.83 0 0 0 8.82 4c5 0 6.6-2.69 6.6-4.83 0-3.36-3.41-4.29-7.1-5.3-4.5-1.17-9.5-2.43-9.5-7.94 0-4.62 4.12-7.77 9.62-7.77a13.17 13.17 0 0 1 10 3.91l-2.1 2.56a10.72 10.72 0 0 0-8.11-3.36c-3.36 0-5.75 1.81-5.75 4.45 0 2.82 3.23 3.66 6.8 4.63 4.58 1.21 9.79 2.64 9.79 8.52 0 4.08-2.77 8.24-10.34 8.24a13.85 13.85 0 0 1-10.8-4.47zm42-18.32h-8.86v-3.11h21.25v3.11h-8.9v24.91h-3.49zm27.84-3.11h3.49v17.06c0 5.12 2.77 8.36 7.94 8.36s7.94-3.24 7.94-8.36v-17.06h3.49v17.1c0 7-3.83 11.43-11.43 11.43s-11.43-4.5-11.43-11.39zm37.34 0h4l9.45 24.2 9.46-24.2h4l-11.3 28h-4.33zm64.22 24.37l2.65 2.85-2.44 2.1-2.68-2.89a14.19 14.19 0 0 1-7.61 2.1c-8.32 0-13.9-6.22-13.9-14.5s5.58-14.49 13.9-14.49 13.91 6.22 13.91 14.49a14.92 14.92 0 0 1-3.83 10.34zm-4.74-.38l-4-4.33 2.43-2.06 3.95 4.25a12.14 12.14 0 0 0 2.56-7.82c0-6.55-4-11.38-10.29-11.38s-10.29 4.83-10.29 11.38 4 11.39 10.29 11.39a10.08 10.08 0 0 0 5.35-1.43zm35.27-7.9l-8.94 11.93h-4.25L360.74 168l-10.3-13.66h4.25l8.31 11.2 8.28-11.22h4.24l-10.25 13.61 10.88 14.41H372zm36 .09l-11-16.18h4l8.7 13 8.69-13h4.08l-11 16.18v11.84H399zm27.67 8.94l15.76-22h-15.76v-3.11h20.21v2.9l-15.75 22h16v3.11h-20.5z" fill="#323232" data-name="Layer 1"/></g></svg>